<svg width="48" height="48" viewBox="0 0 48 48" fill="none" xmlns="http://www.w3.org/2000/svg">
<path d="M32.6959 14.434C32.6685 14.434 32.6371 14.4355 32.6075 14.4377C33.0298 7.46655 34.4155 2.12395 24 2.125C13.6331 2.12601 14.9756 7.46655 15.3979 14.4377C15.3684 14.4355 15.3396 14.434 15.3122 14.434C14.875 14.434 14.172 14.8281 14.2701 16.4688C14.3795 18.2978 15.4995 20.669 16.2673 20.791C17.6193 25.7601 20.4288 28.0947 24 28.0947C27.5625 28.0947 30.3854 25.7601 31.7374 20.791C32.5053 20.669 33.6299 18.2978 33.7393 16.4688C33.8374 14.8281 33.1331 14.434 32.6959 14.434Z" fill="#3F4145"/>
<path d="M31.4339 27.1748C29.6454 31.2542 26.9789 32.9061 23.9999 32.9061C21.021 32.9061 18.3545 31.2542 16.5661 27.1748C9.82924 28.6648 5.10938 32.118 5.10938 36.1406C5.10938 41.5253 13.567 45.8906 24 45.8906C34.433 45.8906 42.8906 41.5253 42.8906 36.1406C42.8906 32.118 38.1707 28.6648 31.4339 27.1748Z" fill="#3F4145"/>
</svg>
