<svg width="75" height="8" viewBox="0 0 75 8" fill="none" xmlns="http://www.w3.org/2000/svg">
<path d="M1.09631 3.5C0.820171 3.5 0.596313 3.72386 0.596313 4C0.596313 4.27614 0.820171 4.5 1.09631 4.5V3.5ZM74.4499 4.35355C74.6451 4.15829 74.6451 3.84171 74.4499 3.64645L71.2679 0.464466C71.0726 0.269204 70.756 0.269204 70.5608 0.464466C70.3655 0.659728 70.3655 0.976311 70.5608 1.17157L73.3892 4L70.5608 6.82843C70.3655 7.02369 70.3655 7.34027 70.5608 7.53553C70.756 7.7308 71.0726 7.7308 71.2679 7.53553L74.4499 4.35355ZM1.09631 4.5H5.65881V3.5H1.09631V4.5ZM14.7838 4.5H23.9088V3.5H14.7838V4.5ZM33.0338 4.5H42.1588V3.5H33.0338V4.5ZM51.2838 4.5H60.4088V3.5H51.2838V4.5ZM69.5338 4.5H74.0963V3.5H69.5338V4.5Z" fill="white"/>
</svg>
