<svg width="424" height="295" viewBox="0 0 424 295" fill="none" xmlns="http://www.w3.org/2000/svg">
<path d="M296.206 159.464L296.394 159.927L348.975 100.371L349.444 100.543C349.445 100.543 349.445 100.542 349.445 100.542C351.105 96.012 352.035 90.9974 352.243 85.5029L352.243 85.497C352.39 79.8185 351.208 73.9046 348.712 67.7599C343.277 54.3854 333.563 46.2192 319.609 43.3047C305.779 40.1886 289.993 42.2608 272.276 49.4596C256.491 55.8732 244.167 64.2685 235.329 74.6598C226.496 85.045 221.139 96.7262 219.267 109.696L219.193 110.209L219.708 110.265L260.116 114.62L260.595 114.671L260.665 114.195C261.568 108.017 263.795 102.593 267.341 97.9123C271.033 93.1736 275.803 89.6143 281.66 87.2344C287.377 84.9116 292.481 84.3763 296.996 85.5689L297.007 85.5718L297.019 85.5743C301.601 86.5598 304.705 89.1168 306.391 93.265C307.613 96.2726 307.783 99.5539 306.877 103.129C305.897 106.609 304.078 111.218 301.411 116.965C297.524 125.312 294.933 132.627 293.651 138.907C292.292 145.111 293.161 151.97 296.206 159.464ZM319.452 211.168L319.46 211.171C326.152 213.751 333.2 213.525 340.573 210.529C348.093 207.474 353.376 202.691 356.374 196.173L356.377 196.165C359.308 189.508 359.421 182.831 356.713 176.166C353.946 169.356 349.236 164.716 342.598 162.286C335.965 159.857 328.876 160.191 321.361 163.245C313.846 166.298 308.533 171.003 305.474 177.37L305.47 177.378C302.559 183.689 302.497 190.266 305.262 197.071C307.97 203.736 312.709 208.442 319.452 211.168Z" fill="#3F4145" stroke="white"/>
<path d="M298.985 149.186L299.173 149.649L351.754 90.0928L352.224 90.2648C352.224 90.2644 352.224 90.264 352.224 90.2637C353.884 85.7337 354.814 80.7191 355.022 75.2245L355.022 75.2187C355.17 69.5401 353.988 63.6263 351.491 57.4816C346.057 44.1071 336.342 35.9409 322.389 33.0263C308.558 29.9103 292.772 31.9825 275.055 39.1813C259.27 45.5948 246.946 53.9902 238.108 64.3815C229.276 74.7667 223.918 86.4479 222.046 99.4178L221.972 99.9308L222.488 99.9863L262.896 104.341L263.374 104.393L263.444 103.917C264.347 97.7383 266.574 92.3144 270.12 87.6339C273.813 82.8953 278.582 79.336 284.439 76.9561C290.156 74.6333 295.26 74.098 299.776 75.2906L299.787 75.2935L299.798 75.296C304.38 76.2815 307.484 78.8385 309.17 82.9866C310.392 85.9943 310.562 89.2756 309.656 92.8503C308.676 96.3304 306.857 100.94 304.19 106.687C300.304 115.033 297.713 122.349 296.43 128.629C295.071 134.833 295.94 141.691 298.985 149.186ZM322.232 200.89L322.239 200.893C328.932 203.472 335.979 203.247 343.353 200.251C350.872 197.195 356.155 192.413 359.153 185.894L359.156 185.887C362.087 179.229 362.201 172.552 359.493 165.888C356.725 159.077 352.015 154.438 345.378 152.008C338.744 149.579 331.655 149.913 324.14 152.966C316.625 156.02 311.313 160.725 308.253 167.092L308.25 167.099C305.339 173.411 305.277 179.988 308.042 186.793C310.75 193.458 315.488 198.163 322.232 200.89Z" fill="#32CC00" stroke="white"/>
<path d="M195.091 230.042L194.971 230.528L195.457 230.647L226.871 238.373L227.357 238.492L227.476 238.007C228.233 234.929 229.795 232.492 232.162 230.672L232.162 230.672L232.171 230.665C234.622 228.686 238.252 226.483 243.079 224.056L243.084 224.054C247.524 221.764 251.179 219.65 254.045 217.711C257.084 215.665 259.889 212.997 262.462 209.715L262.466 209.71C265.089 206.282 266.996 202.118 268.197 197.232C270.815 186.589 268.48 177.233 261.198 169.223C254.088 161.151 243.473 155.404 229.41 151.946C216.879 148.864 205.583 148.534 195.533 150.982C185.491 153.428 177.004 158.217 170.083 165.348L169.722 165.72L170.107 166.067L192.926 186.672L193.284 186.994L193.62 186.649C196.902 183.28 200.656 180.957 204.885 179.67C209.228 178.413 213.708 178.35 218.332 179.487C222.847 180.598 226.185 182.524 228.401 185.234L228.408 185.243L228.416 185.251C230.759 187.86 231.514 190.764 230.715 194.012C230.136 196.368 228.8 198.432 226.676 200.205C224.538 201.895 221.385 203.907 217.203 206.242C211.113 209.632 206.27 212.969 202.687 216.255C199.079 219.472 196.556 224.083 195.091 230.042ZM186.395 272.127L186.395 272.127L186.399 272.134C189.373 276.714 193.818 279.72 199.691 281.165C205.679 282.637 211.07 282.052 215.831 279.372L215.831 279.372L215.838 279.368C220.617 276.574 223.671 272.507 224.978 267.19C226.314 261.758 225.483 256.791 222.476 252.325C219.471 247.864 214.952 244.907 208.969 243.435C202.986 241.964 197.611 242.488 192.88 245.047L192.88 245.047L192.873 245.051C188.257 247.643 185.28 251.673 183.945 257.1C182.637 262.417 183.457 267.436 186.395 272.127Z" fill="#3F4145" stroke="white"/>
<path d="M201.357 224.979L201.238 225.464L201.724 225.584L233.138 233.309L233.623 233.429L233.743 232.943C234.5 229.866 236.062 227.429 238.429 225.608L238.429 225.609L238.438 225.601C240.889 223.622 244.518 221.419 249.346 218.993L249.35 218.99C253.79 216.701 257.446 214.587 260.312 212.648C263.351 210.601 266.156 207.933 268.729 204.651L268.732 204.647C271.355 201.218 273.263 197.055 274.464 192.169C277.082 181.526 274.746 172.17 267.465 164.16C260.355 156.088 249.74 150.341 235.676 146.882C223.146 143.801 211.849 143.471 201.8 145.918C191.758 148.365 183.27 153.153 176.35 160.284L175.989 160.656L176.373 161.004L199.193 181.608L199.55 181.931L199.886 181.586C203.169 178.216 206.923 175.894 211.151 174.607C215.495 173.35 219.974 173.287 224.599 174.424C229.114 175.534 232.452 177.461 234.667 180.17L234.675 180.179L234.682 180.188C237.026 182.797 237.78 185.7 236.982 188.948C236.402 191.305 235.066 193.368 232.943 195.141C230.805 196.832 227.652 198.844 223.47 201.179C217.379 204.569 212.536 207.905 208.954 211.191C205.345 214.409 202.823 219.02 201.357 224.979ZM192.661 267.064L192.661 267.064L192.666 267.071C195.639 271.651 200.084 274.657 205.957 276.101C211.945 277.574 217.337 276.988 222.098 274.309L222.098 274.309L222.105 274.305C226.883 271.511 229.937 267.444 231.245 262.127C232.581 256.695 231.75 251.727 228.743 247.262C225.738 242.8 221.219 239.843 215.236 238.372C209.253 236.9 203.878 237.425 199.146 239.984L199.146 239.984L199.139 239.987C194.523 242.579 191.546 246.609 190.212 252.036C188.904 257.353 189.724 262.373 192.661 267.064Z" fill="#32CC00" stroke="white"/>
<path d="M72.9533 149.743L72.893 150.239L73.3893 150.299L123.307 156.373L123.803 156.433L123.863 155.937C124.465 150.988 126.449 146.877 129.81 143.581L129.81 143.581L129.818 143.573C133.252 140.043 138.461 135.954 145.466 131.306L145.47 131.303C151.891 126.948 157.128 123.011 161.179 119.495C165.464 115.792 169.278 111.176 172.625 105.653L172.628 105.648C176.014 99.907 178.173 93.1649 179.113 85.4327C181.16 68.61 175.848 54.6981 163.191 43.7542C150.77 32.6691 133.378 25.7905 111.066 23.0758C91.1888 20.6573 73.741 22.2503 58.739 27.8799C43.7446 33.5067 31.5814 42.4457 22.2623 54.6958L21.9485 55.1083L22.372 55.4071L61.4234 82.9559L61.8168 83.2334L62.109 82.8508C66.5738 77.0044 71.9715 72.6904 78.3036 69.8974C84.8203 67.1282 91.7708 66.1906 99.1655 67.0902C106.381 67.9682 111.954 70.3378 115.932 74.1587L115.94 74.1667L115.949 74.1743C120.117 77.822 121.861 82.2512 121.221 87.508C120.757 91.3187 119.049 94.8059 116.065 97.9756C113.065 100.998 108.56 104.702 102.534 109.088C93.7765 115.447 86.9418 121.483 82.0435 127.199C77.1192 132.784 74.1007 140.312 72.9533 149.743ZM67.3093 216.1L67.3146 216.106C72.7051 222.56 80.057 226.342 89.3281 227.47C98.7832 228.621 106.922 226.725 113.705 221.751L113.711 221.746C120.506 216.59 124.423 209.812 125.442 201.439C126.483 192.881 124.297 185.448 118.878 179.18C113.462 172.914 106.006 169.219 96.5554 168.069C87.1049 166.919 78.9801 168.719 72.2198 173.503L72.2134 173.507C65.6382 178.318 61.8311 185.021 60.7905 193.573C59.7718 201.946 61.949 209.465 67.3093 216.1Z" fill="#3F4145" stroke="white"/>
<path d="M81.6809 140.762L81.6205 141.259L82.1168 141.319L132.034 147.392L132.53 147.453L132.591 146.956C133.193 142.008 135.176 137.897 138.537 134.601L138.537 134.601L138.546 134.592C141.979 131.062 147.189 126.973 154.194 122.326L154.198 122.323C160.618 117.967 165.856 114.031 169.906 110.514C174.191 106.812 178.005 102.196 181.352 96.6725L181.355 96.6674C184.742 90.9265 186.9 84.1844 187.841 76.4522C189.888 59.6296 184.575 45.7176 171.918 34.7738C159.497 23.6887 142.106 16.81 119.794 14.0953C99.9163 11.6769 82.4685 13.2699 67.4665 18.8995C52.4722 24.5262 40.3089 33.4653 30.9898 45.7153L30.676 46.1278L31.0996 46.4266L70.1509 73.9754L70.5443 74.2529L70.8365 73.8703C75.3014 68.024 80.699 63.7099 87.0312 60.9169C93.5478 58.1477 100.498 57.2101 107.893 58.1098C115.109 58.9877 120.681 61.3573 124.659 65.1782L124.668 65.1862L124.676 65.1939C128.845 68.8415 130.588 73.2707 129.949 78.5275C129.485 82.3382 127.776 85.8255 124.793 88.9951C121.793 92.0177 117.287 95.7211 111.262 100.108C102.504 106.466 95.6694 112.503 90.771 118.219C85.8468 123.804 82.8283 131.332 81.6809 140.762ZM76.0369 207.12L76.0421 207.126C81.4326 213.579 88.7845 217.362 98.0557 218.49C107.511 219.64 115.649 217.744 122.432 212.77L122.439 212.765C129.234 207.609 133.151 200.831 134.169 192.458C135.21 183.901 133.024 176.468 127.606 170.199C122.19 163.934 114.733 160.238 105.283 159.088C95.8325 157.939 87.7077 159.738 80.9473 164.522L80.9409 164.527C74.3657 169.338 70.5586 176.04 69.5181 184.592C68.4993 192.965 70.6766 200.484 76.0369 207.12Z" fill="#32CC00" stroke="white"/>
</svg>
