<svg width="185" height="185" viewBox="0 0 185 185" fill="none" xmlns="http://www.w3.org/2000/svg">
<path d="M124.812 31.0845C123.054 26.9528 119.323 24.0546 114.822 23.3145C111.214 22.6979 107.668 23.5612 104.739 25.7196C101.81 27.8779 99.9599 31.0228 99.4667 34.6304C97.5242 49.122 95.2425 53.562 94.3791 54.7954C90.4634 60.2529 85.7767 61.6096 79.2709 63.4904C72.7342 65.402 65.0568 67.622 56.1768 74.5903V157.316C64.8409 160.461 75.2317 161.879 80.7508 161.879H123.548C133.907 161.879 142.325 153.462 142.325 143.102C142.325 142.239 142.171 141.406 141.893 140.605C148.122 138.354 152.562 132.372 152.562 125.404C152.562 122.875 151.668 120.532 150.126 118.775C154.843 115.876 157.957 110.665 157.957 104.745C157.957 103.389 157.68 102.094 157.217 100.922C163.785 100.244 169.088 95.1254 169.551 88.712C169.828 84.8887 168.41 81.127 165.697 78.3829C163.199 75.8855 159.869 74.4979 156.354 74.4979H118.553C121.235 68.6704 125.521 58.0328 126.693 47.5496C127.433 41.2595 126.785 35.7095 124.812 31.0845Z" fill="#3F4145"/>
<path d="M18.4984 161.88H46.9268C48.6535 161.88 50.0101 160.523 50.0101 158.797V71.3841C50.0101 69.6883 48.6535 68.3008 46.9268 68.3008H18.4984C16.8026 68.3008 15.415 69.6883 15.415 71.3841V158.797C15.415 160.523 16.8026 161.88 18.4984 161.88Z" fill="#3F4145"/>
<path d="M133.246 21.5738L133.247 21.5751C135.116 25.9564 135.757 31.2781 135.036 37.4036L135.035 37.4108C133.886 47.6927 129.667 58.1847 127.002 63.9753L126.186 65.7479H128.137H165.939C169.119 65.7479 172.13 67.0007 174.395 69.2639C176.859 71.7571 178.14 75.1668 177.889 78.6215L177.889 78.6222C177.474 84.3787 172.692 89.0571 166.674 89.6787L165.035 89.8481L165.64 91.3811C166.05 92.4199 166.292 93.5595 166.292 94.7454C166.292 100.217 163.416 105.031 159.056 107.709L157.794 108.485L158.771 109.599C160.107 111.122 160.897 113.17 160.897 115.404C160.897 121.83 156.801 127.352 151.053 129.429L149.894 129.848L150.297 131.013C150.533 131.696 150.66 132.39 150.66 133.102C150.66 142.772 142.802 150.629 133.132 150.629H90.3358C85.1264 150.629 75.3595 149.322 67.0117 146.433V65.2021C75.4481 58.7136 82.7436 56.5802 89.112 54.7178L89.203 54.6912L89.2067 54.6901L89.3262 54.6556C95.7467 52.7997 100.81 51.3361 104.98 45.5241L104.984 45.5182L104.988 45.5122C106.032 44.0204 108.343 39.3262 110.29 24.799C110.738 21.5225 112.412 18.6814 115.066 16.7259L115.066 16.7259C117.725 14.7663 120.928 13.9881 124.196 14.5466L124.204 14.5479C128.292 15.2201 131.66 17.8445 133.246 21.5738Z" fill="#32CC00" stroke="white" stroke-width="2.5"/>
<path d="M56.5118 150.63H28.0833C27.0697 150.63 26.25 149.825 26.25 148.797V61.3841C26.25 60.3787 27.0779 59.5508 28.0833 59.5508H56.5118C57.5399 59.5508 58.3451 60.3705 58.3451 61.3841V148.797C58.3451 149.833 57.5481 150.63 56.5118 150.63Z" fill="#32CC00" stroke="white" stroke-width="2.5"/>
</svg>
