<svg width="185" height="185" viewBox="0 0 185 185" fill="none" xmlns="http://www.w3.org/2000/svg">
<path d="M70.5529 113.204L70.4716 112.857L70.1256 112.772L2.43634 96.1377L70.1256 79.5032L70.4716 79.4182L70.5529 79.0713L86.7837 9.82326L103.014 79.0713L103.096 79.4182L103.442 79.5032L171.131 96.1377L103.442 112.772L103.096 112.857L103.014 113.204L86.7837 182.452L70.5529 113.204Z" fill="#3F4145" stroke="#3F4145" stroke-width="1.16285"/>
<path d="M82.6365 105.776L82.4617 105.03L81.7178 104.848L16.6705 88.8624L81.7178 72.8771L82.4617 72.6943L82.6365 71.9484L98.2163 5.47762L113.796 71.9484L113.971 72.6943L114.715 72.8771L179.762 88.8624L114.715 104.848L113.971 105.03L113.796 105.776L98.2163 172.247L82.6365 105.776Z" fill="#32CC00" stroke="white" stroke-width="2.5"/>
</svg>
