<svg width="185" height="185" viewBox="0 0 185 185" fill="none" xmlns="http://www.w3.org/2000/svg">
<circle cx="95.001" cy="98" r="57" fill="#3F4145"/>
<path d="M89.501 14C43.3895 14 6.00098 51.3836 6.00098 97.5C6.00098 143.616 43.3895 181 89.501 181C135.622 181 173.001 143.616 173.001 97.5C173.001 51.3836 135.622 14 89.501 14ZM120.317 69.6927C126.919 69.6927 132.277 75.0513 132.277 81.6533C132.277 88.2553 126.914 93.6139 120.317 93.6139C113.715 93.6139 108.356 88.2553 108.356 81.6533C108.356 75.0513 113.715 69.6927 120.317 69.6927ZM58.6803 69.6927C65.2872 69.6927 70.6409 75.0513 70.6409 81.6533C70.6409 88.2553 65.2872 93.6139 58.6803 93.6139C52.0783 93.6139 46.7197 88.2553 46.7197 81.6533C46.7197 75.0513 52.0832 69.6927 58.6803 69.6927ZM134.554 126.531C124.325 141.383 107.478 150.248 89.501 150.248C71.5137 150.248 54.6626 141.383 44.4475 126.526C42.1559 123.201 42.9994 118.647 46.3296 116.355C49.6599 114.059 54.2091 114.907 56.5008 118.237C63.9902 129.125 76.3311 135.62 89.5058 135.62C102.681 135.62 115.012 129.125 122.521 118.237C124.812 114.917 129.357 114.073 132.692 116.36C136.003 118.652 136.841 123.201 134.554 126.531Z" fill="#3F4145"/>
<path d="M141.584 118.24L141.585 118.239C144.261 114.342 143.281 109.016 139.403 106.332L139.399 106.329C135.495 103.653 130.175 104.64 127.492 108.527L127.492 108.528C120.215 119.079 108.267 125.37 95.5058 125.37C82.7437 125.37 70.7874 119.079 63.5307 108.529L63.5305 108.529C60.8491 104.632 55.5223 103.636 51.621 106.325C47.7235 109.007 46.7339 114.339 49.4175 118.235C59.8654 133.43 77.1016 142.498 95.501 142.498C113.891 142.498 131.122 133.43 141.584 118.24ZM13.251 88.5C13.251 43.074 50.0798 6.25 95.501 6.25C140.932 6.25 177.751 43.0739 177.751 88.5C177.751 133.926 140.932 170.75 95.501 170.75C50.0798 170.75 13.251 133.926 13.251 88.5ZM139.527 72.6533C139.527 65.3609 133.609 59.4427 126.317 59.4427C119.024 59.4427 113.106 65.3609 113.106 72.6533C113.106 79.9456 119.024 85.8639 126.317 85.8639C133.604 85.8639 139.527 79.946 139.527 72.6533ZM77.8909 72.6533C77.8909 65.3613 71.9779 59.4427 64.6803 59.4427C57.3932 59.4427 51.4697 65.3606 51.4697 72.6533C51.4697 79.9456 57.388 85.8639 64.6803 85.8639C71.9779 85.8639 77.8909 79.9453 77.8909 72.6533Z" fill="#32CC00" stroke="white" stroke-width="2.5"/>
</svg>
