<svg width="180" height="180" viewBox="0 0 180 180" fill="none" xmlns="http://www.w3.org/2000/svg">
<rect x="62" y="34" width="76" height="95" fill="#3F4145"/>
<path d="M86.1081 180C133.652 180 172.216 141.436 172.216 93.8923C172.216 46.3482 133.652 7.78418 86.1081 7.78418C38.564 7.78418 0 46.3482 0 93.8923C0 141.436 38.564 180 86.1081 180ZM79.9573 44.6877C79.9573 41.3048 82.7252 38.537 86.1081 38.537C89.491 38.537 92.2589 41.3048 92.2589 44.6877V90.9401L120.705 113.697C123.35 115.819 123.78 119.694 121.658 122.339C120.459 123.846 118.676 124.645 116.861 124.645C115.508 124.645 114.155 124.214 113.017 123.292L82.2642 98.6899C80.8188 97.5211 79.9578 95.7684 79.9578 93.8923V44.6877H79.9573Z" fill="#3F4145"/>
<path d="M85.3616 36.9035V38.1535H85.3621V86.1081C85.3621 88.3708 86.4009 90.4774 88.1325 91.8777L88.1376 91.8818L118.884 116.479C118.885 116.48 118.887 116.481 118.888 116.482C120.261 117.594 121.895 118.111 123.515 118.111C125.694 118.111 127.843 117.15 129.289 115.335C131.843 112.15 131.323 107.49 128.142 104.938L128.14 104.937L100.163 82.5551V36.9035C100.163 32.8302 96.8357 29.5028 92.7624 29.5028C88.6891 29.5028 85.3616 32.8302 85.3616 36.9035ZM177.62 86.1081C177.62 132.962 139.616 170.966 92.7624 170.966C45.9087 170.966 7.9043 132.962 7.9043 86.1081C7.9043 39.2544 45.9087 1.25 92.7624 1.25C139.616 1.25 177.62 39.2544 177.62 86.1081Z" fill="#32CC00" stroke="white" stroke-width="2.5"/>
</svg>
