<svg width="180" height="180" viewBox="0 0 180 180" fill="none" xmlns="http://www.w3.org/2000/svg">
<g clip-path="url(#clip0_360_3201)">
<path d="M165.218 33.0746C159.985 27.8342 151.486 27.8375 146.246 33.0746L60.8575 118.466L22.9059 80.5153C17.6655 75.2748 9.1708 75.2748 3.93034 80.5153C-1.31011 85.7557 -1.31011 94.2504 3.93034 99.4909L51.3677 146.928C53.9863 149.547 57.4199 150.859 60.8539 150.859C64.2878 150.859 67.7247 149.55 70.3433 146.928L165.218 52.0499C170.459 46.8131 170.459 38.3147 165.218 33.0746Z" fill="#3F4145"/>
<path d="M175.185 34.0272L175.186 34.0279C179.938 38.78 179.938 46.4866 175.186 51.235L175.186 51.2354L80.311 146.114L80.3104 146.114C77.9362 148.491 74.8219 149.679 71.7054 149.679C68.59 149.679 65.4783 148.489 63.1031 146.114L15.6658 98.6763C10.9135 93.924 10.9135 86.2208 15.6658 81.4685C20.4181 76.7162 28.1213 76.7162 32.8736 81.4685L70.8252 119.42L71.7091 120.304L72.5929 119.42L157.981 34.0281C162.734 29.2781 170.441 29.2764 175.185 34.0272Z" fill="#32CC00" stroke="white" stroke-width="2.5"/>
</g>
<defs>
<clipPath id="clip0_360_3201">
<rect width="180" height="180" fill="white"/>
</clipPath>
</defs>
</svg>
