<svg width="180" height="180" viewBox="0 0 180 180" fill="none" xmlns="http://www.w3.org/2000/svg">
<path d="M33.6923 179H138.308C146.961 179 154 172.258 154 163.971V58.0977H117.385C108.732 58.0977 101.692 51.3558 101.692 43.0684V8H33.6923C25.0392 8 18 14.7418 18 23.0293V163.971C18 172.258 25.0392 179 33.6923 179ZM54.6154 78.4707H117.385C120.276 78.4707 122.615 80.7114 122.615 83.4805C122.615 86.2495 120.276 88.4902 117.385 88.4902H54.6154C51.7242 88.4902 49.3846 86.2495 49.3846 83.4805C49.3846 80.7114 51.7242 78.4707 54.6154 78.4707ZM54.6154 98.5098H117.385C120.276 98.5098 122.615 100.75 122.615 103.52C122.615 106.289 120.276 108.529 117.385 108.529H54.6154C51.7242 108.529 49.3846 106.289 49.3846 103.52C49.3846 100.75 51.7242 98.5098 54.6154 98.5098ZM54.6154 118.549H117.385C120.276 118.549 122.615 120.79 122.615 123.559C122.615 126.328 120.276 128.568 117.385 128.568H54.6154C51.7242 128.568 49.3846 126.328 49.3846 123.559C49.3846 120.79 51.7242 118.549 54.6154 118.549ZM54.6154 138.588H96.4615C99.3528 138.588 101.692 140.829 101.692 143.598C101.692 146.367 99.3528 148.607 96.4615 148.607H54.6154C51.7242 148.607 49.3846 146.367 49.3846 143.598C49.3846 140.829 51.7242 138.588 54.6154 138.588Z" fill="#3F4145"/>
<rect x="29" y="61" width="114" height="104" fill="#3F4145"/>
<path d="M140 169.75H40C32.4213 169.75 26.25 163.57 26.25 155.971V15.0293C26.25 7.42986 32.4213 1.25 40 1.25H103.75V35.0684C103.75 44.0439 111.036 51.3477 120 51.3477H153.75V155.971C153.75 163.57 147.579 169.75 140 169.75ZM120 69.2207H60C56.5437 69.2207 53.75 72.0233 53.75 75.4805C53.75 78.9376 56.5437 81.7402 60 81.7402H120C123.456 81.7402 126.25 78.9376 126.25 75.4805C126.25 72.0233 123.456 69.2207 120 69.2207ZM120 89.2598H60C56.5437 89.2598 53.75 92.0624 53.75 95.5195C53.75 98.9767 56.5437 101.779 60 101.779H120C123.456 101.779 126.25 98.9767 126.25 95.5195C126.25 92.0624 123.456 89.2598 120 89.2598ZM120 109.299H60C56.5437 109.299 53.75 112.101 53.75 115.559C53.75 119.016 56.5437 121.818 60 121.818H120C123.456 121.818 126.25 119.016 126.25 115.559C126.25 112.101 123.456 109.299 120 109.299ZM100 129.338H60C56.5437 129.338 53.75 132.141 53.75 135.598C53.75 139.055 56.5437 141.857 60 141.857H100C103.456 141.857 106.25 139.055 106.25 135.598C106.25 132.141 103.456 129.338 100 129.338Z" fill="#32CC00" stroke="white" stroke-width="2.5"/>
<path d="M148.982 38.75H119.991C117.927 38.75 116.25 37.0726 116.25 35.0095V6.01777L148.982 38.75Z" fill="#32CC00" stroke="white" stroke-width="2.5"/>
</svg>
