<svg width="185" height="185" viewBox="0 0 185 185" fill="none" xmlns="http://www.w3.org/2000/svg">
<path d="M156.315 54.1378C162.964 47.4734 162.964 36.6837 156.315 30.0177L150.285 23.9889C143.621 17.337 132.829 17.337 126.165 23.9889L114.106 36.0481L144.256 66.1986L156.315 54.1378Z" fill="#3F4145"/>
<path d="M147.27 81.273L111.09 45.0937C109.424 43.4276 106.726 43.4276 105.06 45.0937L26.6711 123.483C26.2714 123.881 25.956 124.354 25.7421 124.875L15.2084 150.521C14.5526 152.112 14.9179 153.942 16.1359 155.159L17.6255 156.648L5.56474 168.708C4.48108 169.783 4.05324 171.357 4.44673 172.833C4.84022 174.31 5.99258 175.462 7.46973 175.856C8.94532 176.249 10.5193 175.823 11.5951 174.738L23.6559 162.679L25.1456 164.168C26.3604 165.385 28.1905 165.75 29.78 165.093L55.4241 154.557C55.9487 154.348 56.4234 154.034 56.82 153.633L132.195 78.2578L138.226 84.2882L117.119 105.395C116.034 106.47 115.608 108.044 116 109.52C116.393 110.997 117.547 112.149 119.023 112.543C120.5 112.936 122.074 112.509 123.148 111.425L147.27 87.3034C148.071 86.5039 148.521 85.4187 148.521 84.2882C148.521 83.1577 148.071 82.0724 147.27 81.273Z" fill="#3F4145"/>
<path d="M175.608 20.7244C175.608 20.7242 175.608 20.7241 175.607 20.7239L169.579 14.6967C169.578 14.6966 169.578 14.6965 169.578 14.6965C163.304 8.43444 153.145 8.43451 146.871 14.6967L135.52 26.0481L164.256 54.7843L175.607 43.4315L175.608 20.7244ZM175.608 20.7244C181.867 26.9998 181.867 37.1568 175.608 43.4307L175.608 20.7244Z" fill="#32CC00" stroke="white" stroke-width="2"/>
<path d="M166.563 71.9801L166.563 71.9807C167.176 72.5926 167.521 73.4231 167.521 74.2882C167.521 75.1532 167.176 75.9838 166.563 76.5956L166.563 76.5963L142.441 100.718L142.438 100.721C141.616 101.55 140.411 101.878 139.28 101.577C138.151 101.275 137.268 100.393 136.966 99.2633C136.666 98.1334 136.993 96.9283 137.823 96.1047L137.826 96.1017L158.933 74.9953L159.64 74.2882L158.933 73.5811L152.902 67.5507L152.195 66.8435L151.488 67.5507L76.1129 142.926L76.1088 142.93C75.8096 143.233 75.4512 143.47 75.0536 143.629L75.0536 143.629L75.0441 143.632L49.4 154.168L49.3979 154.169C48.182 154.671 46.7821 154.392 45.8531 153.462L45.8527 153.461L44.363 151.972L43.656 151.265L42.9489 151.972L30.8881 164.031L30.885 164.034C30.0614 164.865 28.8566 165.191 27.7274 164.89L27.7271 164.89C26.5962 164.588 25.7143 163.706 25.413 162.576L25.413 162.575C25.112 161.447 25.4391 160.241 26.2693 159.417L26.2718 159.415L38.3326 147.355L39.0398 146.648L38.3326 145.941L36.843 144.452L36.8425 144.451C35.9108 143.52 35.6309 142.12 36.1329 140.902L36.1334 140.901L46.6671 115.255L46.6673 115.255C46.8307 114.856 47.0716 114.495 47.3769 114.191L47.3782 114.19L125.767 35.8008C127.043 34.5252 129.108 34.5252 130.383 35.8008L166.563 71.9801Z" fill="#32CC00" stroke="white" stroke-width="2"/>
</svg>
