<svg width="37" height="37" viewBox="0 0 37 37" fill="none" xmlns="http://www.w3.org/2000/svg">
<path d="M22.5693 5.4328L22.5693 5.43278C22.6772 5.28662 22.8402 5.25649 22.9941 5.32315C23.146 5.38888 23.2189 5.51505 23.1824 5.6754C23.1824 5.67541 23.1824 5.67543 23.1824 5.67544L20.6258 16.8993L20.4692 17.5867L21.1697 17.5072L29.0702 16.6099L29.0137 16.1131L29.0702 16.6099C29.3926 16.5733 29.5367 16.9038 29.3887 17.1043L29.3887 17.1043L17.166 33.6631L17.1659 33.6632C17.058 33.8094 16.895 33.8395 16.7411 33.7729C16.5893 33.7072 16.5163 33.581 16.5528 33.4206L19.1094 22.1967L19.266 21.5093L18.5655 21.5888L10.6652 22.4861C10.3426 22.5227 10.1985 22.1922 10.3465 21.9917L9.94419 21.6947L10.3465 21.9917L22.5693 5.4328Z" fill="white" stroke="#3F4145"/>
<path fill-rule="evenodd" clip-rule="evenodd" d="M20.3564 3.22803L8.13358 19.7869C7.70748 20.3642 8.18614 21.1573 8.91093 21.0751L16.8113 20.1778L14.2547 31.4017C14.0569 32.2703 15.2239 32.7755 15.7576 32.0522L27.9804 15.4934C28.4066 14.9162 27.9278 14.123 27.2031 14.2053L19.3027 15.1025L21.8593 3.87861C22.0571 3.01008 20.8901 2.50493 20.3564 3.22803Z" fill="#3F4145"/>
</svg>
