<svg width="248" height="87" viewBox="0 0 248 87" fill="none" xmlns="http://www.w3.org/2000/svg">
<path d="M246.988 0.890481C246.927 0.621044 246.66 0.451656 246.39 0.512142C246.121 0.572628 245.952 0.840083 246.012 1.10952L246.988 0.890481ZM178 43L178.044 42.5019L178 43ZM11.4999 67L11.1031 66.6958L11.4999 67ZM4.14637 86.3536C4.34164 86.5488 4.65822 86.5488 4.85348 86.3536L8.03549 83.1716C8.23075 82.9763 8.23075 82.6598 8.03549 82.4645C7.84023 82.2692 7.52365 82.2692 7.32838 82.4645L4.49994 85.2929L1.67153 82.4644C1.47627 82.2692 1.15969 82.2692 0.964422 82.4644C0.769159 82.6597 0.769156 82.9763 0.964417 83.1715L4.14637 86.3536ZM4.85998 80.8474C4.89416 80.5734 4.69973 80.3236 4.42571 80.2894C4.15169 80.2552 3.90184 80.4496 3.86767 80.7237L4.85998 80.8474ZM8.04532 70.9883C7.89464 71.2197 7.96009 71.5295 8.19151 71.6801C8.42292 71.8308 8.73266 71.7654 8.88334 71.534L8.04532 70.9883ZM15.2291 64.1739C15.4513 64.0099 15.4986 63.6969 15.3346 63.4747C15.1707 63.2525 14.8576 63.2052 14.6354 63.3692L15.2291 64.1739ZM22.9922 58.6596C22.7408 58.7738 22.6295 59.0701 22.7436 59.3216C22.8578 59.573 23.1542 59.6843 23.4056 59.5702L22.9922 58.6596ZM32.2156 56.1089C32.4767 56.019 32.6155 55.7345 32.5256 55.4734C32.4357 55.2123 32.1512 55.0735 31.8901 55.1634L32.2156 56.1089ZM40.9922 52.3461C40.7262 52.4204 40.5709 52.6963 40.6451 52.9622C40.7194 53.2282 40.9953 53.3836 41.2612 53.3093L40.9922 52.3461ZM50.4536 50.9645C50.7225 50.9018 50.8897 50.633 50.827 50.3641C50.7644 50.0951 50.4955 49.9279 50.2266 49.9906L50.4536 50.9645ZM59.5467 47.994C59.2757 48.0473 59.0992 48.3101 59.1525 48.5811C59.2058 48.852 59.4687 49.0285 59.7396 48.9752L59.5467 47.994ZM69.0942 47.2826C69.3666 47.2374 69.5508 46.9799 69.5056 46.7075C69.4603 46.4351 69.2028 46.2509 68.9304 46.2961L69.0942 47.2826ZM78.3243 44.8652C78.0508 44.9032 77.8599 45.1558 77.898 45.4293C77.936 45.7028 78.1886 45.8937 78.4621 45.8556L78.3243 44.8652ZM87.894 44.6604C88.1683 44.6289 88.3652 44.381 88.3338 44.1067C88.3023 43.8323 88.0544 43.6354 87.7801 43.6669L87.894 44.6604ZM97.2384 42.6915C96.9634 42.7168 96.761 42.9601 96.7863 43.2351C96.8115 43.5101 97.0549 43.7126 97.3299 43.6873L97.2384 42.6915ZM106.809 42.9209C107.084 42.9016 107.292 42.6626 107.272 42.3872C107.253 42.1117 107.014 41.904 106.739 41.9233L106.809 42.9209ZM116.228 41.3589C115.952 41.3725 115.739 41.607 115.753 41.8828C115.766 42.1586 116.001 42.3713 116.277 42.3577L116.228 41.3589ZM125.772 41.9909C126.048 41.9831 126.265 41.753 126.257 41.4769C126.25 41.2009 126.02 40.9835 125.743 40.9913L125.772 41.9909ZM135.26 40.8196C134.984 40.8217 134.762 41.0473 134.764 41.3234C134.766 41.5996 134.992 41.8217 135.268 41.8195L135.26 40.8196ZM144.761 41.8433C145.037 41.8469 145.263 41.6259 145.267 41.3498C145.27 41.0737 145.049 40.8469 144.773 40.8434L144.761 41.8433ZM154.292 41.0644C154.016 41.0551 153.784 41.2713 153.775 41.5473C153.766 41.8233 153.982 42.0546 154.258 42.0639L154.292 41.0644ZM163.748 42.4841C164.023 42.4992 164.259 42.288 164.274 42.0123C164.29 41.7365 164.078 41.5007 163.803 41.4856L163.748 42.4841ZM173.297 42.1106C173.021 42.0895 172.781 42.2955 172.76 42.5709C172.739 42.8462 172.945 43.0866 173.22 43.1077L173.297 42.1106ZM182.708 43.8552C182.984 43.8722 183.221 43.6626 183.238 43.387C183.255 43.1114 183.045 42.8741 182.77 42.8571L182.708 43.8552ZM192.2 43.1627C191.923 43.1624 191.699 43.3861 191.699 43.6623C191.699 43.9384 191.923 44.1624 192.199 44.1627L192.2 43.1627ZM201.68 43.8213C201.955 43.8003 202.161 43.5601 202.141 43.2848C202.12 43.0094 201.879 42.8032 201.604 42.8241L201.68 43.8213ZM210.926 41.6682C210.654 41.7164 210.473 41.9759 210.521 42.2478C210.569 42.5197 210.829 42.7011 211.101 42.6529L210.926 41.6682ZM220.335 40.4091C220.598 40.3254 220.743 40.0442 220.66 39.7811C220.576 39.5179 220.295 39.3724 220.032 39.4561L220.335 40.4091ZM228.664 35.8746C228.42 36.0041 228.327 36.3068 228.457 36.5507C228.586 36.7946 228.889 36.8874 229.133 36.7579L228.664 35.8746ZM237.005 31.3372C237.211 31.1534 237.229 30.8373 237.045 30.6313C236.862 30.4252 236.545 30.4072 236.339 30.591L237.005 31.3372ZM242.302 23.4929C242.158 23.7286 242.233 24.0363 242.468 24.1803C242.704 24.3243 243.012 24.2499 243.156 24.0143L242.302 23.4929ZM246.818 15.1766C246.883 14.9082 246.719 14.6379 246.45 14.5727C246.182 14.5075 245.911 14.6723 245.846 14.9406L246.818 15.1766ZM246.659 5.70393C246.676 5.97954 246.913 6.1891 247.189 6.17198C247.464 6.15486 247.674 5.91756 247.657 5.64195L246.659 5.70393ZM4.99993 86C4.99994 85.2181 4.89293 84.4129 4.82764 83.6085C4.7609 82.7862 4.729 81.8975 4.85998 80.8474L3.86767 80.7237C3.72504 81.8672 3.7612 82.8305 3.83092 83.6894C3.90209 84.5662 3.99994 85.2714 3.99993 86H4.99993ZM8.88334 71.534C9.71506 70.2566 10.7094 68.8529 11.8967 67.3042L11.1031 66.6958C9.90251 68.2618 8.89296 69.6865 8.04532 70.9883L8.88334 71.534ZM11.8967 67.3042C12.6833 66.2783 13.7966 65.2308 15.2291 64.1739L14.6354 63.3692C13.1529 64.463 11.9633 65.5738 11.1031 66.6958L11.8967 67.3042ZM23.4056 59.5702C25.999 58.3928 28.9459 57.2346 32.2156 56.1089L31.8901 55.1634C28.5965 56.2973 25.6195 57.4668 22.9922 58.6596L23.4056 59.5702ZM41.2612 53.3093C44.159 52.4998 47.2279 51.7163 50.4536 50.9645L50.2266 49.9906C46.988 50.7454 43.905 51.5325 40.9922 52.3461L41.2612 53.3093ZM59.7396 48.9752C62.7545 48.3823 65.8758 47.8169 69.0942 47.2826L68.9304 46.2961C65.7026 46.832 62.5717 47.3991 59.5467 47.994L59.7396 48.9752ZM78.4621 45.8556C81.5357 45.4279 84.682 45.0286 87.894 44.6604L87.7801 43.6669C84.5602 44.036 81.406 44.4363 78.3243 44.8652L78.4621 45.8556ZM97.3299 43.6873C100.44 43.4018 103.601 43.1455 106.809 42.9209L106.739 41.9233C103.524 42.1485 100.355 42.4053 97.2384 42.6915L97.3299 43.6873ZM116.277 42.3577C119.406 42.2044 122.573 42.0814 125.772 41.9909L125.743 40.9913C122.538 41.082 119.364 41.2052 116.228 41.3589L116.277 42.3577ZM135.268 41.8195C138.408 41.7951 141.574 41.8025 144.761 41.8433L144.773 40.8434C141.58 40.8025 138.407 40.7951 135.26 40.8196L135.268 41.8195ZM154.258 42.0639C157.406 42.1699 160.571 42.3094 163.748 42.4841L163.803 41.4856C160.618 41.3105 157.447 41.1707 154.292 41.0644L154.258 42.0639ZM173.22 43.1077C174.797 43.2289 176.376 43.3589 177.956 43.4981L178.044 42.5019C176.46 42.3624 174.877 42.2321 173.297 42.1106L173.22 43.1077ZM177.956 43.4981C179.575 43.6406 181.159 43.7594 182.708 43.8552L182.77 42.8571C181.23 42.7618 179.654 42.6437 178.044 42.5019L177.956 43.4981ZM192.199 44.1627C195.544 44.1654 198.701 44.0478 201.68 43.8213L201.604 42.8241C198.653 43.0486 195.521 43.1654 192.2 43.1627L192.199 44.1627ZM211.101 42.6529C214.454 42.0587 217.525 41.3026 220.335 40.4091L220.032 39.4561C217.268 40.3352 214.239 41.0811 210.926 41.6682L211.101 42.6529ZM229.133 36.7579C232.191 35.1349 234.798 33.3066 237.005 31.3372L236.339 30.591C234.195 32.5042 231.655 34.2873 228.664 35.8746L229.133 36.7579ZM243.156 24.0143C244.922 21.1238 246.101 18.1281 246.818 15.1766L245.846 14.9406C245.153 17.7979 244.011 20.6964 242.302 23.4929L243.156 24.0143ZM247.657 5.64195C247.553 3.96433 247.32 2.3683 246.988 0.890481L246.012 1.10952C246.332 2.53528 246.558 4.07879 246.659 5.70393L247.657 5.64195Z" fill="white"/>
</svg>
