<svg width="265" height="42" viewBox="0 0 265 42" fill="none" xmlns="http://www.w3.org/2000/svg">
<path d="M1.5 34C1.5 34.2761 1.27614 34.5 1 34.5C0.723858 34.5 0.5 34.2761 0.5 34H1.5ZM61.6501 1.17736L61.6752 0.677994L61.6501 1.17736ZM213 9.5L213.084 9.00716L213 9.5ZM262.468 41.6756C262.371 41.9341 262.083 42.0651 261.824 41.9682L257.611 40.3881C257.352 40.2911 257.221 40.0029 257.318 39.7444C257.415 39.4858 257.704 39.3548 257.962 39.4518L261.707 40.8563L263.112 37.111C263.209 36.8524 263.497 36.7214 263.756 36.8184C264.014 36.9153 264.145 37.2035 264.048 37.4621L262.468 41.6756ZM1.08048 29.1495C1.14258 28.8804 1.41105 28.7127 1.68012 28.7748C1.94919 28.8369 2.11696 29.1053 2.05485 29.3744L1.08048 29.1495ZM5.76544 20.7899C5.61502 21.0215 5.30536 21.0873 5.07377 20.9369C4.84219 20.7865 4.77639 20.4768 4.9268 20.2452L5.76544 20.7899ZM11.3427 12.9972C11.5527 12.8178 11.8683 12.8427 12.0476 13.0527C12.227 13.2626 12.2021 13.5783 11.9922 13.7576L11.3427 12.9972ZM19.8422 8.53659C19.5969 8.66331 19.2953 8.56714 19.1685 8.32179C19.0418 8.07644 19.138 7.77482 19.3833 7.6481L19.8422 8.53659ZM28.3305 4.02697C28.5943 3.94523 28.8744 4.0928 28.9561 4.35657C29.0378 4.62034 28.8903 4.90042 28.6265 4.98216L28.3305 4.02697ZM37.8739 2.81031C37.6016 2.85621 37.3436 2.67267 37.2977 2.40037C37.2518 2.12807 37.4354 1.87012 37.7077 1.82422L37.8739 2.81031ZM47.2463 0.73555C47.5218 0.717724 47.7597 0.926666 47.7775 1.20223C47.7953 1.4778 47.5864 1.71564 47.3108 1.73346L47.2463 0.73555ZM56.8519 1.51695C56.5757 1.5125 56.3555 1.28507 56.36 1.00896C56.3644 0.732857 56.5919 0.512634 56.868 0.517082L56.8519 1.51695ZM66.4033 0.91214C66.6791 0.925606 66.8917 1.16011 66.8783 1.43593C66.8648 1.71174 66.6303 1.92442 66.3545 1.91095L66.4033 0.91214ZM75.8209 2.36126C75.5451 2.34846 75.3318 2.11446 75.3446 1.83862C75.3574 1.56277 75.5914 1.34954 75.8673 1.36234L75.8209 2.36126ZM85.3357 1.79259C85.6116 1.80488 85.8253 2.03848 85.813 2.31435C85.8007 2.59022 85.5671 2.80389 85.2912 2.7916L85.3357 1.79259ZM94.7597 3.20657C94.4838 3.19465 94.2698 2.96135 94.2817 2.68546C94.2936 2.40958 94.5269 2.19558 94.8028 2.2075L94.7597 3.20657ZM104.272 2.61169C104.548 2.62335 104.762 2.85646 104.751 3.13236C104.739 3.40825 104.506 3.62246 104.23 3.6108L104.272 2.61169ZM113.695 4.00832C113.419 3.99678 113.205 3.76377 113.216 3.48787C113.228 3.21197 113.461 2.99766 113.737 3.00919L113.695 4.00832ZM123.211 3.40495C123.487 3.41649 123.701 3.64951 123.69 3.92541C123.678 4.20131 123.445 4.41562 123.169 4.40408L123.211 3.40495ZM132.639 4.80215C132.363 4.79047 132.149 4.55734 132.16 4.28145C132.172 4.00555 132.405 3.79137 132.681 3.80305L132.639 4.80215ZM142.143 4.20854C142.419 4.22053 142.633 4.4539 142.621 4.72978C142.609 5.00566 142.376 5.21959 142.1 5.2076L142.143 4.20854ZM151.57 5.62737C151.294 5.61486 151.08 5.3811 151.093 5.10524C151.105 4.82938 151.339 4.61589 151.615 4.62839L151.57 5.62737ZM161.089 5.0702C161.365 5.08348 161.577 5.31784 161.564 5.59366C161.551 5.86948 161.316 6.08232 161.041 6.06904L161.089 5.0702ZM170.506 6.54301C170.23 6.52859 170.018 6.29335 170.033 6.01758C170.047 5.74182 170.283 5.52995 170.558 5.54437L170.506 6.54301ZM180.022 6.06642C180.297 6.08254 180.508 6.31908 180.492 6.59475C180.476 6.87043 180.239 7.08083 179.963 7.06471L180.022 6.06642ZM189.406 7.659C189.13 7.64021 188.922 7.40165 188.941 7.12614C188.96 6.85064 189.198 6.64253 189.474 6.66131L189.406 7.659ZM198.95 7.37952C199.225 7.40296 199.429 7.64501 199.406 7.92015C199.382 8.1953 199.14 8.39935 198.865 8.37592L198.95 7.37952ZM208.261 9.32483C207.987 9.29111 207.792 9.0416 207.826 8.76752C207.86 8.49345 208.109 8.2986 208.383 8.33231L208.261 9.32483ZM217.936 10.2768C218.198 10.3652 218.338 10.649 218.25 10.9106C218.161 11.1722 217.877 11.3126 217.616 11.2242L217.936 10.2768ZM226.603 15.1458C226.358 15.019 226.262 14.7174 226.389 14.4721C226.516 14.2267 226.817 14.1306 227.063 14.2574L226.603 15.1458ZM235.678 19.2011C235.912 19.3475 235.983 19.6561 235.836 19.8901C235.69 20.1242 235.381 20.1953 235.147 20.0488L235.678 19.2011ZM243.34 25.5399C243.116 25.3795 243.064 25.0672 243.224 24.8425C243.384 24.6178 243.697 24.5657 243.921 24.7261L243.34 25.5399ZM251.821 30.7257C252.035 30.8995 252.068 31.2144 251.895 31.429C251.721 31.6435 251.406 31.6766 251.191 31.5027L251.821 30.7257ZM258.547 38.026C258.353 37.8299 258.354 37.5133 258.55 37.3189C258.746 37.1244 259.063 37.1257 259.257 37.3218L258.547 38.026ZM0.5 34C0.5 32.5231 0.679978 30.8845 1.08048 29.1495L2.05485 29.3744C1.67039 31.04 1.5 32.6031 1.5 34H0.5ZM4.9268 20.2452C6.53553 17.7683 8.64267 15.3033 11.3427 12.9972L11.9922 13.7576C9.36496 16.0014 7.32161 18.3939 5.76544 20.7899L4.9268 20.2452ZM19.3833 7.6481C22.0239 6.28426 24.9954 5.06044 28.3305 4.02697L28.6265 4.98216C25.3443 5.99924 22.4276 7.20126 19.8422 8.53659L19.3833 7.6481ZM37.7077 1.82422C40.6664 1.32554 43.8414 0.955769 47.2463 0.73555L47.3108 1.73346C43.9379 1.95162 40.7969 2.31765 37.8739 2.81031L37.7077 1.82422ZM56.868 0.517082C58.4297 0.54224 60.0318 0.595409 61.6752 0.677994L61.625 1.67673C59.9927 1.5947 58.4019 1.54192 56.8519 1.51695L56.868 0.517082ZM61.6752 0.677994C63.2452 0.756889 64.8215 0.834919 66.4033 0.91214L66.3545 1.91095C64.7723 1.83371 63.1955 1.75565 61.625 1.67673L61.6752 0.677994ZM75.8673 1.36234C79.0132 1.50836 82.1719 1.65164 85.3357 1.79259L85.2912 2.7916C82.1269 2.65063 78.9675 2.50731 75.8209 2.36126L75.8673 1.36234ZM94.8028 2.2075C97.9646 2.34402 101.124 2.47861 104.272 2.61169L104.23 3.6108C101.081 3.47771 97.9218 3.34311 94.7597 3.20657L94.8028 2.2075ZM113.737 3.00919C116.917 3.14212 120.078 3.27392 123.211 3.40495L123.169 4.40408C120.036 4.27303 116.875 4.14127 113.695 4.00832L113.737 3.00919ZM132.681 3.80305C135.877 3.93839 139.034 4.07339 142.143 4.20854L142.1 5.2076C138.991 5.07246 135.834 4.93748 132.639 4.80215L132.681 3.80305ZM151.615 4.62839C154.843 4.77471 158.005 4.92178 161.089 5.0702L161.041 6.06904C157.958 5.92068 154.797 5.77365 151.57 5.62737L151.615 4.62839ZM170.558 5.54437C173.833 5.71558 176.993 5.88931 180.022 6.06642L179.963 7.06471C176.937 6.88775 173.779 6.71413 170.506 6.54301L170.558 5.54437ZM189.474 6.66131C192.877 6.89336 196.047 7.13221 198.95 7.37952L198.865 8.37592C195.969 8.12918 192.805 7.89076 189.406 7.659L189.474 6.66131ZM208.383 8.33231C210.151 8.54975 211.724 8.77436 213.084 9.00716L212.916 9.99284C211.575 9.76341 210.018 9.54098 208.261 9.32483L208.383 8.33231ZM213.084 9.00716C214.606 9.26758 216.234 9.70166 217.936 10.2768L217.616 11.2242C215.951 10.6614 214.374 10.2425 212.916 9.99284L213.084 9.00716ZM227.063 14.2574C229.904 15.7259 232.812 17.4076 235.678 19.2011L235.147 20.0488C232.3 18.2671 229.417 16.5995 226.603 15.1458L227.063 14.2574ZM243.921 24.7261C246.755 26.7493 249.43 28.7885 251.821 30.7257L251.191 31.5027C248.816 29.5787 246.158 27.5517 243.34 25.5399L243.921 24.7261ZM259.257 37.3218C260.868 38.9462 262.018 40.3305 262.455 41.2931L261.545 41.7069C261.191 40.9275 260.166 39.6576 258.547 38.026L259.257 37.3218Z" fill="white"/>
</svg>
