<svg width="222" height="231" viewBox="0 0 222 231" fill="none" xmlns="http://www.w3.org/2000/svg">
<path d="M1.03199 1.001C0.756409 0.983332 0.518689 1.19241 0.501024 1.46799C0.483359 1.74356 0.692438 1.98128 0.968014 1.99895L1.03199 1.001ZM73.5 20L73.2043 20.4032L73.5 20ZM197.5 107L197.172 107.377L197.5 107ZM213.5 177L213.965 177.184L213.5 177ZM153.146 230.854C153.342 231.049 153.658 231.049 153.854 230.854L157.036 227.672C157.231 227.476 157.231 227.16 157.036 226.964C156.84 226.769 156.524 226.769 156.328 226.964L153.5 229.793L150.672 226.964C150.476 226.769 150.16 226.769 149.964 226.964C149.769 227.16 149.769 227.476 149.964 227.672L153.146 230.854ZM5.78083 2.07668C6.05695 2.07288 6.2777 1.84596 6.2739 1.56984C6.27009 1.29373 6.04317 1.07297 5.76706 1.07678L5.78083 2.07668ZM15.3472 0.897423C15.071 0.898653 14.8482 1.12351 14.8494 1.39964C14.8506 1.67578 15.0755 1.89864 15.3516 1.89741L15.3472 0.897423ZM24.8743 2.19183C25.1497 2.21179 25.3891 2.0047 25.4091 1.72928C25.4291 1.45386 25.222 1.21441 24.9465 1.19445L24.8743 2.19183ZM34.4943 2.36159C34.2223 2.31395 33.9631 2.49584 33.9155 2.76784C33.8679 3.03985 34.0498 3.29896 34.3218 3.3466L34.4943 2.36159ZM43.5829 5.49443C43.848 5.57154 44.1255 5.4191 44.2026 5.15394C44.2797 4.88878 44.1273 4.61132 43.8621 4.53421L43.5829 5.49443ZM52.9425 7.72583C52.6873 7.62023 52.3949 7.74148 52.2893 7.99664C52.1837 8.2518 52.3049 8.54424 52.5601 8.64983L52.9425 7.72583ZM61.151 12.7434C61.3939 12.8747 61.6973 12.7842 61.8287 12.5413C61.96 12.2984 61.8695 11.995 61.6266 11.8637L61.151 12.7434ZM69.8493 16.8306C69.6198 16.6771 69.3092 16.7387 69.1557 16.9683C69.0022 17.1978 69.0638 17.5083 69.2933 17.6618L69.8493 16.8306ZM77.3193 23.1769C77.5541 23.3221 77.8623 23.2495 78.0075 23.0147C78.1528 22.7799 78.0802 22.4717 77.8454 22.3264L77.3193 23.1769ZM86.4948 26.8383C86.2417 26.7277 85.9469 26.8432 85.8364 27.0963C85.7259 27.3493 85.8414 27.6441 86.0944 27.7546L86.4948 26.8383ZM95.3714 31.1742C95.6352 31.2559 95.9152 31.1082 95.9968 30.8444C96.0785 30.5806 95.9308 30.3006 95.667 30.2189L95.3714 31.1742ZM105.137 32.7294C104.868 32.6679 104.6 32.8364 104.538 33.1056C104.477 33.3749 104.645 33.6429 104.915 33.7043L105.137 32.7294ZM114.571 35.682C114.842 35.7331 115.104 35.5545 115.155 35.2832C115.206 35.0118 115.027 34.7504 114.756 34.6993L114.571 35.682ZM124.43 36.4956C124.159 36.4439 123.897 36.6219 123.845 36.8932C123.794 37.1645 123.972 37.4263 124.243 37.4779L124.43 36.4956ZM133.84 39.5118C134.109 39.577 134.379 39.4124 134.444 39.1441C134.51 38.8757 134.345 38.6053 134.077 38.5401L133.84 39.5118ZM143.553 41.3602C143.294 41.2649 143.007 41.3978 142.911 41.657C142.816 41.9162 142.949 42.2035 143.208 42.2988L143.553 41.3602ZM151.994 46.4647C152.23 46.6086 152.538 46.5341 152.681 46.2984C152.825 46.0627 152.751 45.755 152.515 45.6112L151.994 46.4647ZM160.253 51.844C160.064 51.6429 159.747 51.6332 159.546 51.8225C159.345 52.0117 159.335 52.3282 159.525 52.5293L160.253 51.844ZM165.486 60.6182C165.633 60.8521 165.942 60.9226 166.176 60.7758C166.41 60.629 166.48 60.3203 166.333 60.0865L165.486 60.6182ZM171.153 69.4765C171.055 69.2185 170.766 69.089 170.508 69.1873C170.25 69.2856 170.12 69.5745 170.219 69.8326L171.153 69.4765ZM173.177 79.8282C173.268 80.089 173.553 80.2267 173.813 80.1359C174.074 80.0451 174.212 79.7601 174.121 79.4993L173.177 79.8282ZM179.261 88.337C179.088 88.121 178.774 88.0853 178.558 88.2573C178.342 88.4294 178.306 88.7439 178.478 88.9599L179.261 88.337ZM185.578 96.7161C185.774 96.9105 186.09 96.909 186.285 96.7128C186.479 96.5166 186.478 96.2 186.281 96.0057L185.578 96.7161ZM193.89 103.141C193.684 102.957 193.368 102.974 193.184 103.179C192.999 103.385 193.016 103.701 193.222 103.885L193.89 103.141ZM200.844 110.7C201.045 110.889 201.361 110.879 201.551 110.678C201.74 110.477 201.73 110.161 201.529 109.971L200.844 110.7ZM208.456 117.12C208.274 116.912 207.959 116.891 207.751 117.073C207.543 117.254 207.521 117.57 207.703 117.778L208.456 117.12ZM213.671 125.585C213.822 125.816 214.132 125.881 214.363 125.73C214.595 125.579 214.66 125.269 214.508 125.038L213.671 125.585ZM219.171 133.881C219.068 133.624 218.777 133.499 218.521 133.602C218.265 133.705 218.14 133.996 218.243 134.252L219.171 133.881ZM220.708 143.683C220.742 143.957 220.991 144.151 221.265 144.117C221.539 144.083 221.734 143.833 221.7 143.559L220.708 143.683ZM221.611 153.568C221.648 153.294 221.456 153.042 221.182 153.005C220.909 152.968 220.657 153.16 220.62 153.434L221.611 153.568ZM218.357 162.975C218.272 163.237 218.416 163.519 218.678 163.605C218.941 163.69 219.223 163.546 219.308 163.284L218.357 162.975ZM215.815 172.593C215.919 172.337 215.795 172.046 215.539 171.942C215.283 171.839 214.992 171.962 214.888 172.218L215.815 172.593ZM210.182 181.063C209.988 181.26 209.991 181.576 210.187 181.77C210.384 181.964 210.701 181.961 210.894 181.764L210.182 181.063ZM201.891 187.763C202.139 187.642 202.242 187.342 202.12 187.094C201.999 186.846 201.699 186.744 201.451 186.866L201.891 187.763ZM191.653 191.086C191.396 191.189 191.272 191.48 191.374 191.736C191.477 191.993 191.768 192.117 192.025 192.015L191.653 191.086ZM182.134 196.072C182.387 195.961 182.502 195.667 182.392 195.413C182.282 195.16 181.987 195.045 181.734 195.155L182.134 196.072ZM172.099 199.942C171.86 200.081 171.779 200.387 171.918 200.626C172.056 200.864 172.362 200.946 172.601 200.807L172.099 199.942ZM164.035 207.001C164.237 206.814 164.25 206.497 164.062 206.295C163.875 206.092 163.558 206.08 163.356 206.267L164.035 207.001ZM156.682 214.783C156.552 215.027 156.644 215.33 156.887 215.46C157.131 215.59 157.434 215.498 157.564 215.255L156.682 214.783ZM154.363 225.212C154.402 224.938 154.212 224.685 153.939 224.646C153.665 224.607 153.412 224.797 153.373 225.07L154.363 225.212ZM0.968014 1.99895C2.41168 2.09149 4.02234 2.1009 5.78083 2.07668L5.76706 1.07678C4.01678 1.10088 2.43666 1.09104 1.03199 1.001L0.968014 1.99895ZM15.3516 1.89741C18.2954 1.8843 21.4784 1.94575 24.8743 2.19183L24.9465 1.19445C21.5178 0.945989 18.308 0.884236 15.3472 0.897423L15.3516 1.89741ZM34.3218 3.3466C37.2945 3.86718 40.3861 4.56481 43.5829 5.49443L43.8621 4.53421C40.628 3.59373 37.5006 2.88806 34.4943 2.36159L34.3218 3.3466ZM52.5601 8.64983C55.3621 9.80939 58.2284 11.1634 61.151 12.7434L61.6266 11.8637C58.6735 10.2672 55.7761 8.89847 52.9425 7.72583L52.5601 8.64983ZM69.2933 17.6618C70.5881 18.5279 71.892 19.4408 73.2043 20.4032L73.7957 19.5968C72.4718 18.626 71.1562 17.7047 69.8493 16.8306L69.2933 17.6618ZM73.2043 20.4032C74.5541 21.393 75.9269 22.3155 77.3193 23.1769L77.8454 22.3264C76.4746 21.4784 75.1237 20.5706 73.7957 19.5968L73.2043 20.4032ZM86.0944 27.7546C89.1399 29.0851 92.2421 30.2057 95.3714 31.1742L95.667 30.2189C92.5674 29.2596 89.5009 28.1515 86.4948 26.8383L86.0944 27.7546ZM104.915 33.7043C108.145 34.4413 111.374 35.0802 114.571 35.682L114.756 34.6993C111.565 34.0984 108.349 33.4622 105.137 32.7294L104.915 33.7043ZM124.243 37.4779C127.526 38.1033 130.736 38.7571 133.84 39.5118L134.077 38.5401C130.948 37.7796 127.72 37.1223 124.43 36.4956L124.243 37.4779ZM143.208 42.2988C146.328 43.4455 149.271 44.8028 151.994 46.4647L152.515 45.6112C149.726 43.9086 146.721 42.5245 143.553 41.3602L143.208 42.2988ZM159.525 52.5293C160.61 53.6832 161.634 54.9325 162.592 56.2883L163.408 55.7116C162.424 54.3174 161.371 53.0319 160.253 51.844L159.525 52.5293ZM162.592 56.2883C163.69 57.8448 164.648 59.2828 165.486 60.6182L166.333 60.0865C165.484 58.7345 164.517 57.2814 163.408 55.7116L162.592 56.2883ZM170.219 69.8326C170.974 71.8153 171.437 73.5135 171.848 75.1162C172.259 76.714 172.623 78.2377 173.177 79.8282L174.121 79.4993C173.585 77.9588 173.233 76.4871 172.817 74.8675C172.402 73.2529 171.929 71.512 171.153 69.4765L170.219 69.8326ZM178.478 88.9599C180.232 91.1624 182.527 93.6945 185.578 96.7161L186.281 96.0057C183.25 93.0029 180.983 90.5003 179.261 88.337L178.478 88.9599ZM193.222 103.885C194.458 104.996 195.773 106.158 197.172 107.377L197.828 106.623C196.434 105.408 195.123 104.248 193.89 103.141L193.222 103.885ZM197.172 107.377C198.458 108.498 199.681 109.606 200.844 110.7L201.529 109.971C200.357 108.868 199.124 107.752 197.828 106.623L197.172 107.377ZM207.703 117.778C210.048 120.463 212.023 123.063 213.671 125.585L214.508 125.038C212.832 122.473 210.829 119.836 208.456 117.12L207.703 117.778ZM218.243 134.252C219.549 137.519 220.331 140.655 220.708 143.683L221.7 143.559C221.313 140.446 220.509 137.226 219.171 133.881L218.243 134.252ZM220.62 153.434C220.178 156.71 219.364 159.879 218.357 162.975L219.308 163.284C220.327 160.149 221.158 156.919 221.611 153.568L220.62 153.434ZM214.888 172.218C214.263 173.76 213.636 175.293 213.035 176.816L213.965 177.184C214.564 175.666 215.188 174.139 215.815 172.593L214.888 172.218ZM213.035 176.816C212.422 178.37 211.452 179.771 210.182 181.063L210.894 181.764C212.241 180.395 213.294 178.884 213.965 177.184L213.035 176.816ZM201.451 186.866C198.479 188.323 195.149 189.685 191.653 191.086L192.025 192.015C195.52 190.614 198.881 189.239 201.891 187.763L201.451 186.866ZM181.734 195.155C178.448 196.588 175.183 198.151 172.099 199.942L172.601 200.807C175.641 199.042 178.868 197.496 182.134 196.072L181.734 195.155ZM163.356 206.267C160.711 208.713 158.427 211.516 156.682 214.783L157.564 215.255C159.249 212.099 161.459 209.383 164.035 207.001L163.356 206.267ZM153.373 225.07C153.128 226.786 153 228.594 153 230.5H154C154 228.639 154.125 226.879 154.363 225.212L153.373 225.07Z" fill="#3F4145"/>
</svg>
