<svg width="128" height="146" viewBox="0 0 128 146" fill="none" xmlns="http://www.w3.org/2000/svg">
<path d="M42.7591 6.4988L42.5274 6.94188L42.7591 6.4988ZM90.4838 19.9503L90.8926 19.6624L90.4838 19.9503ZM114.843 43.3659L114.64 43.8227L114.843 43.3659ZM123.295 74.7528L122.824 74.5833L123.295 74.7528ZM96.9465 117.1L96.4483 117.143L96.9465 117.1ZM93.4899 145.272C93.64 145.503 93.9496 145.57 94.1814 145.419L97.9584 142.973C98.1902 142.823 98.2564 142.513 98.1062 142.282C97.9561 142.05 97.6465 141.984 97.4148 142.134L94.0574 144.308L91.883 140.951C91.7328 140.719 91.4233 140.653 91.1915 140.803C90.9597 140.953 90.8935 141.263 91.0436 141.495L93.4899 145.272ZM1.00821 1.51847C2.51793 1.49367 4.30676 1.4919 6.28798 1.52296L6.30365 0.52308C4.31277 0.491874 2.5132 0.493613 0.991787 0.518608L1.00821 1.51847ZM16.8546 1.9598C20.3384 2.19505 23.9349 2.53432 27.3698 3.00804L27.5064 2.01741C24.0433 1.5398 20.423 1.19848 16.9219 0.962072L16.8546 1.9598ZM37.6833 5.07991C39.5521 5.62539 41.1929 6.2441 42.5274 6.94188L42.9908 6.05571C41.5788 5.31744 39.8711 4.67677 37.9635 4.11997L37.6833 5.07991ZM42.5274 6.94188C43.6809 7.54497 45.0117 8.07429 46.4736 8.54773L46.7817 7.59638C45.3555 7.13448 44.0801 6.6253 42.9908 6.05571L42.5274 6.94188ZM54.6646 10.5294C57.3117 11.0292 60.1151 11.4726 62.9407 11.908L63.093 10.9196C60.2678 10.4843 57.4791 10.0432 54.8502 9.54679L54.6646 10.5294ZM71.2035 13.213C74.0878 13.7032 76.8568 14.2368 79.3678 14.8698L79.6122 13.9001C77.0646 13.2579 74.2665 12.7192 71.371 12.2271L71.2035 13.213ZM87.0748 17.6954C88.3948 18.4499 89.4086 19.292 90.075 20.2382L90.8926 19.6624C90.1146 18.5579 88.9699 17.6268 87.571 16.8272L87.0748 17.6954ZM90.075 20.2382C90.8974 21.4058 91.7005 22.5823 92.5133 23.7646L93.3373 23.1981C92.5271 22.0196 91.7192 20.836 90.8926 19.6624L90.075 20.2382ZM97.607 30.7234C99.3608 32.8789 101.313 34.9772 103.626 36.9541L104.276 36.194C102.018 34.2643 100.107 32.2119 98.3827 30.0923L97.607 30.7234ZM110.756 41.889C111.97 42.5628 113.261 43.2085 114.64 43.8227L115.047 42.9092C113.694 42.3067 112.429 41.6739 111.241 41.0147L110.756 41.889ZM114.64 43.8227C116.173 44.5056 117.544 45.2057 118.759 45.936L119.274 45.0788C118.017 44.3234 116.609 43.605 115.047 42.9092L114.64 43.8227ZM125.129 52.2468C126.348 54.6735 126.74 57.5463 126.361 61.1213L127.355 61.2269C127.748 57.5242 127.352 54.4449 126.023 51.798L125.129 52.2468ZM124.32 70.1574C123.883 71.5563 123.384 73.0296 122.824 74.5833L123.765 74.9223C124.329 73.3575 124.833 71.8703 125.274 70.4552L124.32 70.1574ZM122.824 74.5833C122.342 75.9226 121.774 77.2006 121.138 78.4268L122.025 78.8875C122.681 77.6246 123.266 76.306 123.765 74.9223L122.824 74.5833ZM116.468 85.4234C114.677 87.6322 112.729 89.6945 110.768 91.7019L111.483 92.4007C113.45 90.3874 115.424 88.2986 117.245 86.0531L116.468 85.4234ZM104.821 97.8357C102.813 100.02 100.977 102.25 99.5352 104.638L100.391 105.155C101.784 102.849 103.569 100.674 105.557 98.5124L104.821 97.8357ZM96.5468 112.774C96.3582 114.163 96.3176 115.615 96.4483 117.143L97.4447 117.058C97.3202 115.602 97.3592 114.223 97.5377 112.908L96.5468 112.774ZM96.4483 117.143C96.675 119.793 96.7965 122.117 96.8345 124.177L97.8344 124.159C97.7958 122.074 97.673 119.727 97.4447 117.058L96.4483 117.143ZM95.3088 138.049C94.6791 140.35 93.9479 142.43 93.4206 144.895L94.3985 145.104C94.9196 142.668 95.6184 140.706 96.2733 138.313L95.3088 138.049Z" fill="#3F4145"/>
</svg>
