<svg width="178" height="211" viewBox="0 0 178 211" fill="none" xmlns="http://www.w3.org/2000/svg">
<path d="M85 36.5L84.848 36.9763L85 36.5ZM143.5 99L143.284 99.4508L143.5 99ZM177.256 207.93C177.493 207.788 177.571 207.481 177.43 207.244L175.127 203.378C174.986 203.141 174.679 203.063 174.442 203.204C174.204 203.345 174.127 203.652 174.268 203.889L176.315 207.326L172.878 209.373C172.641 209.514 172.563 209.821 172.704 210.058C172.845 210.296 173.152 210.373 173.389 210.232L177.256 207.93ZM4.66685 1.60941C4.94267 1.62264 5.177 1.40977 5.19024 1.13394C5.20347 0.858118 4.99059 0.62379 4.71477 0.610557L4.66685 1.60941ZM14.0547 1.57813C13.7822 1.53336 13.525 1.71796 13.4803 1.99045C13.4355 2.26294 13.6201 2.52013 13.8926 2.5649L14.0547 1.57813ZM22.9255 4.68087C23.1894 4.76246 23.4694 4.61474 23.551 4.35093C23.6326 4.08712 23.4848 3.80711 23.221 3.72551L22.9255 4.68087ZM31.9921 7.13032C31.7421 7.0132 31.4444 7.12097 31.3273 7.37105C31.2101 7.62112 31.3179 7.91879 31.568 8.03592L31.9921 7.13032ZM39.7458 12.4437C39.9824 12.5862 40.2896 12.51 40.4321 12.2734C40.5746 12.0369 40.4984 11.7296 40.2619 11.5871L39.7458 12.4437ZM48.1504 16.6474C47.9206 16.4942 47.6102 16.5563 47.457 16.7861C47.3038 17.0158 47.3659 17.3263 47.5957 17.4794L48.1504 16.6474ZM55.3886 22.6476C55.6204 22.7976 55.93 22.7313 56.08 22.4994C56.23 22.2676 56.1637 21.958 55.9319 21.808L55.3886 22.6476ZM63.8858 26.6679C63.6458 26.5314 63.3405 26.6153 63.2041 26.8554C63.0676 27.0954 63.1515 27.4007 63.3916 27.5372L63.8858 26.6679ZM71.7282 31.8551C71.9784 31.9718 72.2759 31.8636 72.3927 31.6134C72.5095 31.3631 72.4013 31.0656 72.151 30.9489L71.7282 31.8551ZM80.7354 34.5128C80.476 34.4179 80.1889 34.5513 80.0941 34.8106C79.9992 35.07 80.1326 35.3571 80.3919 35.4519L80.7354 34.5128ZM89.1104 38.4451C89.3692 38.5415 89.6571 38.41 89.7536 38.1512C89.8501 37.8925 89.7185 37.6045 89.4597 37.5081L89.1104 38.4451ZM97.8032 41.2714C97.5615 41.1377 97.2573 41.2252 97.1236 41.4668C96.9899 41.7084 97.0773 42.0127 97.319 42.1464L97.8032 41.2714ZM104.485 47.3631C104.681 47.5576 104.998 47.5562 105.192 47.3602C105.387 47.1641 105.385 46.8475 105.189 46.6531L104.485 47.3631ZM110.323 54.2547C110.216 54.0004 109.922 53.8815 109.668 53.9891C109.414 54.0967 109.295 54.3901 109.402 54.6444L110.323 54.2547ZM111.866 63.2399C111.924 63.5098 112.19 63.681 112.46 63.6224C112.73 63.5637 112.901 63.2975 112.843 63.0276L111.866 63.2399ZM115.079 71.7313C114.989 71.4701 114.705 71.3309 114.444 71.4205C114.182 71.51 114.043 71.7943 114.133 72.0556L115.079 71.7313ZM118.175 80.2566C118.329 80.4856 118.64 80.5463 118.869 80.3921C119.098 80.2379 119.159 79.9272 119.004 79.6981L118.175 80.2566ZM124.845 86.421C124.642 86.2337 124.326 86.2462 124.139 86.4491C123.951 86.6519 123.964 86.9683 124.167 87.1556L124.845 86.421ZM131.374 92.7679C131.603 92.9213 131.914 92.8594 132.067 92.6298C132.221 92.4002 132.159 92.0897 131.929 91.9363L131.374 92.7679ZM139.67 96.5129C139.425 96.3839 139.123 96.4773 138.994 96.7214C138.865 96.9656 138.958 97.2681 139.202 97.3971L139.67 96.5129ZM147.556 102.014C147.778 102.178 148.091 102.131 148.255 101.909C148.419 101.687 148.372 101.374 148.15 101.21L147.556 102.014ZM155.049 108.789C154.904 108.553 154.596 108.48 154.361 108.625C154.126 108.77 154.053 109.078 154.198 109.313L155.049 108.789ZM158.12 118.48C158.196 118.745 158.473 118.899 158.738 118.823C159.004 118.747 159.157 118.47 159.081 118.205L158.12 118.48ZM161.014 128.211C160.981 127.937 160.733 127.741 160.459 127.774C160.184 127.806 159.988 128.055 160.021 128.329L161.014 128.211ZM160.707 138.4C160.714 138.676 160.944 138.893 161.22 138.886C161.496 138.878 161.714 138.649 161.706 138.372L160.707 138.4ZM161.718 148.53C161.723 148.253 161.503 148.025 161.227 148.02C160.951 148.015 160.723 148.235 160.718 148.511L161.718 148.53ZM160.436 158.638C160.427 158.914 160.644 159.145 160.92 159.154C161.196 159.162 161.427 158.946 161.435 158.67L160.436 158.638ZM161.186 168.792C161.19 168.516 160.968 168.289 160.692 168.286C160.416 168.283 160.19 168.504 160.186 168.78L161.186 168.792ZM160.347 178.946C160.361 179.222 160.596 179.434 160.872 179.42C161.148 179.405 161.36 179.17 161.345 178.894L160.347 178.946ZM162.491 188.876C162.438 188.605 162.175 188.429 161.904 188.483C161.633 188.536 161.457 188.799 161.51 189.07L162.491 188.876ZM164.848 198.756C164.983 198.997 165.287 199.083 165.529 198.948C165.77 198.814 165.856 198.509 165.721 198.268L164.848 198.756ZM172.514 205.215C172.272 205.081 171.968 205.168 171.834 205.409C171.7 205.651 171.786 205.955 172.028 206.089L172.514 205.215ZM0 1.5C1.608 1.5 3.16225 1.53722 4.66685 1.60941L4.71477 0.610557C3.19367 0.53758 1.62344 0.5 0 0.5V1.5ZM13.8926 2.5649C17.1309 3.09691 20.1211 3.8135 22.9255 4.68087L23.221 3.72551C20.3729 2.84463 17.3381 2.11755 14.0547 1.57813L13.8926 2.5649ZM31.568 8.03592C34.4144 9.36905 37.1086 10.8548 39.7458 12.4437L40.2619 11.5871C37.6029 9.98512 34.8775 8.4817 31.9921 7.13032L31.568 8.03592ZM47.5957 17.4794C50.1283 19.1677 52.701 20.9084 55.3886 22.6476L55.9319 21.808C53.2519 20.0738 50.6904 18.3405 48.1504 16.6474L47.5957 17.4794ZM63.3916 27.5372C65.9996 29.0201 68.7596 30.4699 71.7282 31.8551L72.151 30.9489C69.2097 29.5764 66.4737 28.1393 63.8858 26.6679L63.3916 27.5372ZM80.3919 35.4519C81.8294 35.9776 83.3133 36.4865 84.848 36.9763L85.152 36.0237C83.6306 35.5381 82.1598 35.0337 80.7354 34.5128L80.3919 35.4519ZM84.848 36.9763C86.358 37.4582 87.7767 37.9479 89.1104 38.4451L89.4597 37.5081C88.11 37.0049 86.676 36.5101 85.152 36.0237L84.848 36.9763ZM97.319 42.1464C100.347 43.8221 102.671 45.564 104.485 47.3631L105.189 46.6531C103.3 44.7794 100.899 42.9845 97.8032 41.2714L97.319 42.1464ZM109.402 54.6444C110.56 57.3802 111.213 60.2376 111.866 63.2399L112.843 63.0276C112.192 60.0307 111.522 57.0875 110.323 54.2547L109.402 54.6444ZM114.133 72.0556C115.049 74.7297 116.298 77.4683 118.175 80.2566L119.004 79.6981C117.184 76.9941 115.972 74.3371 115.079 71.7313L114.133 72.0556ZM124.167 87.1556C126.178 89.0135 128.554 90.885 131.374 92.7679L131.929 91.9363C129.148 90.0792 126.814 88.2397 124.845 86.421L124.167 87.1556ZM139.202 97.3971C140.496 98.0803 141.855 98.7649 143.284 99.4508L143.716 98.5492C142.299 97.8687 140.951 97.1899 139.67 96.5129L139.202 97.3971ZM143.284 99.4508C144.841 100.198 146.261 101.056 147.556 102.014L148.15 101.21C146.803 100.214 145.329 99.3233 143.716 98.5492L143.284 99.4508ZM154.198 109.313C155.887 112.053 157.163 115.136 158.12 118.48L159.081 118.205C158.105 114.792 156.795 111.622 155.049 108.789L154.198 109.313ZM160.021 128.329C160.405 131.572 160.612 134.947 160.707 138.4L161.706 138.372C161.612 134.899 161.402 131.492 161.014 128.211L160.021 128.329ZM160.718 148.511C160.654 151.885 160.542 155.275 160.436 158.638L161.435 158.67C161.542 155.309 161.654 151.911 161.718 148.53L160.718 148.511ZM160.186 168.78C160.146 172.28 160.176 175.69 160.347 178.946L161.345 178.894C161.176 175.666 161.146 172.279 161.186 168.792L160.186 168.78ZM161.51 189.07C162.223 192.682 163.286 195.956 164.848 198.756L165.721 198.268C164.225 195.587 163.191 192.42 162.491 188.876L161.51 189.07ZM172.028 206.089C173.474 206.894 175.085 207.53 176.877 207.985L177.123 207.015C175.409 206.581 173.879 205.975 172.514 205.215L172.028 206.089Z" fill="white"/>
</svg>
