<svg width="148" height="130" viewBox="0 0 148 130" fill="none" xmlns="http://www.w3.org/2000/svg">
<path d="M1 0.502686C0.723858 0.502686 0.5 0.726543 0.5 1.00269C0.5 1.27883 0.723858 1.50269 1 1.50269V0.502686ZM43 53.0027L42.9703 52.5036L43 53.0027ZM83.5 114L83.576 113.506L83.5 114ZM147.354 125.854C147.549 125.658 147.549 125.342 147.354 125.146L144.172 121.964C143.976 121.769 143.66 121.769 143.464 121.964C143.269 122.16 143.269 122.476 143.464 122.672L146.293 125.5L143.464 128.328C143.269 128.524 143.269 128.84 143.464 129.036C143.66 129.231 143.976 129.231 144.172 129.036L147.354 125.854ZM5.58281 1.95622C5.85278 2.01431 6.11872 1.84255 6.17681 1.57259C6.2349 1.30262 6.06314 1.03668 5.79318 0.978593L5.58281 1.95622ZM14.0876 5.66268C13.902 5.45821 13.5857 5.44291 13.3813 5.62851C13.1768 5.81411 13.1615 6.13032 13.3471 6.33479L14.0876 5.66268ZM17.7056 14.3401C17.7934 14.6019 18.0768 14.7429 18.3386 14.6551C18.6004 14.5673 18.7415 14.2839 18.6537 14.0221L17.7056 14.3401ZM20.8988 23.2096C20.8476 22.9383 20.5861 22.7598 20.3147 22.811C20.0434 22.8622 19.8649 23.1237 19.9161 23.3951L20.8988 23.2096ZM21.6188 32.6391C21.6736 32.9098 21.9375 33.0847 22.2081 33.0299C22.4788 32.9751 22.6537 32.7112 22.5989 32.4406L21.6188 32.6391ZM25.0804 41.3968C24.9788 41.14 24.6883 41.0142 24.4315 41.1158C24.1747 41.2174 24.049 41.508 24.1506 41.7647L25.0804 41.3968ZM29.438 49.6998C29.6472 49.8801 29.9629 49.8566 30.1431 49.6474C30.3234 49.4382 30.3 49.1225 30.0908 48.9422L29.438 49.6998ZM38.34 52.3891C38.0659 52.3556 37.8166 52.5506 37.7831 52.8247C37.7496 53.0988 37.9446 53.3482 38.2187 53.3817L38.34 52.3891ZM48.1688 53.5267C48.4441 53.548 48.6846 53.3421 48.7059 53.0668C48.7271 52.7914 48.5212 52.551 48.2459 52.5297L48.1688 53.5267ZM58.2872 55.404C58.0476 55.2665 57.7421 55.3493 57.6046 55.5888C57.4672 55.8283 57.5499 56.1339 57.7895 56.2713L58.2872 55.404ZM64.7445 63.394C64.8823 63.6333 65.188 63.7155 65.4273 63.5777C65.6666 63.4399 65.7489 63.1342 65.611 62.8949L64.7445 63.394ZM69.2609 72.6861C69.1978 72.4172 68.9287 72.2505 68.6599 72.3136C68.3911 72.3767 68.2243 72.6457 68.2874 72.9146L69.2609 72.6861ZM69.9584 83.0553C69.9909 83.3295 70.2395 83.5255 70.5137 83.493C70.7879 83.4606 70.9839 83.212 70.9515 82.9377L69.9584 83.0553ZM72.0815 93.2205C72.0484 92.9463 71.7994 92.7509 71.5252 92.7839C71.2511 92.8169 71.0556 93.066 71.0887 93.3401L72.0815 93.2205ZM72.9722 103.585C73.0496 103.85 73.3272 104.002 73.5923 103.924C73.8574 103.847 74.0095 103.569 73.9321 103.304L72.9722 103.585ZM79.0289 111.696C78.8056 111.533 78.4929 111.583 78.3305 111.806C78.1681 112.03 78.2176 112.342 78.4409 112.505L79.0289 111.696ZM88.7283 115.354C89.0005 115.4 89.2587 115.217 89.3049 114.945C89.3512 114.673 89.1679 114.414 88.8957 114.368L88.7283 115.354ZM99.4963 116.303C99.2252 116.251 98.9629 116.428 98.9104 116.699C98.8579 116.97 99.0352 117.233 99.3063 117.285L99.4963 116.303ZM109.849 119.407C110.12 119.463 110.384 119.29 110.44 119.019C110.496 118.749 110.323 118.484 110.052 118.428L109.849 119.407ZM120.591 120.64C120.321 120.583 120.056 120.756 119.999 121.027C119.942 121.297 120.115 121.562 120.386 121.619L120.591 120.64ZM130.932 123.778C131.204 123.831 131.466 123.654 131.519 123.383C131.572 123.112 131.395 122.849 131.124 122.796L130.932 123.778ZM141.712 124.591C141.438 124.556 141.188 124.749 141.153 125.023C141.118 125.297 141.311 125.548 141.585 125.583L141.712 124.591ZM1 1.50269C2.68816 1.50269 4.2092 1.66064 5.58281 1.95622L5.79318 0.978593C4.34264 0.666465 2.75042 0.502686 1 0.502686V1.50269ZM13.3471 6.33479C15.2918 8.4772 16.6603 11.2237 17.7056 14.3401L18.6537 14.0221C17.5838 10.8325 16.159 7.94473 14.0876 5.66268L13.3471 6.33479ZM19.9161 23.3951C20.4909 26.44 21.0045 29.6066 21.6188 32.6391L22.5989 32.4406C21.9844 29.4072 21.4819 26.2987 20.8988 23.2096L19.9161 23.3951ZM24.1506 41.7647C25.3852 44.8844 27.045 47.6377 29.438 49.6998L30.0908 48.9422C27.86 47.02 26.2785 44.424 25.0804 41.3968L24.1506 41.7647ZM38.2187 53.3817C39.6876 53.5613 41.2867 53.6056 43.0297 53.5018L42.9703 52.5036C41.2801 52.6042 39.742 52.5605 38.34 52.3891L38.2187 53.3817ZM43.0297 53.5018C44.8735 53.3921 46.583 53.4041 48.1688 53.5267L48.2459 52.5297C46.6102 52.4033 44.8548 52.3914 42.9703 52.5036L43.0297 53.5018ZM57.7895 56.2713C60.815 58.0074 63.0537 60.458 64.7445 63.394L65.611 62.8949C63.8471 59.8318 61.4902 57.242 58.2872 55.404L57.7895 56.2713ZM68.2874 72.9146C69.0487 76.1582 69.5489 79.5947 69.9584 83.0553L70.9515 82.9377C70.5403 79.4634 70.035 75.9838 69.2609 72.6861L68.2874 72.9146ZM71.0887 93.3401C71.5328 97.0253 72.0798 100.528 72.9722 103.585L73.9321 103.304C73.0635 100.329 72.5241 96.8931 72.0815 93.2205L71.0887 93.3401ZM78.4409 112.505C79.8254 113.511 81.4695 114.193 83.424 114.494L83.576 113.506C81.769 113.228 80.2764 112.603 79.0289 111.696L78.4409 112.505ZM83.424 114.494C85.189 114.766 86.959 115.053 88.7283 115.354L88.8957 114.368C87.1218 114.067 85.3467 113.778 83.576 113.506L83.424 114.494ZM99.3063 117.285C102.886 117.978 106.416 118.695 109.849 119.407L110.052 118.428C106.616 117.716 103.082 116.997 99.4963 116.303L99.3063 117.285ZM120.386 121.619C124.131 122.406 127.673 123.142 130.932 123.778L131.124 122.796C127.872 122.162 124.336 121.427 120.591 120.64L120.386 121.619ZM141.585 125.583C143.672 125.849 145.496 126 147 126V125C145.555 125 143.779 124.855 141.712 124.591L141.585 125.583Z" fill="#3F4145"/>
</svg>
