<svg width="234" height="234" viewBox="0 0 234 234" fill="none" xmlns="http://www.w3.org/2000/svg">
<path d="M0.942427 0.69385C0.668122 0.725647 0.471529 0.973792 0.503326 1.2481C0.535122 1.5224 0.783267 1.719 1.05757 1.6872L0.942427 0.69385ZM91 111.691L91.4974 111.741L91 111.691ZM204 211.691L203.958 211.192L204 211.691ZM233.354 212.044C233.549 211.849 233.549 211.532 233.354 211.337L230.172 208.155C229.976 207.96 229.66 207.96 229.464 208.155C229.269 208.35 229.269 208.667 229.464 208.862L232.293 211.691L229.464 214.519C229.269 214.714 229.269 215.031 229.464 215.226C229.66 215.421 229.976 215.421 230.172 215.226L233.354 212.044ZM5.83043 1.53272C6.10629 1.54505 6.33992 1.33141 6.35225 1.05554C6.36458 0.779675 6.15094 0.546045 5.87508 0.533716L5.83043 1.53272ZM15.5938 2.1884C15.3281 2.11315 15.0517 2.26753 14.9764 2.53323C14.9012 2.79892 15.0556 3.0753 15.3213 3.15055L15.5938 2.1884ZM24.3643 6.53547C24.6152 6.65091 24.9121 6.54113 25.0276 6.29027C25.143 6.03941 25.0332 5.74248 24.7824 5.62704L24.3643 6.53547ZM33.4334 10.2547C33.1974 10.1112 32.8899 10.1862 32.7464 10.4222C32.603 10.6581 32.678 10.9657 32.9139 11.1091L33.4334 10.2547ZM40.9594 16.5411C41.1811 16.7058 41.4943 16.6595 41.6589 16.4378C41.8236 16.2161 41.7773 15.9029 41.5556 15.7383L40.9594 16.5411ZM49.1733 21.8906C48.9654 21.7088 48.6495 21.73 48.4678 21.9379C48.286 22.1458 48.3071 22.4616 48.515 22.6434L49.1733 21.8906ZM55.5888 29.3041C55.7829 29.5005 56.0994 29.5024 56.2959 29.3083C56.4923 29.1142 56.4942 28.7976 56.3001 28.6012L55.5888 29.3041ZM62.9326 35.8009C62.7527 35.5914 62.437 35.5675 62.2275 35.7474C62.0181 35.9273 61.9941 36.243 62.174 36.4525L62.9326 35.8009ZM68.248 44.041C68.413 44.2625 68.7262 44.3083 68.9477 44.1434C69.1692 43.9784 69.215 43.6652 69.05 43.4437L68.248 44.041ZM74.6145 51.4971C74.4658 51.2644 74.1567 51.1963 73.924 51.345C73.6913 51.4937 73.6232 51.8028 73.7718 52.0355L74.6145 51.4971ZM78.691 60.4118C78.8216 60.6551 79.1247 60.7465 79.368 60.6159C79.6114 60.4853 79.7027 60.1822 79.5722 59.9389L78.691 60.4118ZM83.849 68.7501C83.7389 68.4968 83.4444 68.3807 83.1911 68.4908C82.9379 68.6008 82.8218 68.8953 82.9318 69.1486L83.849 68.7501ZM86.3957 78.2151C86.4821 78.4774 86.7647 78.62 87.027 78.5336C87.2893 78.4472 87.4318 78.1645 87.3454 77.9022L86.3957 78.2151ZM89.9384 87.3533C89.8794 87.0836 89.6129 86.9127 89.3431 86.9716C89.0733 87.0306 88.9025 87.2971 88.9614 87.5669L89.9384 87.3533ZM90.4878 97.1343C90.5151 97.4091 90.7599 97.6098 91.0347 97.5825C91.3095 97.5553 91.5102 97.3104 91.4829 97.0356L90.4878 97.1343ZM91.8238 106.841C91.8325 106.565 91.6158 106.334 91.3398 106.325C91.0638 106.316 90.833 106.533 90.8243 106.809L91.8238 106.841ZM89.9636 116.753C89.9338 117.028 90.1322 117.275 90.4067 117.305C90.6813 117.334 90.928 117.136 90.9578 116.861L89.9636 116.753ZM89.7907 127.066C89.8236 126.792 89.6279 126.543 89.3538 126.51C89.0796 126.477 88.8307 126.673 88.7978 126.947L89.7907 127.066ZM87.5332 137.115C87.4981 137.389 87.6916 137.639 87.9655 137.675C88.2394 137.71 88.4899 137.516 88.5251 137.242L87.5332 137.115ZM87.1945 147.409C87.2308 147.135 87.0383 146.884 86.7645 146.848C86.4908 146.811 86.2395 147.004 86.2032 147.278L87.1945 147.409ZM84.862 157.45C84.8265 157.724 85.0197 157.975 85.2935 158.01C85.5674 158.046 85.8182 157.853 85.8537 157.579L84.862 157.45ZM84.5928 167.753C84.6246 167.479 84.428 167.231 84.1536 167.199C83.8793 167.167 83.6312 167.364 83.5995 167.638L84.5928 167.753ZM82.5647 177.839C82.5418 178.114 82.7464 178.356 83.0216 178.379C83.2968 178.402 83.5384 178.197 83.5613 177.922L82.5647 177.839ZM83.0079 188.135C83.0129 187.859 82.7932 187.631 82.5171 187.626C82.241 187.621 82.0131 187.841 82.0081 188.117L83.0079 188.135ZM82.3899 198.415C82.4188 198.689 82.6649 198.889 82.9395 198.86C83.2142 198.831 83.4134 198.585 83.3845 198.31L82.3899 198.415ZM85.4435 208.231C85.3558 207.969 85.0725 207.828 84.8106 207.915C84.5488 208.003 84.4075 208.286 84.4952 208.548L85.4435 208.231ZM89.2081 217.774C89.3705 217.997 89.6833 218.047 89.9065 217.884C90.1298 217.722 90.1791 217.409 90.0166 217.186L89.2081 217.774ZM97.0801 224.368C96.862 224.199 96.5479 224.238 96.3785 224.456C96.2092 224.675 96.2487 224.989 96.4668 225.158L97.0801 224.368ZM105.569 230.597C105.824 230.703 106.117 230.582 106.223 230.327C106.329 230.072 106.209 229.78 105.954 229.673L105.569 230.597ZM116.166 232.294C115.891 232.26 115.642 232.455 115.608 232.729C115.575 233.003 115.77 233.253 116.044 233.286L116.166 232.294ZM126.828 233.513C127.103 233.495 127.312 233.257 127.293 232.981C127.275 232.705 127.037 232.497 126.761 232.515L126.828 233.513ZM137.312 231.106C137.041 231.158 136.863 231.42 136.915 231.691C136.967 231.963 137.229 232.14 137.5 232.088L137.312 231.106ZM147.962 229.609C148.228 229.536 148.385 229.26 148.311 228.994C148.238 228.728 147.962 228.572 147.696 228.645L147.962 229.609ZM157.917 225.524C157.655 225.61 157.512 225.893 157.599 226.155C157.686 226.418 157.968 226.56 158.23 226.473L157.917 225.524ZM168.364 222.962C168.624 222.868 168.759 222.582 168.666 222.322C168.573 222.062 168.286 221.927 168.026 222.02L168.364 222.962ZM178.1 218.375C177.84 218.469 177.705 218.755 177.799 219.015C177.892 219.275 178.179 219.41 178.438 219.316L178.1 218.375ZM188.548 215.822C188.811 215.737 188.955 215.455 188.87 215.193C188.785 214.93 188.503 214.786 188.24 214.871L188.548 215.822ZM198.618 212.008C198.348 212.065 198.175 212.33 198.231 212.6C198.288 212.87 198.553 213.043 198.823 212.987L198.618 212.008ZM211.278 211.697C211.554 211.683 211.766 211.448 211.752 211.172C211.738 210.896 211.503 210.684 211.227 210.698L211.278 211.697ZM225.793 210.663C225.517 210.647 225.281 210.857 225.264 211.133C225.248 211.408 225.458 211.645 225.734 211.661L225.793 210.663ZM1.05757 1.6872C2.59461 1.50903 4.18828 1.45933 5.83043 1.53272L5.87508 0.533716C4.18411 0.458143 2.5368 0.509036 0.942427 0.69385L1.05757 1.6872ZM15.3213 3.15055C18.2637 3.98391 21.2909 5.12115 24.3643 6.53547L24.7824 5.62704C21.6679 4.19385 18.592 3.03757 15.5938 2.1884L15.3213 3.15055ZM32.9139 11.1091C35.5977 12.7407 38.2878 14.5573 40.9594 16.5411L41.5556 15.7383C38.8607 13.7372 36.1451 11.9032 33.4334 10.2547L32.9139 11.1091ZM48.515 22.6434C50.9151 24.7421 53.2793 26.9669 55.5888 29.3041L56.3001 28.6012C53.9739 26.2471 51.5919 24.0055 49.1733 21.8906L48.515 22.6434ZM62.174 36.4525C64.2723 38.8953 66.3026 41.429 68.248 44.041L69.05 43.4437C67.0906 40.8129 65.0458 38.2611 62.9326 35.8009L62.174 36.4525ZM73.7718 52.0355C75.517 54.767 77.1622 57.5631 78.691 60.4118L79.5722 59.9389C78.0309 57.0672 76.3729 54.2492 74.6145 51.4971L73.7718 52.0355ZM82.9318 69.1486C84.2289 72.1338 85.3892 75.1601 86.3957 78.2151L87.3454 77.9022C86.329 74.8168 85.1577 71.7618 83.849 68.7501L82.9318 69.1486ZM88.9614 87.5669C89.656 90.7442 90.1708 93.9379 90.4878 97.1343L91.4829 97.0356C91.1619 93.7985 90.6407 90.5665 89.9384 87.3533L88.9614 87.5669ZM90.8243 106.809C90.7732 108.423 90.6667 110.033 90.5026 111.64L91.4974 111.741C91.664 110.111 91.7719 108.477 91.8238 106.841L90.8243 106.809ZM90.5026 111.64C90.3259 113.369 90.146 115.073 89.9636 116.753L90.9578 116.861C91.1403 115.179 91.3205 113.473 91.4974 111.741L90.5026 111.64ZM88.7978 126.947C88.3781 130.45 87.9539 133.838 87.5332 137.115L88.5251 137.242C88.946 133.963 89.3706 130.572 89.7907 127.066L88.7978 126.947ZM86.2032 147.278C85.7356 150.807 85.2843 154.196 84.862 157.45L85.8537 157.579C86.2757 154.326 86.7268 150.939 87.1945 147.409L86.2032 147.278ZM83.5995 167.638C83.1855 171.215 82.8332 174.611 82.5647 177.839L83.5613 177.922C83.8286 174.708 84.1797 171.323 84.5928 167.753L83.5995 167.638ZM82.0081 188.117C81.9415 191.788 82.0529 195.213 82.3899 198.415L83.3845 198.31C83.0527 195.158 82.9419 191.776 83.0079 188.135L82.0081 188.117ZM84.4952 208.548C85.6165 211.899 87.1587 214.958 89.2081 217.774L90.0166 217.186C88.0314 214.458 86.5345 211.491 85.4435 208.231L84.4952 208.548ZM96.4668 225.158C97.7824 226.18 99.2035 227.164 100.736 228.115L101.264 227.266C99.7582 226.331 98.366 225.367 97.0801 224.368L96.4668 225.158ZM100.736 228.115C102.291 229.08 103.904 229.903 105.569 230.597L105.954 229.673C104.337 229 102.771 228.201 101.264 227.266L100.736 228.115ZM116.044 233.286C119.524 233.712 123.135 233.76 126.828 233.513L126.761 232.515C123.119 232.759 119.572 232.711 116.166 232.294L116.044 233.286ZM137.5 232.088C140.965 231.422 144.465 230.575 147.962 229.609L147.696 228.645C144.218 229.606 140.746 230.446 137.312 231.106L137.5 232.088ZM158.23 226.473C161.654 225.343 165.043 224.153 168.364 222.962L168.026 222.02C164.71 223.21 161.329 224.397 157.917 225.524L158.23 226.473ZM178.438 219.316C181.956 218.05 185.34 216.859 188.548 215.822L188.24 214.871C185.017 215.912 181.62 217.108 178.1 218.375L178.438 219.316ZM198.823 212.987C200.68 212.597 202.424 212.324 204.042 212.189L203.958 211.192C202.29 211.331 200.504 211.612 198.618 212.008L198.823 212.987ZM204.042 212.189C206.692 211.968 209.095 211.808 211.278 211.697L211.227 210.698C209.033 210.81 206.619 210.971 203.958 211.192L204.042 212.189ZM225.734 211.661C227.506 211.766 228.918 211.898 230.088 212.003C231.251 212.109 232.193 212.191 233 212.191V211.191C232.247 211.191 231.353 211.114 230.178 211.007C229.01 210.902 227.583 210.769 225.793 210.663L225.734 211.661Z" fill="white"/>
</svg>
