<svg width="285" height="189" viewBox="0 0 285 189" fill="none" xmlns="http://www.w3.org/2000/svg">
<path d="M122.5 4.5L122.348 4.97633L122.5 4.5ZM180 147L180.249 146.567L180 147ZM284.288 185.409C284.513 185.25 284.568 184.938 284.409 184.712L281.821 181.031C281.662 180.805 281.35 180.751 281.124 180.91C280.898 181.069 280.844 181.381 281.003 181.606L283.303 184.879L280.031 187.179C279.805 187.338 279.751 187.65 279.91 187.876C280.069 188.102 280.381 188.156 280.606 187.997L284.288 185.409ZM5.39172 6.15208C5.6626 6.20572 5.92568 6.02961 5.97933 5.75873C6.03297 5.48785 5.85687 5.22477 5.58598 5.17113L5.39172 6.15208ZM15.675 6.54312C15.3998 6.52126 15.1589 6.72669 15.137 7.00197C15.1151 7.27724 15.3206 7.51812 15.5959 7.53998L15.675 6.54312ZM25.8761 7.87325C26.1522 7.87049 26.3738 7.64442 26.3711 7.36829C26.3683 7.09216 26.1423 6.87054 25.8661 6.8733L25.8761 7.87325ZM36.0686 6.42713C35.7932 6.44736 35.5863 6.68701 35.6065 6.96241C35.6267 7.23781 35.8664 7.44467 36.1418 7.42445L36.0686 6.42713ZM46.3624 6.44919C46.6368 6.41798 46.8339 6.17026 46.8027 5.89588C46.7715 5.62151 46.5238 5.42439 46.2494 5.4556L46.3624 6.44919ZM56.4063 4.1863C56.1325 4.22264 55.9401 4.474 55.9764 4.74774C56.0127 5.02148 56.2641 5.21394 56.5378 5.17761L56.4063 4.1863ZM66.6932 3.82037C66.967 3.78446 67.1598 3.53339 67.1239 3.2596C67.088 2.9858 66.837 2.79295 66.5632 2.82886L66.6932 3.82037ZM76.7454 1.59005C76.4708 1.61987 76.2725 1.86659 76.3023 2.14112C76.3321 2.41564 76.5788 2.61402 76.8534 2.5842L76.7454 1.59005ZM87.0379 1.68707C87.3135 1.66953 87.5227 1.43191 87.5052 1.15632C87.4876 0.880736 87.25 0.671547 86.9744 0.689084L87.0379 1.68707ZM97.2463 0.373C96.9702 0.371191 96.7449 0.593578 96.7431 0.869714C96.7413 1.14585 96.9637 1.37117 97.2398 1.37298L97.2463 0.373ZM107.418 1.91792C107.692 1.947 107.939 1.74795 107.968 1.47335C107.997 1.19874 107.798 0.952556 107.523 0.923482L107.418 1.91792ZM117.681 2.6415C117.412 2.57735 117.143 2.74309 117.079 3.01168C117.014 3.28027 117.18 3.55 117.449 3.61415L117.681 2.6415ZM126.967 6.85665C127.214 6.9812 127.514 6.88238 127.639 6.63592C127.763 6.38946 127.665 6.0887 127.418 5.96415L126.967 6.85665ZM135.614 12.0874C135.425 11.8865 135.108 11.8773 134.907 12.0668C134.706 12.2563 134.697 12.5727 134.887 12.7736L135.614 12.0874ZM140.544 20.9515C140.67 21.1975 140.971 21.2951 141.217 21.1696C141.463 21.0441 141.561 20.743 141.435 20.497L140.544 20.9515ZM145.147 29.9746C145.068 29.7099 144.789 29.5594 144.525 29.6382C144.26 29.7171 144.11 29.9956 144.188 30.2602L145.147 29.9746ZM146.485 40.0485C146.535 40.3201 146.795 40.5 147.067 40.4503C147.339 40.4006 147.519 40.1402 147.469 39.8685L146.485 40.0485ZM148.951 49.909C148.919 49.6348 148.67 49.4389 148.396 49.4715C148.122 49.504 147.926 49.7528 147.958 50.027L148.951 49.909ZM148.967 60.0818C148.991 60.357 149.233 60.5608 149.508 60.537C149.784 60.5133 149.987 60.271 149.964 59.9959L148.967 60.0818ZM150.768 70.0838C150.747 69.8085 150.506 69.6024 150.231 69.6234C149.956 69.6445 149.75 69.8848 149.771 70.1601L150.768 70.0838ZM150.576 80.2487C150.6 80.5238 150.842 80.7276 151.117 80.7038C151.393 80.6801 151.596 80.4378 151.573 80.1627L150.576 80.2487ZM152.57 90.218C152.538 89.9437 152.29 89.747 152.015 89.7786C151.741 89.8103 151.544 90.0583 151.576 90.3326L152.57 90.218ZM152.972 100.376C153.017 100.649 153.275 100.833 153.547 100.787C153.82 100.742 154.004 100.484 153.958 100.212L152.972 100.376ZM155.971 110.079C155.905 109.811 155.633 109.647 155.365 109.714C155.097 109.78 154.934 110.051 155 110.319L155.971 110.079ZM157.952 120.042C158.048 120.301 158.336 120.434 158.595 120.338C158.854 120.242 158.986 119.955 158.89 119.696L157.952 120.042ZM163.049 128.821C162.914 128.58 162.609 128.493 162.368 128.628C162.127 128.762 162.041 129.067 162.175 129.308L163.049 128.821ZM167.986 137.692C168.165 137.901 168.481 137.925 168.691 137.745C168.9 137.565 168.924 137.25 168.744 137.04L167.986 137.692ZM176.058 143.833C175.835 143.669 175.522 143.717 175.359 143.939C175.195 144.162 175.243 144.475 175.465 144.639L176.058 143.833ZM183.795 149.713C184.036 149.846 184.341 149.758 184.474 149.516C184.607 149.275 184.52 148.97 184.278 148.837L183.795 149.713ZM192.452 153.165C192.206 153.04 191.905 153.138 191.78 153.385C191.655 153.631 191.753 153.932 191.999 154.057L192.452 153.165ZM200.339 158.133C200.589 158.251 200.886 158.143 201.004 157.893C201.121 157.643 201.014 157.346 200.764 157.228L200.339 158.133ZM209.193 161.043C208.94 160.933 208.646 161.048 208.535 161.302C208.425 161.555 208.541 161.849 208.794 161.96L209.193 161.043ZM217.348 165.551C217.604 165.655 217.896 165.531 217.999 165.275C218.103 165.019 217.979 164.728 217.723 164.624L217.348 165.551ZM226.346 167.985C226.088 167.888 225.799 168.019 225.702 168.278C225.605 168.536 225.736 168.824 225.995 168.922L226.346 167.985ZM234.723 172.08C234.984 172.171 235.269 172.033 235.359 171.772C235.45 171.512 235.313 171.227 235.052 171.136L234.723 172.08ZM243.819 174.076C243.556 173.991 243.275 174.135 243.19 174.398C243.105 174.661 243.249 174.943 243.512 175.027L243.819 174.076ZM252.383 177.773C252.648 177.852 252.926 177.701 253.005 177.436C253.084 177.171 252.933 176.893 252.668 176.814L252.383 177.773ZM261.574 179.34C261.307 179.268 261.033 179.425 260.961 179.692C260.889 179.959 261.046 180.233 261.313 180.305L261.574 179.34ZM270.301 182.606C270.569 182.67 270.839 182.505 270.904 182.237C270.969 181.968 270.803 181.698 270.535 181.633L270.301 182.606ZM279.566 183.65C279.296 183.595 279.032 183.77 278.977 184.04C278.922 184.311 279.097 184.575 279.367 184.63L279.566 183.65ZM0.370014 4.98272C2.03317 5.43049 3.70745 5.81853 5.39172 6.15208L5.58598 5.17113C3.92283 4.84176 2.27049 4.45877 0.629986 4.0171L0.370014 4.98272ZM15.5959 7.53998C18.9952 7.80996 22.4249 7.90766 25.8761 7.87325L25.8661 6.8733C22.4402 6.90746 19.0406 6.81042 15.675 6.54312L15.5959 7.53998ZM36.1418 7.42445C39.5381 7.17502 42.9478 6.83763 46.3624 6.44919L46.2494 5.4556C42.8441 5.84297 39.4482 6.17893 36.0686 6.42713L36.1418 7.42445ZM56.5378 5.17761C59.9303 4.72732 63.3125 4.26371 66.6932 3.82037L66.5632 2.82886C63.184 3.272 59.7905 3.7371 56.4063 4.1863L56.5378 5.17761ZM76.8534 2.5842C80.2691 2.21318 83.6664 1.90162 87.0379 1.68707L86.9744 0.689084C83.5844 0.904814 80.1718 1.21786 76.7454 1.59005L76.8534 2.5842ZM97.2398 1.37298C100.672 1.39546 104.068 1.56326 107.418 1.91792L107.523 0.923482C104.136 0.564864 100.707 0.395667 97.2463 0.373L97.2398 1.37298ZM117.449 3.61415C119.096 4.00755 120.73 4.4598 122.348 4.97633L122.652 4.02367C121.009 3.49929 119.352 3.04043 117.681 2.6415L117.449 3.61415ZM122.348 4.97633C123.994 5.50158 125.531 6.13076 126.967 6.85665L127.418 5.96415C125.933 5.21353 124.347 4.56449 122.652 4.02367L122.348 4.97633ZM134.887 12.7736C137.118 15.1388 138.98 17.8849 140.544 20.9515L141.435 20.497C139.834 17.3597 137.92 14.5322 135.614 12.0874L134.887 12.7736ZM144.188 30.2602C145.109 33.3478 145.859 36.6239 146.485 40.0485L147.469 39.8685C146.838 36.4169 146.08 33.1043 145.147 29.9746L144.188 30.2602ZM147.958 50.027C148.348 53.3033 148.673 56.6645 148.967 60.0818L149.964 59.9959C149.668 56.5723 149.342 53.1996 148.951 49.909L147.958 50.027ZM149.771 70.1601C150.027 73.5076 150.286 76.88 150.576 80.2487L151.573 80.1627C151.282 76.7996 151.024 73.4319 150.768 70.0838L149.771 70.1601ZM151.576 90.3326C151.967 93.7193 152.422 97.0766 152.972 100.376L153.958 100.212C153.411 96.9322 152.959 93.5919 152.57 90.218L151.576 90.3326ZM155 110.319C155.827 113.667 156.799 116.919 157.952 120.042L158.89 119.696C157.752 116.613 156.79 113.397 155.971 110.079L155 110.319ZM162.175 129.308C163.846 132.301 165.768 135.11 167.986 137.692L168.744 137.04C166.574 134.514 164.69 131.761 163.049 128.821L162.175 129.308ZM175.465 144.639C176.816 145.632 178.243 146.565 179.751 147.433L180.249 146.567C178.774 145.717 177.378 144.805 176.058 143.833L175.465 144.639ZM179.751 147.433C181.091 148.205 182.44 148.965 183.795 149.713L184.278 148.837C182.928 148.092 181.585 147.336 180.249 146.567L179.751 147.433ZM191.999 154.057C194.768 155.465 197.552 156.823 200.339 158.133L200.764 157.228C197.986 155.922 195.212 154.568 192.452 153.165L191.999 154.057ZM208.794 161.96C211.658 163.207 214.513 164.404 217.348 165.551L217.723 164.624C214.896 163.48 212.049 162.287 209.193 161.043L208.794 161.96ZM225.995 168.922C228.945 170.03 231.859 171.082 234.723 172.08L235.052 171.136C232.196 170.141 229.289 169.091 226.346 167.985L225.995 168.922ZM243.512 175.027C246.557 176.009 249.52 176.924 252.383 177.773L252.668 176.814C249.812 175.967 246.856 175.055 243.819 174.076L243.512 175.027ZM261.313 180.305C264.5 181.166 267.507 181.932 270.301 182.606L270.535 181.633C267.751 180.962 264.752 180.198 261.574 179.34L261.313 180.305ZM279.367 184.63C281.03 184.967 282.55 185.255 283.914 185.493L284.086 184.507C282.732 184.271 281.221 183.986 279.566 183.65L279.367 184.63Z" fill="white"/>
</svg>
