<svg width="228" height="75" viewBox="0 0 228 75" fill="none" xmlns="http://www.w3.org/2000/svg">
<path d="M222.453 0.788157C222.336 0.538025 222.038 0.430098 221.788 0.547095C221.538 0.664093 221.43 0.96171 221.547 1.21184L222.453 0.788157ZM217.5 58L217.096 57.705L217.5 58ZM0.580215 71.7284C0.4302 71.9602 0.496533 72.2698 0.728374 72.4198L4.50644 74.8644C4.73828 75.0144 5.04784 74.9481 5.19785 74.7163C5.34787 74.4844 5.28153 74.1749 5.04969 74.0248L1.69141 71.8518L3.86442 68.4936C4.01443 68.2617 3.9481 67.9522 3.71626 67.8021C3.48442 67.6521 3.17486 67.7185 3.02485 67.9503L0.580215 71.7284ZM5.64391 70.952C5.89545 70.8381 6.007 70.5418 5.89307 70.2903C5.77913 70.0387 5.48285 69.9272 5.23131 70.0411L5.64391 70.952ZM13.2573 65.3369C13.0275 65.4901 12.9655 65.8005 13.1186 66.0303C13.2718 66.2601 13.5822 66.3221 13.812 66.169L13.2573 65.3369ZM21.6187 60.9527C21.8506 60.8028 21.9171 60.4932 21.7672 60.2613C21.6172 60.0294 21.3077 59.963 21.0758 60.1129L21.6187 60.9527ZM29.1656 55.2691C28.9232 55.4014 28.8341 55.7052 28.9665 55.9475C29.0989 56.1899 29.4026 56.279 29.645 56.1466L29.1656 55.2691ZM38.0442 52.0351C38.2975 51.9251 38.4136 51.6306 38.3036 51.3773C38.1937 51.1241 37.8992 51.0079 37.6459 51.1179L38.0442 52.0351ZM46.4568 47.753C46.1947 47.8401 46.0529 48.1231 46.14 48.3852C46.2271 48.6472 46.5102 48.789 46.7722 48.7019L46.4568 47.753ZM55.7636 46.1173C56.0318 46.0515 56.1959 45.7808 56.1301 45.5126C56.0643 45.2444 55.7936 45.0803 55.5254 45.1461L55.7636 46.1173ZM64.7607 43.2307C64.4886 43.2775 64.3058 43.536 64.3526 43.8082C64.3994 44.0803 64.6579 44.2631 64.9301 44.2163L64.7607 43.2307ZM74.2709 43.0547C74.5467 43.0403 74.7586 42.8051 74.7442 42.5293C74.7299 42.2536 74.4947 42.0417 74.2189 42.056L74.2709 43.0547ZM83.8255 42.1794C83.55 42.1606 83.3114 42.3687 83.2926 42.6442C83.2738 42.9197 83.4819 43.1582 83.7574 43.177L83.8255 42.1794ZM93.2246 44.2131C93.4979 44.2528 93.7516 44.0635 93.7914 43.7902C93.8311 43.517 93.6418 43.2632 93.3685 43.2235L93.2246 44.2131ZM102.823 44.8586C102.552 44.8052 102.289 44.9815 102.235 45.2524C102.182 45.5233 102.358 45.7862 102.629 45.8397L102.823 44.8586ZM111.945 47.8513C112.214 47.9138 112.483 47.7464 112.545 47.4775C112.608 47.2085 112.44 46.9398 112.171 46.8773L111.945 47.8513ZM121.468 49.1525C121.201 49.0841 120.928 49.2457 120.86 49.5132C120.792 49.7808 120.953 50.0531 121.221 50.1214L121.468 49.1525ZM130.465 52.5497C130.732 52.6213 131.006 52.4632 131.078 52.1965C131.149 51.9298 130.991 51.6555 130.725 51.5839L130.465 52.5497ZM139.953 54.0891C139.686 54.0164 139.411 54.1734 139.339 54.4398C139.266 54.7062 139.423 54.9811 139.689 55.0538L139.953 54.0891ZM148.92 57.5616C149.187 57.6333 149.461 57.4752 149.533 57.2086C149.604 56.9419 149.446 56.6676 149.18 56.5959L148.92 57.5616ZM158.412 59.0232C158.145 58.9549 157.873 59.1164 157.804 59.384C157.736 59.6515 157.898 59.9238 158.165 59.9921L158.412 59.0232ZM167.47 62.2592C167.739 62.3211 168.007 62.153 168.069 61.8839C168.131 61.6148 167.963 61.3465 167.694 61.2846L167.47 62.2592ZM177.036 63.253C176.765 63.2019 176.504 63.3804 176.452 63.6518C176.401 63.9232 176.58 64.1846 176.851 64.2357L177.036 63.253ZM186.328 65.7283C186.602 65.7616 186.851 65.5663 186.885 65.2922C186.918 65.0181 186.723 64.7689 186.449 64.7356L186.328 65.7283ZM195.914 65.3999C195.637 65.3976 195.412 65.6195 195.409 65.8957C195.407 66.1718 195.629 66.3975 195.905 66.3998L195.914 65.3999ZM205.528 65.5621C205.798 65.5054 205.971 65.2403 205.915 64.9701C205.858 64.6998 205.593 64.5267 205.323 64.5834L205.528 65.5621ZM213.847 60.9792C213.625 61.1443 213.58 61.4576 213.745 61.6789C213.91 61.9003 214.223 61.9458 214.445 61.7807L213.847 60.9792ZM220.664 54.088C220.803 53.8497 220.724 53.5434 220.485 53.4038C220.247 53.2642 219.941 53.3442 219.801 53.5825L220.664 54.088ZM223.895 44.6267C223.806 44.888 223.945 45.1722 224.207 45.2614C224.468 45.3506 224.752 45.211 224.841 44.9497L223.895 44.6267ZM227.17 35.1835C227.21 34.9102 227.02 34.6568 226.747 34.6175C226.473 34.5783 226.22 34.768 226.181 35.0414L227.17 35.1835ZM226.755 25.1892C226.761 25.4653 226.99 25.684 227.266 25.6777C227.542 25.6714 227.761 25.4425 227.755 25.1665L226.755 25.1892ZM226.77 15.1843C226.723 14.9122 226.464 14.7301 226.192 14.7774C225.92 14.8247 225.738 15.0837 225.785 15.3557L226.77 15.1843ZM223.366 5.78608C223.455 6.0475 223.739 6.18731 224 6.09836C224.261 6.0094 224.401 5.72536 224.312 5.46394L223.366 5.78608ZM1.10476 72.4889C2.64049 72.1598 4.14019 71.6332 5.64391 70.952L5.23131 70.0411C3.77848 70.6992 2.34731 71.1999 0.895235 71.5111L1.10476 72.4889ZM13.812 66.169C16.2078 64.5717 18.7562 62.8032 21.6187 60.9527L21.0758 60.1129C18.2077 61.967 15.631 63.7544 13.2573 65.3369L13.812 66.169ZM29.645 56.1466C32.2049 54.7482 34.9877 53.3625 38.0442 52.0351L37.6459 51.1179C34.5593 52.4583 31.7494 53.8576 29.1656 55.2691L29.645 56.1466ZM46.7722 48.7019C49.5664 47.773 52.5554 46.9041 55.7636 46.1173L55.5254 45.1461C52.2913 45.9393 49.2764 46.8156 46.4568 47.753L46.7722 48.7019ZM64.9301 44.2163C66.4342 43.9578 67.98 43.7169 69.5691 43.4952L69.4309 42.5048C67.8315 42.728 66.2754 42.9705 64.7607 43.2307L64.9301 44.2163ZM69.5691 43.4952C71.0823 43.2841 72.6511 43.139 74.2709 43.0547L74.2189 42.056C72.5733 42.1417 70.9755 42.2893 69.4309 42.5048L69.5691 43.4952ZM83.7574 43.177C86.8026 43.3849 89.9662 43.7393 93.2246 44.2131L93.3685 43.2235C90.0896 42.7467 86.9003 42.3892 83.8255 42.1794L83.7574 43.177ZM102.629 45.8397C105.684 46.4422 108.795 47.1194 111.945 47.8513L112.171 46.8773C109.012 46.1433 105.89 45.4637 102.823 44.8586L102.629 45.8397ZM121.221 50.1214C124.287 50.9044 127.374 51.7196 130.465 52.5497L130.725 51.5839C127.631 50.7531 124.54 49.9368 121.468 49.1525L121.221 50.1214ZM139.689 55.0538C142.782 55.8981 145.864 56.7399 148.92 57.5616L149.18 56.5959C146.126 55.7748 143.045 54.9335 139.953 54.0891L139.689 55.0538ZM158.165 59.9921C161.319 60.7969 164.426 61.5596 167.47 62.2592L167.694 61.2846C164.66 60.5872 161.56 59.8265 158.412 59.0232L158.165 59.9921ZM176.851 64.2357C180.124 64.852 183.292 65.3597 186.328 65.7283L186.449 64.7356C183.438 64.3701 180.292 63.8661 177.036 63.253L176.851 64.2357ZM195.905 66.3998C199.39 66.429 202.617 66.1728 205.528 65.5621L205.323 64.5834C202.5 65.1757 199.347 65.4286 195.914 65.3999L195.905 66.3998ZM214.445 61.7807C215.761 60.7985 216.919 59.6418 217.904 58.295L217.096 57.705C216.173 58.9688 215.086 60.0548 213.847 60.9792L214.445 61.7807ZM217.904 58.295C218.914 56.913 219.832 55.5086 220.664 54.088L219.801 53.5825C218.986 54.9744 218.086 56.3505 217.096 57.705L217.904 58.295ZM224.841 44.9497C225.954 41.6895 226.707 38.4121 227.17 35.1835L226.181 35.0414C225.725 38.2135 224.986 41.4299 223.895 44.6267L224.841 44.9497ZM227.755 25.1665C227.675 21.6505 227.311 18.2899 226.77 15.1843L225.785 15.3557C226.318 18.4165 226.676 21.7273 226.755 25.1892L227.755 25.1665ZM224.312 5.46394C223.707 3.6862 223.073 2.1135 222.453 0.788157L221.547 1.21184C222.15 2.50059 222.771 4.03902 223.366 5.78608L224.312 5.46394Z" fill="white"/>
</svg>
