<svg width="32" height="32" viewBox="0 0 32 32" xmlns="http://www.w3.org/2000/svg">
<g clip-path="url(#clip0_37_2883)">
<path fill-rule="evenodd" clip-rule="evenodd" d="M8.10204 5.84017L13.0865 5.83859C13.2512 6.05045 15.454 11.0122 15.6265 11.3736C15.7116 11.5519 15.7529 11.6671 15.8175 11.818L16.2465 12.7573C16.3188 12.9207 16.3813 13.1159 16.4884 13.2185L17.7217 10.4411C17.8668 10.1403 18.0199 9.80582 18.1513 9.50771C18.5095 8.69498 19.1056 7.48182 19.3963 6.74412C19.4398 6.63362 19.7464 5.87003 19.868 5.83897L24.8106 5.83859C24.7654 6.04065 23.0985 9.34924 22.9254 9.65782C22.5879 10.2592 22.305 10.9268 21.9864 11.5353C21.6617 12.1551 21.3348 12.8053 21.0277 13.4382C20.731 14.0495 20.3764 14.6669 20.0839 15.3017C19.9994 15.4849 19.9329 15.5947 19.8504 15.7528C19.781 15.8857 19.7082 16.0713 19.6156 16.2407C19.3313 16.7604 19.3307 16.6652 19.3309 17.409C19.3311 17.8737 19.3618 22.8598 19.3174 23.1857L13.5961 23.1856C13.5364 22.4924 13.5876 18.4933 13.5877 17.4522C13.5878 16.7309 13.6041 16.8132 13.3389 16.2835L11.4382 12.5199C11.2818 12.1879 11.1206 11.8794 10.9697 11.5815L9.05462 7.78756C8.87193 7.41738 8.18145 6.10139 8.10204 5.84017ZM1.22992e-06 4.51563C-0.000109445 6.39778 0.0065864 5.83511 0.294212 7.59069C0.394335 8.20189 0.558411 8.82633 0.688546 9.38196C1.09323 11.1097 1.45971 12.4925 1.93482 14.143C1.9825 14.3087 2.00921 14.3812 2.06023 14.5801C2.3832 15.8387 3.46983 19.245 3.89675 20.3969L4.76835 22.8233C5.19192 23.9187 5.53057 24.8569 6.046 25.9053C6.77568 27.3895 7.6816 28.7053 9.16996 29.2621C11.1444 30.0007 12.5383 29.599 14.5733 29.3072C15.7827 29.1338 23.0466 27.4777 24.3697 27.1103L25.3008 26.8888C25.5628 26.858 25.6127 27.0841 25.91 27.3985C26.7168 28.2516 30.903 32.5024 31.46 31.0623C32.0006 29.6647 30.2868 24.9359 30.2964 24.7268L30.6044 23.4855C31.2644 20.6656 31.8328 14.7099 31.9593 11.6976L31.9622 11.6113C31.9496 9.39607 32.2087 6.6475 31.5236 4.91766C30.7343 2.92487 29.241 2.5669 27.2865 2.12639C26.3358 1.91211 25.3471 1.75489 24.3879 1.56463C23.8992 1.46768 23.4198 1.38075 22.9389 1.28698C22.4763 1.19676 21.9384 1.1309 21.4594 1.05129C21.2007 1.00828 20.9262 1.00651 20.6657 0.974102C20.4414 0.946175 20.1367 0.899273 19.9048 0.867658C19.0232 0.747498 17.6849 0.661626 16.7455 0.559236C16.46 0.528124 16.2274 0.524341 15.9448 0.495564L13.2129 0.297752C12.5682 0.272912 11.9096 0.182412 11.2672 0.182412C9.32393 0.14051 7.72727 0.00154559 5.68492 0.00154559C4.24608 0.00154559 2.87457 -0.0821804 1.60973 0.982829C1.46882 1.10148 1.36746 1.20355 1.23908 1.33464C0.531074 2.05764 7.50131e-05 3.5208 1.22992e-06 4.51563Z" />
</g>
<defs>
<clipPath id="clip0_37_2883">
<rect width="32" height="32" fill="white"/>
</clipPath>
</defs>
</svg>
