<svg width="28" height="17" viewBox="0 0 28 17" fill="none" xmlns="http://www.w3.org/2000/svg">
<path fill-rule="evenodd" clip-rule="evenodd" d="M4.83408 0.5H1.91674C1.08322 0.5 0.916504 0.892344 0.916504 1.32484C0.916504 2.09742 1.90557 5.92898 5.52166 10.9966C7.93244 14.4573 11.3289 16.3333 14.4196 16.3333C16.2741 16.3333 16.5035 15.9166 16.5035 15.1989V12.5833C16.5035 11.7499 16.6792 11.5836 17.2663 11.5836C17.699 11.5836 18.4408 11.7999 20.1716 13.4685C22.1496 15.4461 22.4757 16.3333 23.5883 16.3333H26.5056C27.3392 16.3333 27.756 15.9166 27.5156 15.0944C27.2524 14.2748 26.3081 13.0858 25.0549 11.6764C24.3749 10.873 23.3549 10.0078 23.0459 9.57516C22.6132 9.01898 22.7368 8.77172 23.0459 8.27742C23.0459 8.27742 26.6003 3.27156 26.9711 1.57219C27.1565 0.954141 26.9711 0.5 26.0888 0.5H23.1715C22.4298 0.5 22.0878 0.892344 21.9023 1.32484C21.9023 1.32484 20.4188 4.94016 18.3171 7.28859C17.6371 7.96836 17.3281 8.18469 16.9571 8.18469C16.7717 8.18469 16.5033 7.96836 16.5033 7.35047V1.57219C16.5033 0.830547 16.2881 0.5 15.6698 0.5H11.0854C10.6219 0.5 10.3431 0.84414 10.3431 1.17039C10.3431 1.87336 11.3939 2.03555 11.5022 4.01313V8.30828C11.5022 9.24992 11.3321 9.4207 10.9612 9.4207C9.97221 9.4207 7.56643 5.78922 6.13963 1.63383C5.86018 0.82625 5.57971 0.5 4.83408 0.5Z" fill="white"/>
</svg>
