<svg width="38" height="44" viewBox="0 0 38 44" fill="none" xmlns="http://www.w3.org/2000/svg">
<path d="M26.4339 25.2051C24.6454 29.2845 21.9789 30.9364 18.9999 30.9364C16.021 30.9364 13.3546 29.2845 11.5661 25.2051C4.82922 26.6951 0.109375 30.1483 0.109375 34.1709C0.109375 39.5557 8.56703 43.9209 19 43.9209C29.433 43.9209 37.8906 39.5556 37.8906 34.1709C37.8906 30.1483 33.1707 26.6951 26.4339 25.2051Z" fill="#3F4145"/>
<path d="M31.4332 21.3553C31.4332 21.3553 27.7983 20.3287 28.4505 13.7022C29.1023 7.08434 27.6354 0.80412 22.313 1.29321C22.313 1.29321 20.0064 -1.01744 15.4179 0.735307C13.8447 1.33812 9.61477 2.84599 9.82684 12.0231C10.0386 21.1921 6.56677 21.2496 6.56677 21.2496C6.56677 21.2496 12.9666 24.2691 19.0469 24.2691C24.4531 24.2691 31.4332 21.3553 31.4332 21.3553Z" fill="#3F4145"/>
</svg>
