<svg width="180" height="180" viewBox="0 0 180 180" fill="none" xmlns="http://www.w3.org/2000/svg">
<g clip-path="url(#clip0_360_3108)">
<path d="M160.606 33.1872C130.941 33.1872 108.215 24.7043 88.9971 6C69.7814 24.7043 47.0565 33.1872 17.394 33.1872C17.394 81.8924 7.32431 151.667 88.9971 180C170.675 151.666 160.606 81.8924 160.606 33.1872Z" fill="#3F4145"/>
<path d="M94.4971 -2.27051C113.656 15.8512 136.254 24.2012 165.355 24.4322C165.37 28.7753 165.456 33.2643 165.543 37.8592C165.946 58.9247 166.391 82.2174 160.19 103.889C152.58 130.488 134.938 154.625 94.497 168.677C54.059 154.625 36.4182 130.489 28.8087 103.889C22.6091 82.218 23.0542 58.9258 23.4567 37.8606C23.5445 33.2652 23.6303 28.7757 23.6447 24.4322C52.7439 24.2012 75.3404 15.8512 94.4971 -2.27051Z" fill="#32CC00" stroke="white" stroke-width="2.5"/>
</g>
<defs>
<clipPath id="clip0_360_3108">
<rect width="180" height="180" fill="white"/>
</clipPath>
</defs>
</svg>
