<svg width="175" height="31" viewBox="0 0 175 31" fill="none" xmlns="http://www.w3.org/2000/svg">
<path d="M10.112 24.448C8.29867 24.448 6.53867 24.224 4.832 23.776C3.12533 23.328 1.73867 22.7307 0.672 21.984L2.752 17.312C3.75467 17.9733 4.91733 18.5067 6.24 18.912C7.56267 19.3173 8.864 19.52 10.144 19.52C12.576 19.52 13.792 18.912 13.792 17.696C13.792 17.056 13.44 16.5867 12.736 16.288C12.0533 15.968 10.944 15.6373 9.408 15.296C7.72267 14.9333 6.31467 14.5493 5.184 14.144C4.05333 13.7173 3.08267 13.0453 2.272 12.128C1.46133 11.2107 1.056 9.97333 1.056 8.416C1.056 7.05067 1.42933 5.824 2.176 4.736C2.92267 3.62667 4.032 2.752 5.504 2.112C6.99733 1.472 8.82133 1.152 10.976 1.152C12.448 1.152 13.8987 1.32267 15.328 1.664C16.7573 1.984 18.016 2.464 19.104 3.104L17.152 7.808C15.0187 6.656 12.9493 6.08 10.944 6.08C9.68533 6.08 8.768 6.272 8.192 6.656C7.616 7.01867 7.328 7.49867 7.328 8.096C7.328 8.69333 7.66933 9.14133 8.352 9.44C9.03467 9.73867 10.1333 10.048 11.648 10.368C13.3547 10.7307 14.7627 11.1253 15.872 11.552C17.0027 11.9573 17.9733 12.6187 18.784 13.536C19.616 14.432 20.032 15.6587 20.032 17.216C20.032 18.56 19.6587 19.776 18.912 20.864C18.1653 21.952 17.0453 22.8267 15.552 23.488C14.0587 24.128 12.2453 24.448 10.112 24.448ZM33.8388 23.296C33.3268 23.616 32.6974 23.8613 31.9508 24.032C31.2254 24.2027 30.4468 24.288 29.6148 24.288C27.3534 24.288 25.6148 23.7333 24.3988 22.624C23.2041 21.5147 22.6068 19.8613 22.6068 17.664V2.784H28.6868V7.296H32.6228V11.84H28.6868V17.6C28.6868 18.24 28.8468 18.7307 29.1667 19.072C29.4868 19.4133 29.9241 19.584 30.4788 19.584C31.1828 19.584 31.8014 19.4027 32.3348 19.04L33.8388 23.296ZM54.4108 6.656V24H48.6188V22.144C47.9788 22.848 47.2108 23.3813 46.3148 23.744C45.4188 24.1067 44.4694 24.288 43.4668 24.288C41.2268 24.288 39.4348 23.6267 38.0908 22.304C36.7681 20.9813 36.1068 18.9973 36.1068 16.352V6.656H42.1868V15.36C42.1868 16.6613 42.4321 17.6107 42.9228 18.208C43.4134 18.8053 44.1281 19.104 45.0668 19.104C46.0268 19.104 46.8054 18.7733 47.4028 18.112C48.0214 17.4293 48.3308 16.3947 48.3308 15.008V6.656H54.4108ZM76.759 0.255999V24H70.967V22.272C69.8363 23.616 68.1403 24.288 65.879 24.288C64.3003 24.288 62.8603 23.9253 61.559 23.2C60.2577 22.4533 59.223 21.3973 58.455 20.032C57.7083 18.6667 57.335 17.088 57.335 15.296C57.335 13.504 57.7083 11.936 58.455 10.592C59.223 9.22667 60.2577 8.18133 61.559 7.456C62.8603 6.73067 64.3003 6.368 65.879 6.368C67.9483 6.368 69.5483 6.96533 70.679 8.16V0.255999H76.759ZM67.159 19.456C68.2043 19.456 69.0683 19.0933 69.751 18.368C70.4337 17.6213 70.775 16.5973 70.775 15.296C70.775 14.016 70.4337 13.0133 69.751 12.288C69.0897 11.5627 68.2257 11.2 67.159 11.2C66.0923 11.2 65.2177 11.5627 64.535 12.288C63.8523 13.0133 63.511 14.016 63.511 15.296C63.511 16.5973 63.8523 17.6213 64.535 18.368C65.2177 19.0933 66.0923 19.456 67.159 19.456ZM98.9108 6.656V20.832C98.9108 24.0533 98.0468 26.464 96.3188 28.064C94.6121 29.6853 92.1481 30.496 88.9268 30.496C87.2414 30.496 85.6628 30.304 84.1908 29.92C82.7401 29.536 81.5028 28.9707 80.4788 28.224L82.6868 23.968C83.3694 24.544 84.2228 24.992 85.2468 25.312C86.2921 25.6533 87.3268 25.824 88.3508 25.824C89.8868 25.824 91.0174 25.472 91.7428 24.768C92.4681 24.064 92.8308 23.0187 92.8308 21.632V21.248C91.5294 22.4853 89.9081 23.104 87.9668 23.104C85.7268 23.104 83.9348 22.4427 82.5908 21.12C81.2681 19.7973 80.6068 17.8133 80.6068 15.168V6.656H86.6868V14.176C86.6868 15.4987 86.9321 16.4587 87.4228 17.056C87.9134 17.6533 88.6281 17.952 89.5668 17.952C90.5268 17.952 91.3054 17.6107 91.9028 16.928C92.5214 16.2453 92.8308 15.2213 92.8308 13.856V6.656H98.9108Z" fill="#3F4145"/>
<path d="M110.987 24.448C109.174 24.448 107.414 24.224 105.707 23.776C104 23.328 102.614 22.7307 101.547 21.984L103.627 17.312C104.63 17.9733 105.792 18.5067 107.115 18.912C108.438 19.3173 109.739 19.52 111.019 19.52C113.451 19.52 114.667 18.912 114.667 17.696C114.667 17.056 114.315 16.5867 113.611 16.288C112.928 15.968 111.819 15.6373 110.283 15.296C108.598 14.9333 107.19 14.5493 106.059 14.144C104.928 13.7173 103.958 13.0453 103.147 12.128C102.336 11.2107 101.931 9.97333 101.931 8.416C101.931 7.05067 102.304 5.824 103.051 4.736C103.798 3.62667 104.907 2.752 106.379 2.112C107.872 1.472 109.696 1.152 111.851 1.152C113.323 1.152 114.774 1.32267 116.203 1.664C117.632 1.984 118.891 2.464 119.979 3.104L118.027 7.808C115.894 6.656 113.824 6.08 111.819 6.08C110.56 6.08 109.643 6.272 109.067 6.656C108.491 7.01867 108.203 7.49867 108.203 8.096C108.203 8.69333 108.544 9.14133 109.227 9.44C109.91 9.73867 111.008 10.048 112.523 10.368C114.23 10.7307 115.638 11.1253 116.747 11.552C117.878 11.9573 118.848 12.6187 119.659 13.536C120.491 14.432 120.907 15.6587 120.907 17.216C120.907 18.56 120.534 19.776 119.787 20.864C119.04 21.952 117.92 22.8267 116.427 23.488C114.934 24.128 113.12 24.448 110.987 24.448ZM141.882 6.656V24H136.09V22.272C134.959 23.616 133.252 24.288 130.97 24.288C129.391 24.288 127.951 23.9253 126.65 23.2C125.37 22.4533 124.346 21.3973 123.578 20.032C122.831 18.6667 122.458 17.088 122.458 15.296C122.458 13.504 122.831 11.936 123.578 10.592C124.346 9.22667 125.37 8.18133 126.65 7.456C127.951 6.73067 129.391 6.368 130.97 6.368C133.018 6.368 134.628 6.96533 135.802 8.16V6.656H141.882ZM132.25 19.456C133.316 19.456 134.191 19.0933 134.874 18.368C135.556 17.6213 135.898 16.5973 135.898 15.296C135.898 14.016 135.556 13.0133 134.874 12.288C134.191 11.5627 133.316 11.2 132.25 11.2C131.183 11.2 130.308 11.5627 129.626 12.288C128.943 13.0133 128.602 14.016 128.602 15.296C128.602 16.5973 128.943 17.6213 129.626 18.368C130.308 19.0933 131.183 19.456 132.25 19.456ZM152.548 24.288C150.414 24.288 148.75 23.744 147.556 22.656C146.382 21.5467 145.796 19.968 145.796 17.92V0.255999H151.876V17.6C151.876 18.24 152.036 18.7307 152.356 19.072C152.697 19.4133 153.166 19.584 153.764 19.584C154.254 19.584 154.713 19.4773 155.14 19.264L155.396 23.84C154.478 24.1387 153.529 24.288 152.548 24.288ZM166.545 19.648C167.377 19.648 168.091 19.5307 168.689 19.296C169.307 19.0613 169.926 18.6773 170.545 18.144L173.713 21.472C172.07 23.3493 169.617 24.288 166.353 24.288C164.326 24.288 162.545 23.904 161.009 23.136C159.473 22.368 158.278 21.3013 157.424 19.936C156.593 18.5707 156.177 17.024 156.177 15.296C156.177 13.5893 156.593 12.064 157.424 10.72C158.257 9.35467 159.398 8.288 160.849 7.52C162.321 6.752 163.963 6.368 165.777 6.368C167.462 6.368 168.998 6.72 170.385 7.424C171.793 8.10667 172.913 9.12 173.745 10.464C174.577 11.7867 174.993 13.3653 174.993 15.2L162.609 17.568C163.27 18.9547 164.582 19.648 166.545 19.648ZM165.809 10.688C164.763 10.688 163.91 11.0187 163.249 11.68C162.587 12.32 162.214 13.248 162.129 14.464L169.169 13.088C168.955 12.3627 168.55 11.7867 167.953 11.36C167.355 10.912 166.641 10.688 165.809 10.688Z" fill="#FF0066"/>
</svg>
