<svg width="248" height="91" viewBox="0 0 248 91" fill="none" xmlns="http://www.w3.org/2000/svg">
<path d="M246.989 0.898179C246.933 0.627823 246.668 0.454243 246.398 0.510477C246.128 0.566711 245.954 0.831465 246.01 1.10182L246.989 0.898179ZM178 54L178.058 53.5034L178 54ZM74 38.5L73.8652 38.0185L74 38.5ZM32.5 80L32.6334 80.4819L32.5 80ZM0.604109 86.6946C0.43544 86.9132 0.475954 87.2272 0.694598 87.3959L4.25762 90.1445C4.47626 90.3132 4.79024 90.2727 4.95891 90.054C5.12758 89.8354 5.08707 89.5214 4.86842 89.3527L1.70129 86.9095L4.14451 83.7424C4.31318 83.5237 4.27266 83.2098 4.05402 83.0411C3.83537 82.8724 3.52139 82.9129 3.35272 83.1316L0.604109 86.6946ZM5.08228 86.9999C5.35654 86.9677 5.55276 86.7192 5.52056 86.445C5.48835 86.1707 5.23992 85.9745 4.96566 86.0067L5.08228 86.9999ZM12.903 84.9168C12.6338 84.9787 12.4658 85.2469 12.5276 85.5161C12.5894 85.7852 12.8577 85.9533 13.1268 85.8915L12.903 84.9168ZM20.9411 83.7601C21.2067 83.6848 21.3611 83.4084 21.2858 83.1427C21.2105 82.8771 20.9341 82.7227 20.6684 82.798L20.9411 83.7601ZM28.4511 80.6069C28.1851 80.6812 28.0297 80.957 28.104 81.2229C28.1782 81.4889 28.454 81.6443 28.72 81.57L28.4511 80.6069ZM37.6918 78.7949C37.9481 78.6921 38.0724 78.4009 37.9695 78.1446C37.8666 77.8884 37.5755 77.7641 37.3192 77.867L37.6918 78.7949ZM45.8656 72.3148C45.6809 72.52 45.6975 72.8362 45.9027 73.0209C46.108 73.2056 46.4241 73.189 46.6089 72.9838L45.8656 72.3148ZM51.0937 63.3325C51.1538 63.0629 50.984 62.7957 50.7145 62.7356C50.445 62.6755 50.1777 62.8453 50.1177 63.1148L51.0937 63.3325ZM52.7452 52.8596C52.6382 53.1141 52.7578 53.4073 53.0124 53.5143C53.267 53.6213 53.5601 53.5017 53.6671 53.2471L52.7452 52.8596ZM59.9597 45.3316C60.1808 45.1661 60.2259 44.8528 60.0604 44.6317C59.895 44.4106 59.5816 44.3655 59.3605 44.531L59.9597 45.3316ZM68.7837 39.6488C68.5245 39.7442 68.3917 40.0316 68.4871 40.2907C68.5824 40.5499 68.8698 40.6827 69.129 40.5873L68.7837 39.6488ZM79.351 37.5714C79.6183 37.5021 79.7788 37.2292 79.7094 36.9619C79.6401 36.6946 79.3672 36.5341 79.0999 36.6035L79.351 37.5714ZM89.6078 34.2253C89.3361 34.2748 89.156 34.5352 89.2056 34.8069C89.2551 35.0785 89.5155 35.2586 89.7871 35.2091L89.6078 34.2253ZM100.383 34.1884C100.659 34.1953 100.889 33.9771 100.896 33.701C100.903 33.425 100.684 33.1956 100.408 33.1887L100.383 34.1884ZM111.022 35.4965C110.766 35.3924 110.474 35.5154 110.37 35.7712C110.266 36.027 110.389 36.3187 110.645 36.4227L111.022 35.4965ZM120.405 40.8756C120.657 40.9882 120.953 40.875 121.065 40.6228C121.178 40.3707 121.065 40.075 120.813 39.9625L120.405 40.8756ZM130.781 43.896C130.52 43.8063 130.235 43.9453 130.146 44.2065C130.056 44.4677 130.195 44.7521 130.456 44.8418L130.781 43.896ZM140.767 47.9336C141.034 48.0034 141.307 47.8435 141.377 47.5763C141.447 47.3091 141.287 47.0359 141.02 46.9661L140.767 47.9336ZM151.493 49.383C151.222 49.328 150.958 49.5027 150.903 49.7733C150.848 50.0439 151.023 50.3079 151.294 50.3629L151.493 49.383ZM161.873 52.2838C162.145 52.3278 162.402 52.1426 162.446 51.87C162.49 51.5974 162.305 51.3407 162.032 51.2966L161.873 52.2838ZM172.665 52.8394C172.391 52.8039 172.14 52.997 172.104 53.2709C172.069 53.5447 172.262 53.7955 172.536 53.8311L172.665 52.8394ZM183.169 55.016C183.444 55.0385 183.685 54.8336 183.708 54.5583C183.73 54.2831 183.525 54.0418 183.25 54.0193L183.169 55.016ZM193.637 54.4519C193.361 54.4524 193.138 54.6766 193.138 54.9527C193.139 55.2289 193.363 55.4524 193.639 55.4519L193.637 54.4519ZM204.09 54.8978C204.364 54.8677 204.562 54.6208 204.532 54.3463C204.502 54.0718 204.255 53.8736 203.981 53.9037L204.09 54.8978ZM214.181 52.0755C213.914 52.1445 213.753 52.4172 213.822 52.6846C213.891 52.9519 214.164 53.1128 214.431 53.0438L214.181 52.0755ZM224.317 49.5123C224.566 49.3941 224.673 49.0959 224.555 48.8464C224.436 48.5968 224.138 48.4903 223.889 48.6085L224.317 49.5123ZM232.61 43.1489C232.396 43.3234 232.364 43.6384 232.539 43.8524C232.713 44.0663 233.028 44.0983 233.242 43.9238L232.61 43.1489ZM240.423 36.2286C240.582 36.0028 240.528 35.6909 240.302 35.532C240.076 35.3731 239.764 35.4274 239.605 35.6532L240.423 36.2286ZM244.332 26.5341C244.238 26.7937 244.372 27.0805 244.632 27.1746C244.891 27.2687 245.178 27.1346 245.272 26.875L244.332 26.5341ZM247.66 16.625C247.692 16.3507 247.496 16.1025 247.221 16.0706C246.947 16.0388 246.699 16.2353 246.667 16.5096L247.66 16.625ZM246.772 6.19405C246.798 6.46897 247.042 6.67078 247.317 6.6448C247.592 6.61883 247.794 6.37491 247.768 6.09999L246.772 6.19405ZM1.06399 87.4959C2.64846 87.2914 3.96591 87.131 5.08228 86.9999L4.96566 86.0067C3.84575 86.1382 2.52451 86.2991 0.936014 86.5041L1.06399 87.4959ZM13.1268 85.8915C14.7385 85.5213 16.8543 84.9181 20.9411 83.7601L20.6684 82.798C16.5669 83.9602 14.4833 84.5539 12.903 84.9168L13.1268 85.8915ZM28.72 81.57C29.9256 81.2334 31.2268 80.8714 32.6334 80.4819L32.3666 79.5181C30.9592 79.9079 29.6573 80.2701 28.4511 80.6069L28.72 81.57ZM32.6334 80.4819C34.5102 79.9621 36.1886 79.3985 37.6918 78.7949L37.3192 77.867C35.8549 78.4549 34.2122 79.007 32.3666 79.5181L32.6334 80.4819ZM46.6089 72.9838C49.2774 70.019 50.3434 66.6973 51.0937 63.3325L50.1177 63.1148C49.3804 66.4215 48.3618 69.5414 45.8656 72.3148L46.6089 72.9838ZM53.6671 53.2471C54.8318 50.4765 56.6706 47.7931 59.9597 45.3316L59.3605 44.531C55.9195 47.1061 53.9741 49.9363 52.7452 52.8596L53.6671 53.2471ZM69.129 40.5873C70.6493 40.0279 72.3129 39.4916 74.1348 38.9815L73.8652 38.0185C72.0204 38.5351 70.3313 39.0794 68.7837 39.6488L69.129 40.5873ZM74.1348 38.9815C75.9763 38.4659 77.7118 37.9966 79.351 37.5714L79.0999 36.6035C77.4538 37.0305 75.712 37.5014 73.8652 38.0185L74.1348 38.9815ZM89.7871 35.2091C94.1082 34.4212 97.5006 34.1163 100.383 34.1884L100.408 33.1887C97.4364 33.1144 93.9722 33.4295 89.6078 34.2253L89.7871 35.2091ZM110.645 36.4227C113.526 37.5948 116.47 39.1195 120.405 40.8756L120.813 39.9625C116.961 38.2434 113.909 36.671 111.022 35.4965L110.645 36.4227ZM130.456 44.8418C133.44 45.8664 136.838 46.9064 140.767 47.9336L141.02 46.9661C137.114 45.9451 133.741 44.9123 130.781 43.896L130.456 44.8418ZM151.294 50.3629C154.53 51.0218 158.045 51.6648 161.873 52.2838L162.032 51.2966C158.217 50.6796 154.716 50.039 151.493 49.383L151.294 50.3629ZM172.536 53.8311C174.283 54.0581 176.084 54.2801 177.942 54.4966L178.058 53.5034C176.204 53.2873 174.407 53.0658 172.665 52.8394L172.536 53.8311ZM177.942 54.4966C179.727 54.7047 181.469 54.8773 183.169 55.016L183.25 54.0193C181.562 53.8816 179.831 53.7101 178.058 53.5034L177.942 54.4966ZM193.639 55.4519C197.354 55.446 200.833 55.2549 204.09 54.8978L203.981 53.9037C200.763 54.2566 197.319 54.446 193.637 54.4519L193.639 55.4519ZM214.431 53.0438C218.078 52.1031 221.363 50.9113 224.317 49.5123L223.889 48.6085C220.996 49.9787 217.771 51.1496 214.181 52.0755L214.431 53.0438ZM233.242 43.9238C236.113 41.5822 238.484 38.9845 240.423 36.2286L239.605 35.6532C237.718 38.3363 235.408 40.8664 232.61 43.1489L233.242 43.9238ZM245.272 26.875C246.505 23.4754 247.267 20.0104 247.66 16.625L246.667 16.5096C246.282 19.8261 245.535 23.2147 244.332 26.5341L245.272 26.875ZM247.768 6.09999C247.595 4.27322 247.329 2.529 246.989 0.898179L246.01 1.10182C246.342 2.69599 246.603 4.40361 246.772 6.19405L247.768 6.09999Z" fill="#3F4145"/>
</svg>
