<svg width="253" height="47" viewBox="0 0 253 47" fill="none" xmlns="http://www.w3.org/2000/svg">
<path d="M0.814901 0.111622C0.600406 -0.0622929 0.285537 -0.0293962 0.111622 0.185099C-0.0622929 0.399594 -0.0293962 0.714463 0.185099 0.888378L0.814901 0.111622ZM61 25.5L60.8842 25.9864L61 25.5ZM211.5 43L211.671 43.4699L211.5 43ZM250.951 13.7843C250.832 13.5352 250.533 13.4298 250.284 13.5489L246.225 15.4905C245.976 15.6096 245.87 15.9082 245.989 16.1573C246.108 16.4064 246.407 16.5118 246.656 16.3926L250.265 14.6668L251.99 18.2753C252.11 18.5244 252.408 18.6298 252.657 18.5107C252.906 18.3915 253.012 18.093 252.893 17.8439L250.951 13.7843ZM4.70782 4.07354C4.9408 4.22178 5.24984 4.15309 5.39808 3.92011C5.54632 3.68713 5.47763 3.37809 5.24465 3.22985L4.70782 4.07354ZM14.7655 8.58693C14.5191 8.46224 14.2183 8.56089 14.0936 8.80728C13.9689 9.05366 14.0675 9.35448 14.3139 9.47917L14.7655 8.58693ZM24.3058 14.1146C24.5598 14.2228 24.8535 14.1047 24.9618 13.8507C25.07 13.5966 24.9519 13.3029 24.6978 13.1947L24.3058 14.1146ZM34.8772 17.2026C34.6177 17.1083 34.3308 17.2422 34.2365 17.5017C34.1422 17.7613 34.2761 18.0481 34.5357 18.1424L34.8772 17.2026ZM44.9635 21.6431C45.2273 21.7247 45.5073 21.577 45.5889 21.3132C45.6705 21.0494 45.5228 20.7694 45.259 20.6878L44.9635 21.6431ZM55.7948 23.6867C55.5276 23.617 55.2545 23.7771 55.1848 24.0443C55.1151 24.3115 55.2752 24.5846 55.5424 24.6543L55.7948 23.6867ZM65.6726 27.1136C65.9416 27.176 66.2102 27.0086 66.2727 26.7396C66.3351 26.4706 66.1677 26.2019 65.8987 26.1395L65.6726 27.1136ZM75.3913 28.2292C75.1206 28.1747 74.857 28.3501 74.8026 28.6208C74.7481 28.8915 74.9235 29.1551 75.1942 29.2096L75.3913 28.2292ZM84.9557 30.4197C85.2313 30.4024 85.4407 30.165 85.4234 29.8894C85.4061 29.6138 85.1686 29.4044 84.893 29.4217L84.9557 30.4197ZM94.1149 26.6887C93.845 26.7468 93.6732 27.0127 93.7313 27.2827C93.7893 27.5527 94.0553 27.7244 94.3252 27.6664L94.1149 26.6887ZM103.904 26.436C104.18 26.4164 104.387 26.1772 104.368 25.9017C104.348 25.6263 104.109 25.4189 103.833 25.4386L103.904 26.436ZM113.587 25.0397C113.311 25.0443 113.091 25.2719 113.095 25.548C113.1 25.8241 113.327 26.0442 113.604 26.0395L113.587 25.0397ZM123.32 26.1062C123.596 26.1185 123.83 25.9048 123.842 25.629C123.854 25.3531 123.64 25.1195 123.365 25.1072L123.32 26.1062ZM133.044 25.9991C132.771 25.9604 132.518 26.1507 132.479 26.4241C132.44 26.6975 132.631 26.9506 132.904 26.9892L133.044 25.9991ZM142.336 28.8092C142.604 28.875 142.875 28.7109 142.941 28.4427C143.006 28.1745 142.842 27.9038 142.574 27.838L142.336 28.8092ZM151.881 30.5955C151.62 30.5052 151.335 30.6436 151.245 30.9046C151.154 31.1655 151.293 31.4503 151.554 31.5405L151.881 30.5955ZM160.538 35.0203C160.792 35.1279 161.086 35.0089 161.193 34.7545C161.301 34.5002 161.182 34.2068 160.927 34.0993L160.538 35.0203ZM169.783 37.9955C169.531 37.8832 169.235 37.9967 169.123 38.249C169.011 38.5013 169.124 38.7968 169.377 38.9091L169.783 37.9955ZM178.314 42.6621C178.573 42.7597 178.861 42.6294 178.959 42.3711C179.057 42.1128 178.926 41.8243 178.668 41.7266L178.314 42.6621ZM187.839 44.4817C187.569 44.4254 187.304 44.599 187.247 44.8693C187.191 45.1397 187.365 45.4044 187.635 45.4607L187.839 44.4817ZM197.357 46.3546C197.633 46.3467 197.851 46.1166 197.843 45.8405C197.835 45.5645 197.605 45.3471 197.329 45.355L197.357 46.3546ZM206.743 43.968C206.476 44.0379 206.316 44.3112 206.386 44.5783C206.456 44.8455 206.73 45.0053 206.997 44.9354L206.743 43.968ZM217.494 41.1841C217.748 41.0765 217.867 40.7831 217.759 40.5288C217.652 40.2745 217.358 40.1556 217.104 40.2632L217.494 41.1841ZM228.191 34.7881C227.951 34.9258 227.869 35.2314 228.006 35.4708C228.144 35.7102 228.45 35.7926 228.689 35.6549L228.191 34.7881ZM239.032 28.6114C239.247 28.4373 239.279 28.1225 239.105 27.9081C238.931 27.6937 238.616 27.661 238.402 27.8351L239.032 28.6114ZM247.021 19.0773C246.856 19.2988 246.902 19.612 247.123 19.7769C247.345 19.9418 247.658 19.8959 247.823 19.6744L247.021 19.0773ZM0.185099 0.888378C1.26661 1.76528 2.7782 2.84575 4.70782 4.07354L5.24465 3.22985C3.3368 2.01591 1.85844 0.957731 0.814901 0.111622L0.185099 0.888378ZM14.3139 9.47917C17.2541 10.9672 20.5874 12.5297 24.3058 14.1146L24.6978 13.1947C20.9992 11.6182 17.6857 10.0648 14.7655 8.58693L14.3139 9.47917ZM34.5357 18.1424C37.8008 19.3289 41.2778 20.5031 44.9635 21.6431L45.259 20.6878C41.5889 19.5525 38.1272 18.3835 34.8772 17.2026L34.5357 18.1424ZM55.5424 24.6543C57.2853 25.1089 59.0659 25.5535 60.8842 25.9864L61.1158 25.0136C59.3045 24.5823 57.5308 24.1395 55.7948 23.6867L55.5424 24.6543ZM60.8842 25.9864C62.5991 26.3947 64.1918 26.7698 65.6726 27.1136L65.8987 26.1395C64.4201 25.7962 62.8293 25.4216 61.1158 25.0136L60.8842 25.9864ZM75.1942 29.2096C80.2483 30.2258 83.0187 30.5413 84.9557 30.4197L84.893 29.4217C83.1001 29.5342 80.4445 29.2452 75.3913 28.2292L75.1942 29.2096ZM94.3252 27.6664C96.5422 27.1895 99.5667 26.7455 103.904 26.436L103.833 25.4386C99.4623 25.7505 96.3893 26.1995 94.1149 26.6887L94.3252 27.6664ZM113.604 26.0395C115.133 26.0137 116.763 26 118.5 26V25C116.757 25 115.122 25.0137 113.587 25.0397L113.604 26.0395ZM118.5 26C120.148 26 121.754 26.0364 123.32 26.1062L123.365 25.1072C121.784 25.0368 120.163 25 118.5 25V26ZM132.904 26.9892C136.231 27.4601 139.365 28.0803 142.336 28.8092L142.574 27.838C139.572 27.1016 136.406 26.4748 133.044 25.9991L132.904 26.9892ZM151.554 31.5405C154.71 32.6323 157.687 33.8149 160.538 35.0203L160.927 34.0993C158.063 32.888 155.064 31.6966 151.881 30.5955L151.554 31.5405ZM169.377 38.9091C172.418 40.2626 175.373 41.5503 178.314 42.6621L178.668 41.7266C175.756 40.6258 172.823 39.3482 169.783 37.9955L169.377 38.9091ZM187.635 45.4607C190.768 46.1125 193.979 46.4512 197.357 46.3546L197.329 45.355C194.037 45.4491 190.904 45.1195 187.839 44.4817L187.635 45.4607ZM206.997 44.9354C208.513 44.5382 210.069 44.0522 211.671 43.4699L211.329 42.5301C209.755 43.1024 208.229 43.579 206.743 43.968L206.997 44.9354ZM211.671 43.4699C213.704 42.7307 215.644 41.9669 217.494 41.1841L217.104 40.2632C215.27 41.0392 213.346 41.7967 211.329 42.5301L211.671 43.4699ZM228.689 35.6549C232.749 33.3193 236.174 30.9322 239.032 28.6114L238.402 27.8351C235.587 30.1211 232.206 32.4781 228.191 34.7881L228.689 35.6549ZM247.823 19.6744C249.444 17.497 250.465 15.6025 250.971 14.1664L250.029 13.8336C249.565 15.1476 248.602 16.9532 247.021 19.0773L247.823 19.6744Z" fill="white"/>
</svg>
