<svg width="300" height="25" viewBox="0 0 300 25" fill="none" xmlns="http://www.w3.org/2000/svg">
<path d="M299.017 0.867805C299.088 0.600979 299.362 0.442329 299.629 0.51345C299.896 0.584571 300.054 0.858532 299.983 1.12536L299.017 0.867805ZM233 18.4966L232.826 18.0279L233 18.4966ZM77.5002 4.5L77.631 4.01743L77.5002 4.5ZM0.988556 21.999C0.712463 21.9926 0.493896 21.7636 0.500305 21.4875L0.605072 16.9887C0.611511 16.7127 0.840515 16.4941 1.11658 16.5005C1.39264 16.507 1.61124 16.736 1.6048 17.012L1.51169 21.0109L5.51059 21.1041C5.78668 21.1105 6.00525 21.3395 5.99884 21.6156C5.9924 21.8916 5.7634 22.1102 5.48734 22.1038L0.988556 21.999ZM295.286 4.93368C295.029 5.03651 294.738 4.9121 294.635 4.65582C294.533 4.39953 294.657 4.10842 294.913 4.00559L295.286 4.93368ZM283.803 6.91999C284.074 6.86673 284.336 7.04321 284.39 7.31416C284.443 7.58512 284.266 7.84795 283.995 7.90121L283.803 6.91999ZM272.565 9.93528C272.293 9.98136 272.035 9.79801 271.989 9.52574C271.943 9.25347 272.126 8.99539 272.398 8.9493L272.565 9.93528ZM260.974 10.9321C261.246 10.8825 261.507 11.0624 261.556 11.3341C261.606 11.6057 261.426 11.8662 261.154 11.9158L260.974 10.9321ZM249.81 14.2016C249.54 14.2623 249.273 14.0931 249.212 13.8238C249.151 13.5544 249.32 13.2868 249.59 13.2261L249.81 14.2016ZM238.341 16.1685C238.605 16.0875 238.884 16.236 238.965 16.5C239.046 16.764 238.898 17.0436 238.634 17.1246L238.341 16.1685ZM228.458 20.4904C228.192 20.5648 227.916 20.4095 227.842 20.1436C227.767 19.8777 227.923 19.6018 228.189 19.5274L228.458 20.4904ZM218.607 21.5572C218.88 21.515 219.135 21.7021 219.177 21.975C219.219 22.2479 219.032 22.5033 218.759 22.5455L218.607 21.5572ZM208.912 23.634C208.637 23.6538 208.398 23.4465 208.378 23.1711C208.358 22.8957 208.565 22.6563 208.841 22.6365L208.912 23.634ZM199.011 23.0373C199.287 23.0338 199.514 23.2548 199.517 23.531C199.521 23.8071 199.3 24.0337 199.024 24.0372L199.011 23.0373ZM189.132 23.9288C188.856 23.9198 188.64 23.6888 188.649 23.4128C188.658 23.1368 188.889 22.9204 189.165 22.9294L189.132 23.9288ZM179.323 22.4236C179.599 22.4426 179.807 22.6813 179.788 22.9568C179.769 23.2323 179.53 23.4402 179.255 23.4212L179.323 22.4236ZM169.408 22.5918C169.133 22.5647 168.932 22.3199 168.96 22.0451C168.987 21.7703 169.231 21.5695 169.506 21.5967L169.408 22.5918ZM159.714 20.5025C159.988 20.5365 160.182 20.7862 160.148 21.0602C160.114 21.3343 159.864 21.5289 159.59 21.4949L159.714 20.5025ZM149.8 20.1697C149.526 20.1297 149.337 19.8759 149.377 19.6026C149.417 19.3294 149.671 19.1402 149.944 19.1802L149.8 20.1697ZM140.208 17.6606C140.48 17.7058 140.665 17.9632 140.62 18.2356C140.574 18.5081 140.317 18.6923 140.045 18.6472L140.208 17.6606ZM130.313 16.948C130.041 16.8982 129.861 16.6376 129.911 16.366C129.961 16.0944 130.221 15.9146 130.493 15.9644L130.313 16.948ZM120.804 14.1087C121.075 14.1627 121.25 14.4261 121.196 14.6969C121.142 14.9677 120.879 15.1434 120.608 15.0894L120.804 14.1087ZM110.935 13.0846C110.665 13.0266 110.493 12.7607 110.551 12.4907C110.609 12.2207 110.875 12.0489 111.145 12.1069L110.935 13.0846ZM101.517 9.96688C101.786 10.0287 101.955 10.297 101.893 10.5661C101.831 10.8352 101.563 11.0033 101.294 10.9415L101.517 9.96688ZM91.6937 8.66535C91.4255 8.59973 91.2613 8.32908 91.3269 8.06085C91.3925 7.79262 91.6631 7.62837 91.9314 7.694L91.6937 8.66535ZM82.3562 5.27442C82.6234 5.34421 82.7834 5.61738 82.7136 5.88455C82.6438 6.15173 82.3706 6.31175 82.1035 6.24196L82.3562 5.27442ZM72.5514 4.22175C72.2761 4.20011 72.0705 3.9594 72.0921 3.6841C72.1138 3.40881 72.3545 3.20318 72.6298 3.22483L72.5514 4.22175ZM62.5923 3.26347C62.8679 3.24578 63.1056 3.45485 63.1233 3.73042C63.141 4.006 62.9319 4.24373 62.6564 4.26142L62.5923 3.26347ZM52.7688 5.28139C52.4952 5.31888 52.243 5.12749 52.2055 4.8539C52.168 4.58032 52.3594 4.32814 52.633 4.29065L52.7688 5.28139ZM42.7652 5.91815C43.0364 5.86623 43.2984 6.044 43.3503 6.31522C43.4022 6.58644 43.2245 6.84839 42.9532 6.90031L42.7652 5.91815ZM33.227 9.00896C32.9586 9.07406 32.6883 8.90929 32.6232 8.64093C32.5581 8.37257 32.7228 8.10225 32.9912 8.03715L33.227 9.00896ZM23.3393 10.6508C23.6037 10.5711 23.8826 10.7208 23.9624 10.9852C24.0421 11.2496 23.8924 11.5285 23.628 11.6083L23.3393 10.6508ZM14.2176 14.8175C13.9602 14.9176 13.6704 14.79 13.5704 14.5327C13.4704 14.2753 13.5979 13.9855 13.8553 13.8855L14.2176 14.8175ZM4.77197 18.1448C5.0098 18.0044 5.31635 18.0835 5.4567 18.3213C5.59705 18.5591 5.51801 18.8657 5.28021 19.006L4.77197 18.1448ZM299.983 1.12536C299.764 1.94659 299.193 2.65144 298.397 3.26468C297.601 3.87865 296.544 4.42863 295.286 4.93368L294.913 4.00559C296.128 3.51811 297.092 3.00861 297.787 2.4727C298.483 1.93608 298.875 1.40067 299.017 0.867805L299.983 1.12536ZM283.995 7.90121C280.53 8.58233 276.66 9.24222 272.565 9.93528L272.398 8.9493C276.495 8.25588 280.353 7.59814 283.803 6.91999L283.995 7.90121ZM261.154 11.9158C257.389 12.6042 253.57 13.3543 249.81 14.2016L249.59 13.2261C253.368 12.3748 257.201 11.622 260.974 10.9321L261.154 11.9158ZM238.634 17.1246C236.759 17.6991 234.934 18.311 233.174 18.9652L232.826 18.0279C234.606 17.366 236.45 16.748 238.341 16.1685L238.634 17.1246ZM233.174 18.9652C231.669 19.5248 230.095 20.0323 228.458 20.4904L228.189 19.5274C229.802 19.076 231.349 18.577 232.826 18.0279L233.174 18.9652ZM218.759 22.5455C215.619 23.0301 212.327 23.3885 208.912 23.634L208.841 22.6365C212.232 22.3928 215.497 22.0372 218.607 21.5572L218.759 22.5455ZM199.024 24.0372C195.797 24.0779 192.493 24.0387 189.132 23.9288L189.165 22.9294C192.512 23.0388 195.801 23.0778 199.011 23.0373L199.024 24.0372ZM179.255 23.4212C176 23.1971 172.712 22.9181 169.408 22.5918L169.506 21.5967C172.801 21.922 176.079 22.2002 179.323 22.4236L179.255 23.4212ZM159.59 21.4949C156.321 21.0891 153.052 20.6449 149.8 20.1697L149.944 19.1802C153.19 19.6544 156.451 20.0976 159.714 20.5025L159.59 21.4949ZM140.045 18.6472C136.76 18.103 133.51 17.534 130.313 16.948L130.493 15.9644C133.685 16.5494 136.929 17.1175 140.208 17.6606L140.045 18.6472ZM120.608 15.0894C117.294 14.428 114.062 13.7564 110.935 13.0846L111.145 12.1069C114.268 12.7778 117.495 13.4484 120.804 14.1087L120.608 15.0894ZM101.294 10.9415C97.9033 10.1629 94.6912 9.39869 91.6937 8.66535L91.9314 7.694C94.9245 8.42626 98.1319 9.18933 101.517 9.96688L101.294 10.9415ZM82.1035 6.24196C80.3961 5.79597 78.8139 5.37432 77.3693 4.98257L77.631 4.01743C79.0726 4.40836 80.6517 4.82921 82.3562 5.27442L82.1035 6.24196ZM77.3693 4.98257C76.0302 4.61942 74.409 4.36778 72.5514 4.22175L72.6298 3.22483C74.5266 3.37394 76.2134 3.63297 77.631 4.01743L77.3693 4.98257ZM62.6564 4.26142C59.5597 4.46015 56.2277 4.80741 52.7688 5.28139L52.633 4.29065C56.1118 3.81396 59.468 3.46398 62.5923 3.26347L62.6564 4.26142ZM42.9532 6.90031C39.7041 7.52228 36.4353 8.23064 33.227 9.00896L32.9912 8.03715C36.2155 7.25495 39.5002 6.54315 42.7652 5.91815L42.9532 6.90031ZM23.628 11.6083C20.2728 12.6201 17.0988 13.6976 14.2176 14.8175L13.8553 13.8855C16.7649 12.7545 19.9639 11.6688 23.3393 10.6508L23.628 11.6083ZM5.28021 19.006C3.65945 19.9624 2.33218 20.919 1.3454 21.8609L0.654968 21.1375C1.71533 20.1254 3.11157 19.1246 4.77197 18.1448L5.28021 19.006Z" fill="white"/>
</svg>
