<svg width="203" height="72" viewBox="0 0 203 72" fill="none" xmlns="http://www.w3.org/2000/svg">
<path d="M1.5 0.5C1.5 0.223858 1.27614 0 1 0C0.723858 0 0.5 0.223858 0.5 0.5H1.5ZM61.5 70.5L61.5534 70.9971L61.5 70.5ZM162.5 33L162.672 33.4696L162.5 33ZM202.947 18.7236C203.071 18.4766 202.971 18.1763 202.724 18.0528L198.699 16.0403C198.452 15.9168 198.151 16.0169 198.028 16.2639C197.904 16.5109 198.004 16.8113 198.251 16.9348L201.829 18.7236L200.04 22.3013C199.917 22.5483 200.017 22.8486 200.264 22.9721C200.511 23.0956 200.811 22.9955 200.935 22.7485L202.947 18.7236ZM0.662256 5.81014C0.678633 6.0858 0.915373 6.29599 1.19103 6.27961C1.46669 6.26323 1.67687 6.02649 1.6605 5.75084L0.662256 5.81014ZM2.83098 16.2046C2.78639 15.9321 2.52932 15.7474 2.2568 15.7919C1.98428 15.8365 1.79951 16.0936 1.84411 16.3661L2.83098 16.2046ZM4.09462 26.752C4.16723 27.0184 4.44207 27.1755 4.7085 27.1029C4.97492 27.0303 5.13204 26.7554 5.05943 26.489L4.09462 26.752ZM8.40324 36.4558C8.29959 36.1999 8.00808 36.0764 7.75212 36.18C7.49617 36.2837 7.3727 36.5752 7.47635 36.8312L8.40324 36.4558ZM12.1486 46.3925C12.2881 46.6308 12.5944 46.711 12.8327 46.5715C13.071 46.432 13.1511 46.1257 13.0116 45.8874L12.1486 46.3925ZM19.0676 54.4315C18.8875 54.2221 18.5718 54.1984 18.3625 54.3785C18.1531 54.5586 18.1294 54.8742 18.3095 55.0836L19.0676 54.4315ZM26.0869 62.3806C26.3083 62.5457 26.6215 62.5001 26.7866 62.2787C26.9517 62.0574 26.9061 61.7441 26.6848 61.579L26.0869 62.3806ZM35.7303 66.7634C35.4758 66.6561 35.1826 66.7755 35.0753 67.03C34.9681 67.2844 35.0875 67.5777 35.3419 67.6849L35.7303 66.7634ZM45.5914 70.6423C45.8637 70.6884 46.1217 70.505 46.1678 70.2328C46.2139 69.9605 46.0305 69.7024 45.7582 69.6563L45.5914 70.6423ZM56.1946 70.3577C55.9185 70.3649 55.7006 70.5946 55.7078 70.8706C55.715 71.1467 55.9446 71.3646 56.2207 71.3574L56.1946 70.3577ZM66.9681 70.3572C67.2419 70.3218 67.4353 70.0711 67.3999 69.7972C67.3645 69.5234 67.1138 69.3301 66.84 69.3654L66.9681 70.3572ZM77.5691 67.7276C77.2972 67.7758 77.1158 68.0353 77.164 68.3072C77.2122 68.5791 77.4717 68.7604 77.7436 68.7122L77.5691 67.7276ZM88.4402 66.5285C88.7092 66.466 88.8766 66.1973 88.8141 65.9283C88.7516 65.6594 88.4829 65.492 88.2139 65.5545L88.4402 66.5285ZM98.7015 62.7958C98.4367 62.874 98.2854 63.1521 98.3636 63.4169C98.4417 63.6818 98.7198 63.8331 98.9847 63.7549L98.7015 62.7958ZM109.344 60.3374C109.604 60.2425 109.737 59.9553 109.642 59.696C109.547 59.4367 109.26 59.3034 109.001 59.3983L109.344 60.3374ZM119.051 55.3374C118.799 55.4492 118.685 55.7446 118.797 55.9971C118.909 56.2495 119.204 56.3635 119.456 56.2517L119.051 55.3374ZM129.279 51.5202C129.524 51.3928 129.619 51.091 129.492 50.8459C129.364 50.6009 129.062 50.5055 128.817 50.6329L129.279 51.5202ZM138.321 45.389C138.082 45.5273 138 45.8332 138.139 46.0722C138.277 46.3112 138.583 46.3928 138.822 46.2544L138.321 45.389ZM148.197 40.739C148.435 40.5997 148.516 40.2935 148.376 40.0551C148.237 39.8166 147.931 39.7363 147.692 39.8757L148.197 40.739ZM157.285 34.6714C157.036 34.7904 156.931 35.0889 157.05 35.3381C157.169 35.5872 157.467 35.6928 157.716 35.5738L157.285 34.6714ZM167.666 31.6436C167.925 31.5488 168.059 31.2617 167.964 31.0024C167.869 30.743 167.582 30.6096 167.323 30.7043L167.666 31.6436ZM177.318 27.0566C177.058 27.1512 176.924 27.4382 177.019 27.6976C177.114 27.9571 177.401 28.0907 177.66 27.9962L177.318 27.0566ZM187.654 24.36C187.914 24.2658 188.048 23.979 187.954 23.7194C187.859 23.4599 187.572 23.3258 187.313 23.4201L187.654 24.36ZM197.323 19.8008C197.063 19.8941 196.928 20.1805 197.022 20.4404C197.115 20.7003 197.401 20.8353 197.661 20.742L197.323 19.8008ZM0.5 0.5C0.5 2.17464 0.551863 3.95203 0.662256 5.81014L1.6605 5.75084C1.55123 3.91176 1.5 2.15416 1.5 0.5H0.5ZM1.84411 16.3661C2.3974 19.7473 3.13778 23.241 4.09462 26.752L5.05943 26.489C4.11235 23.0138 3.37909 19.5542 2.83098 16.2046L1.84411 16.3661ZM7.47635 36.8312C8.80435 40.1106 10.3533 43.3251 12.1486 46.3925L13.0116 45.8874C11.2433 42.8661 9.71518 39.6956 8.40324 36.4558L7.47635 36.8312ZM18.3095 55.0836C20.6216 57.7716 23.2056 60.2315 26.0869 62.3806L26.6848 61.579C23.8672 59.4774 21.3361 57.0688 19.0676 54.4315L18.3095 55.0836ZM35.3419 67.6849C38.4925 69.0125 41.9032 70.0182 45.5914 70.6423L45.7582 69.6563C42.145 69.0449 38.8087 68.0606 35.7303 66.7634L35.3419 67.6849ZM56.2207 71.3574C57.9486 71.3122 59.7257 71.1935 61.5534 70.9971L61.4466 70.0029C59.6448 70.1964 57.8946 70.3133 56.1946 70.3577L56.2207 71.3574ZM61.5534 70.9971C63.3953 70.7993 65.1998 70.5856 66.9681 70.3572L66.84 69.3654C65.0788 69.5929 63.2814 69.8057 61.4466 70.0029L61.5534 70.9971ZM77.7436 68.7122C81.4847 68.0491 85.0455 67.3174 88.4402 66.5285L88.2139 65.5545C84.8366 66.3393 81.293 67.0675 77.5691 67.7276L77.7436 68.7122ZM98.9847 63.7549C102.647 62.6736 106.093 61.5278 109.344 60.3374L109.001 59.3983C105.768 60.5815 102.344 61.7206 98.7015 62.7958L98.9847 63.7549ZM119.456 56.2517C122.967 54.6961 126.226 53.1065 129.279 51.5202L128.817 50.6329C125.781 52.2109 122.541 53.7912 119.051 55.3374L119.456 56.2517ZM138.822 46.2544C142.158 44.323 145.268 42.4506 148.197 40.739L147.692 39.8757C144.74 41.6008 141.663 43.4541 138.321 45.389L138.822 46.2544ZM157.716 35.5738C159.383 34.7782 161.027 34.0713 162.672 33.4696L162.328 32.5304C160.648 33.1451 158.974 33.865 157.285 34.6714L157.716 35.5738ZM162.672 33.4696C164.302 32.8731 165.974 32.2618 167.666 31.6436L167.323 30.7043C165.631 31.3226 163.959 31.9339 162.328 32.5304L162.672 33.4696ZM177.66 27.9962C181.147 26.7252 184.542 25.4901 187.654 24.36L187.313 23.4201C184.2 24.5503 180.805 25.7855 177.318 27.0566L177.66 27.9962ZM197.661 20.742C200.166 19.8423 201.934 19.2156 202.658 18.9743L202.342 18.0257C201.605 18.2714 199.824 18.9026 197.323 19.8008L197.661 20.742Z" fill="white"/>
</svg>
