<svg width="390" height="41" viewBox="0 0 390 41" fill="none" xmlns="http://www.w3.org/2000/svg">
<path d="M0.320372 39.5334C0.0626653 39.6326 -0.0658253 39.922 0.0333804 40.1797C0.132586 40.4374 0.421921 40.5659 0.679628 40.4667L0.320372 39.5334ZM181.5 1.00004L181.533 0.50113L181.5 1.00004ZM362.5 22.5L362.435 22.9957L362.5 22.5ZM386.82 40.4667C387.078 40.5658 387.368 40.4373 387.467 40.1795L389.082 35.9795C389.181 35.7217 389.053 35.4324 388.795 35.3333C388.537 35.2342 388.248 35.3628 388.149 35.6205L386.713 39.3539L382.979 37.9179C382.722 37.8188 382.432 37.9474 382.333 38.2051C382.234 38.4629 382.363 38.7522 382.62 38.8513L386.82 40.4667ZM5.4852 38.6475C5.74397 38.5511 5.87558 38.2632 5.77917 38.0044C5.68276 37.7457 5.39484 37.6141 5.13607 37.7105L5.4852 38.6475ZM14.8712 34.1827C14.6108 34.2746 14.4743 34.5602 14.5662 34.8206C14.6581 35.081 14.9437 35.2175 15.2041 35.1256L14.8712 34.1827ZM24.9841 31.7538C25.2458 31.6656 25.3865 31.382 25.2984 31.1203C25.2102 30.8586 24.9266 30.718 24.6649 30.8061L24.9841 31.7538ZM34.4998 27.5661C34.2369 27.6508 34.0925 27.9325 34.1772 28.1953C34.2619 28.4582 34.5436 28.6026 34.8064 28.5179L34.4998 27.5661ZM44.6735 25.4087C44.9374 25.3274 45.0854 25.0475 45.0041 24.7836C44.9228 24.5197 44.6429 24.3717 44.379 24.453L44.6735 25.4087ZM54.3046 21.4645C54.0397 21.5424 53.8881 21.8203 53.966 22.0852C54.0439 22.3502 54.3218 22.5018 54.5867 22.4239L54.3046 21.4645ZM64.5201 19.5733C64.7861 19.4989 64.9413 19.223 64.8669 18.9571C64.7925 18.6912 64.5166 18.5359 64.2507 18.6103L64.5201 19.5733ZM74.2421 15.8886C73.9752 15.9593 73.8161 16.233 73.8868 16.5C73.9575 16.7669 74.2312 16.926 74.4982 16.8553L74.2421 15.8886ZM84.5172 14.2795C84.7852 14.2127 84.9483 13.9414 84.8815 13.6735C84.8148 13.4055 84.5435 13.2424 84.2755 13.3091L84.5172 14.2795ZM94.3421 10.8858C94.0731 10.9482 93.9056 11.2169 93.9681 11.4859C94.0305 11.7549 94.2992 11.9223 94.5682 11.8599L94.3421 10.8858ZM104.66 9.6093C104.93 9.55161 105.102 9.28593 105.045 9.01588C104.987 8.74583 104.721 8.57367 104.451 8.63136L104.66 9.6093ZM114.602 6.56556C114.331 6.6179 114.154 6.88013 114.206 7.15127C114.259 7.42241 114.521 7.59978 114.792 7.54744L114.602 6.56556ZM124.963 5.69927C125.236 5.65302 125.419 5.39483 125.373 5.12259C125.326 4.85035 125.068 4.66715 124.796 4.7134L124.963 5.69927ZM135.026 3.10795C134.752 3.14714 134.563 3.4005 134.602 3.67385C134.641 3.94719 134.894 4.13702 135.168 4.09783L135.026 3.10795ZM145.425 2.7822C145.7 2.75138 145.897 2.50394 145.866 2.22952C145.836 1.95511 145.588 1.75763 145.314 1.78845L145.425 2.7822ZM155.634 0.815326C155.359 0.836008 155.152 1.076 155.173 1.35137C155.193 1.62674 155.433 1.8332 155.709 1.81252L155.634 0.815326ZM166.01 1.26627C166.286 1.25821 166.503 1.0279 166.495 0.75188C166.487 0.475855 166.257 0.258632 165.981 0.266698L166.01 1.26627ZM176.348 0.255185C176.072 0.247 175.842 0.464124 175.833 0.740145C175.825 1.01617 176.042 1.24656 176.318 1.25475L176.348 0.255185ZM186.508 1.84648C186.783 1.86621 187.022 1.65892 187.042 1.38349C187.062 1.10805 186.854 0.868767 186.579 0.849035L186.508 1.84648ZM196.683 1.62321C196.408 1.60082 196.166 1.80579 196.144 2.08102C196.122 2.35626 196.327 2.59753 196.602 2.61992L196.683 1.62321ZM206.694 3.48422C206.969 3.5089 207.212 3.30595 207.237 3.03091C207.262 2.75587 207.059 2.51291 206.784 2.48823L206.694 3.48422ZM216.872 3.43118C216.597 3.4045 216.352 3.60569 216.326 3.88054C216.299 4.15539 216.5 4.39983 216.775 4.4265L216.872 3.43118ZM226.853 5.4378C227.127 5.46623 227.373 5.26662 227.401 4.99194C227.43 4.71727 227.23 4.47155 226.956 4.44311L226.853 5.4378ZM237.032 5.51589C236.758 5.48588 236.511 5.6841 236.481 5.9586C236.451 6.23311 236.649 6.47997 236.924 6.50997L237.032 5.51589ZM246.988 7.63641C247.262 7.66782 247.51 7.47087 247.542 7.19652C247.573 6.92217 247.376 6.6743 247.102 6.6429L246.988 7.63641ZM257.167 7.81903C256.893 7.78636 256.645 7.98216 256.612 8.25637C256.579 8.53057 256.775 8.77934 257.049 8.81201L257.167 7.81903ZM267.102 10.0314C267.376 10.0652 267.626 9.87043 267.66 9.59636C267.693 9.3223 267.499 9.07271 267.225 9.0389L267.102 10.0314ZM277.282 10.2994C277.008 10.2645 276.757 10.4583 276.723 10.7323C276.688 11.0062 276.882 11.2565 277.156 11.2914L277.282 10.2994ZM287.193 12.5861C287.467 12.6219 287.718 12.4289 287.754 12.1551C287.789 11.8813 287.596 11.6303 287.323 11.5945L287.193 12.5861ZM297.378 12.9249C297.105 12.8883 296.853 13.0805 296.816 13.3542C296.78 13.6279 296.972 13.8794 297.246 13.9161L297.378 12.9249ZM307.278 15.2731C307.552 15.3105 307.804 15.119 307.841 14.8454C307.879 14.5718 307.687 14.3197 307.414 14.2823L307.278 15.2731ZM317.435 15.6638C317.161 15.6258 316.908 15.8167 316.87 16.0902C316.832 16.3637 317.023 16.6163 317.297 16.6543L317.435 15.6638ZM327.337 18.0602C327.61 18.0987 327.863 17.9083 327.901 17.6349C327.94 17.3614 327.75 17.1085 327.476 17.07L327.337 18.0602ZM337.499 18.4894C337.226 18.4505 336.973 18.6406 336.934 18.914C336.895 19.1874 337.085 19.4406 337.358 19.4794L337.499 18.4894ZM347.413 20.9094C347.686 20.9482 347.939 20.7581 347.978 20.4847C348.017 20.2113 347.827 19.9581 347.554 19.9193L347.413 20.9094ZM357.574 21.3284C357.301 21.2906 357.048 21.4817 357.011 21.7552C356.973 22.0288 357.164 22.2812 357.437 22.319L357.574 21.3284ZM366.282 23.6913C366.551 23.754 366.82 23.5869 366.882 23.318C366.945 23.0491 366.778 22.7802 366.509 22.7175L366.282 23.6913ZM374.047 25.4121C373.801 25.288 373.5 25.3874 373.376 25.6341C373.252 25.8808 373.351 26.1814 373.598 26.3055L374.047 25.4121ZM379.972 30.6957C380.175 30.8829 380.492 30.8701 380.679 30.6671C380.866 30.4642 380.853 30.1478 380.65 29.9606L379.972 30.6957ZM385.691 36.2031C385.552 35.965 385.245 35.8854 385.007 36.0253C384.769 36.1652 384.689 36.4717 384.829 36.7097L385.691 36.2031ZM0.679628 40.4667C2.19961 39.8815 3.80335 39.2742 5.4852 38.6475L5.13607 37.7105C3.45102 38.3383 1.8439 38.9469 0.320372 39.5334L0.679628 40.4667ZM15.2041 35.1256C18.2993 34.0329 21.5669 32.9049 24.9841 31.7538L24.6649 30.8061C21.2432 31.9588 17.971 33.0883 14.8712 34.1827L15.2041 35.1256ZM34.8064 28.5179C38.0032 27.4879 41.2973 26.4489 44.6735 25.4087L44.379 24.453C40.9987 25.4945 37.7006 26.5348 34.4998 27.5661L34.8064 28.5179ZM54.5867 22.4239C57.8439 21.466 61.159 20.5137 64.5201 19.5733L64.2507 18.6103C60.8852 19.5519 57.5659 20.5054 54.3046 21.4645L54.5867 22.4239ZM74.4982 16.8553C77.8097 15.9781 81.1529 15.1176 84.5172 14.2795L84.2755 13.3091C80.9062 14.1485 77.5582 15.0102 74.2421 15.8886L74.4982 16.8553ZM94.5682 11.8599C97.9253 11.0805 101.293 10.3285 104.66 9.6093L104.451 8.63136C101.078 9.35189 97.7046 10.1052 94.3421 10.8858L94.5682 11.8599ZM114.792 7.54744C118.197 6.89016 121.591 6.27222 124.963 5.69927L124.796 4.7134C121.416 5.28767 118.014 5.90696 114.602 6.56556L114.792 7.54744ZM135.168 4.09783C138.626 3.60196 142.05 3.16129 145.425 2.7822L145.314 1.78845C141.927 2.16875 138.494 2.61074 135.026 3.10795L135.168 4.09783ZM155.709 1.81252C159.218 1.54899 162.656 1.36427 166.01 1.26627L165.981 0.266698C162.611 0.365186 159.156 0.550762 155.634 0.815326L155.709 1.81252ZM176.318 1.25475C178.067 1.30659 179.784 1.38755 181.467 1.49895L181.533 0.50113C179.837 0.38888 178.108 0.307364 176.348 0.255185L176.318 1.25475ZM181.467 1.49895C183.136 1.60939 184.817 1.72533 186.508 1.84648L186.579 0.849035C184.886 0.727763 183.204 0.611699 181.533 0.50113L181.467 1.49895ZM196.602 2.61992C199.939 2.89138 203.306 3.18017 206.694 3.48422L206.784 2.48823C203.392 2.18394 200.023 1.89491 196.683 1.62321L196.602 2.61992ZM216.775 4.4265C220.125 4.75157 223.486 5.08931 226.853 5.4378L226.956 4.44311C223.587 4.09442 220.223 3.75646 216.872 3.43118L216.775 4.4265ZM236.924 6.50997C240.285 6.87731 243.642 7.25343 246.988 7.63641L247.102 6.6429C243.754 6.25973 240.395 5.88342 237.032 5.51589L236.924 6.50997ZM257.049 8.81201C260.424 9.21404 263.777 9.62117 267.102 10.0314L267.225 9.0389C263.898 8.62853 260.543 8.22123 257.167 7.81903L257.049 8.81201ZM277.156 11.2914C280.545 11.7226 283.894 12.155 287.193 12.5861L287.323 11.5945C284.023 11.1633 280.673 10.7308 277.282 10.2994L277.156 11.2914ZM297.246 13.9161C300.663 14.3735 304.011 14.8268 307.278 15.2731L307.414 14.2823C304.146 13.8359 300.797 13.3824 297.378 12.9249L297.246 13.9161ZM317.297 16.6543C320.768 17.1368 324.12 17.6068 327.337 18.0602L327.476 17.07C324.259 16.6165 320.906 16.1465 317.435 15.6638L317.297 16.6543ZM337.358 19.4794C340.957 19.9909 344.32 20.4702 347.413 20.9094L347.554 19.9193C344.46 19.4801 341.099 19.001 337.499 18.4894L337.358 19.4794ZM357.437 22.319C359.293 22.5754 360.964 22.8022 362.435 22.9957L362.565 22.0043C361.097 21.8111 359.428 21.5846 357.574 21.3284L357.437 22.319ZM362.435 22.9957C363.79 23.174 365.071 23.4088 366.282 23.6913L366.509 22.7175C365.266 22.4273 363.952 22.1868 362.565 22.0043L362.435 22.9957ZM373.598 26.3055C376.185 27.6069 378.281 29.1359 379.972 30.6957L380.65 29.9606C378.895 28.3417 376.723 26.7581 374.047 25.4121L373.598 26.3055ZM384.829 36.7097C385.857 38.4579 386.349 39.7658 386.543 40.2031L387.457 39.797C387.28 39.3996 386.756 38.0147 385.691 36.2031L384.829 36.7097Z" fill="white"/>
</svg>
