<svg width="150" height="137" viewBox="0 0 150 137" fill="none" xmlns="http://www.w3.org/2000/svg">
<path d="M77 0.5C76.7239 0.5 76.5 0.723858 76.5 1C76.5 1.27614 76.7239 1.5 77 1.5V0.5ZM148 58.5001L148.47 58.6699L148 58.5001ZM0.646449 132.646C0.451185 132.842 0.451184 133.158 0.646445 133.354L3.82841 136.536C4.02367 136.731 4.34025 136.731 4.53551 136.536C4.73078 136.34 4.73078 136.024 4.53552 135.828L1.70711 133L4.53555 130.172C4.73081 129.976 4.73081 129.66 4.53555 129.464C4.34029 129.269 4.02371 129.269 3.82845 129.464L0.646449 132.646ZM6.63189 132.981C6.90289 132.928 7.07959 132.665 7.02655 132.394C6.97351 132.123 6.71083 131.947 6.43983 132L6.63189 132.981ZM16.2506 127.533C16.0309 127.7 15.9883 128.014 16.1555 128.233C16.3227 128.453 16.6364 128.496 16.8561 128.329L16.2506 127.533ZM24.7853 120.426C24.9647 120.216 24.9401 119.9 24.7302 119.721C24.5203 119.541 24.2047 119.566 24.0252 119.776L24.7853 120.426ZM31.3365 111.371C31.1467 111.572 31.1555 111.888 31.356 112.078C31.5566 112.268 31.8731 112.259 32.0629 112.059L31.3365 111.371ZM40.3065 104.79C40.5317 104.631 40.5848 104.319 40.425 104.093C40.2653 103.868 39.9532 103.815 39.7279 103.975L40.3065 104.79ZM49.5662 98.606C49.3102 98.7096 49.1867 99.001 49.2903 99.257C49.3939 99.513 49.6854 99.6365 49.9413 99.5329L49.5662 98.606ZM60.4896 96.4556C60.7606 96.4027 60.9375 96.1402 60.8847 95.8691C60.8318 95.5981 60.5693 95.4212 60.2982 95.474L60.4896 96.4556ZM71.3982 94.1459C71.1225 94.1607 70.9109 94.3962 70.9257 94.672C70.9405 94.9477 71.176 95.1593 71.4518 95.1445L71.3982 94.1459ZM82.0171 95.1214C82.2929 95.1349 82.5275 94.9223 82.5411 94.6465C82.5546 94.3707 82.342 94.1361 82.0662 94.1226L82.0171 95.1214ZM92.1462 95.1655C91.8735 95.1216 91.617 95.3071 91.5731 95.5797C91.5292 95.8523 91.7147 96.1089 91.9873 96.1528L92.1462 95.1655ZM101.743 98.3178C102.009 98.3931 102.285 98.2389 102.361 97.9732C102.436 97.7075 102.282 97.4311 102.016 97.3557L101.743 98.3178ZM111.583 100.548C111.324 100.452 111.036 100.585 110.941 100.845C110.846 101.104 110.979 101.391 111.238 101.486L111.583 100.548ZM120.996 104.332C121.271 104.357 121.515 104.155 121.54 103.88C121.566 103.605 121.363 103.361 121.088 103.336L120.996 104.332ZM129.351 99.4861C129.174 99.6974 129.201 100.013 129.412 100.191C129.624 100.368 129.939 100.341 130.117 100.13L129.351 99.4861ZM135.412 91.4737C135.534 91.2261 135.432 90.9263 135.185 90.8041C134.937 90.682 134.637 90.7837 134.515 91.0313L135.412 91.4737ZM138.597 81.8728C138.492 82.1281 138.613 82.4204 138.869 82.5258C139.124 82.6311 139.416 82.5096 139.522 82.2543L138.597 81.8728ZM143.215 72.8978C143.313 72.6397 143.184 72.3508 142.926 72.2525C142.668 72.1542 142.379 72.2837 142.28 72.5418L143.215 72.8978ZM145.79 63.1186C145.695 63.378 145.829 63.6651 146.088 63.7599C146.347 63.8548 146.634 63.7214 146.729 63.4621L145.79 63.1186ZM148.938 53.6394C148.903 53.3654 148.653 53.1717 148.379 53.2065C148.105 53.2414 147.911 53.4918 147.946 53.7657L148.938 53.6394ZM144.45 44.9625C144.595 45.1979 144.902 45.2717 145.138 45.1273C145.373 44.9829 145.447 44.6751 145.303 44.4397L144.45 44.9625ZM139.388 36.5905C139.205 36.3833 138.889 36.3635 138.682 36.5461C138.475 36.7287 138.455 37.0447 138.638 37.2518L139.388 36.5905ZM131.838 30.3393C132.041 30.5266 132.357 30.5141 132.545 30.3112C132.732 30.1083 132.719 29.792 132.516 29.6046L131.838 30.3393ZM125.077 23.2593C124.861 23.0879 124.546 23.1246 124.375 23.3411C124.204 23.5577 124.24 23.8721 124.457 24.0435L125.077 23.2593ZM116.638 18.2755C116.866 18.432 117.177 18.3744 117.334 18.1469C117.49 17.9194 117.433 17.6081 117.205 17.4516L116.638 18.2755ZM108.97 12.1795C108.733 12.0385 108.426 12.1168 108.285 12.3543C108.144 12.5917 108.222 12.8985 108.46 13.0394L108.97 12.1795ZM99.9274 8.39626C100.175 8.51844 100.475 8.41674 100.597 8.16909C100.719 7.92145 100.617 7.62165 100.37 7.49947L99.9274 8.39626ZM91.3787 3.59954C91.1196 3.50404 90.8321 3.63666 90.7366 3.89576C90.6411 4.15486 90.7738 4.44232 91.0329 4.53783L91.3787 3.59954ZM81.7616 1.94464C82.0338 1.9916 82.2924 1.80906 82.3394 1.53694C82.3863 1.26481 82.2038 1.00616 81.9317 0.959205L81.7616 1.94464ZM0.999997 133.5C3.03553 133.5 4.90281 133.319 6.63189 132.981L6.43983 132C4.77867 132.325 2.97598 132.5 1 132.5L0.999997 133.5ZM16.8561 128.329C19.7591 126.12 22.2692 123.368 24.7853 120.426L24.0252 119.776C21.5155 122.711 19.0632 125.393 16.2506 127.533L16.8561 128.329ZM32.0629 112.059C34.4634 109.522 37.1337 107.041 40.3065 104.79L39.7279 103.975C36.4875 106.273 33.7681 108.802 31.3365 111.371L32.0629 112.059ZM49.9413 99.5329C53.043 98.2777 56.5283 97.2278 60.4896 96.4556L60.2982 95.474C56.2774 96.2579 52.7303 97.3255 49.5662 98.606L49.9413 99.5329ZM71.4518 95.1445C73.2248 95.0494 75.0726 95 77 95V94C75.0556 94 73.1898 94.0498 71.3982 94.1459L71.4518 95.1445ZM77 95C78.7384 95 80.4095 95.0424 82.0171 95.1214L82.0662 94.1226C80.4422 94.0428 78.7546 94 77 94V95ZM91.9873 96.1528C95.6218 96.7375 98.8498 97.4971 101.743 98.3178L102.016 97.3557C99.09 96.5258 95.8237 95.7571 92.1462 95.1655L91.9873 96.1528ZM111.238 101.486C115.069 102.892 118.218 104.075 120.996 104.332L121.088 103.336C118.471 103.094 115.465 101.972 111.583 100.548L111.238 101.486ZM130.117 100.13C131.805 98.1216 133.523 95.3023 135.412 91.4737L134.515 91.0313C132.642 94.8286 130.965 97.5666 129.351 99.4861L130.117 100.13ZM139.522 82.2543C140.671 79.4692 141.896 76.3607 143.215 72.8978L142.28 72.5418C140.963 75.9987 139.742 79.0984 138.597 81.8728L139.522 82.2543ZM146.729 63.4621C147.293 61.9198 147.873 60.323 148.47 58.6699L147.53 58.3302C146.933 59.9823 146.354 61.5778 145.79 63.1186L146.729 63.4621ZM148.47 58.6699C149.032 57.1152 149.165 55.4233 148.938 53.6394L147.946 53.7657C148.157 55.4218 148.028 56.9502 147.53 58.3302L148.47 58.6699ZM145.303 44.4397C143.736 41.8852 141.73 39.2462 139.388 36.5905L138.638 37.2518C140.951 39.8755 142.92 42.4683 144.45 44.9625L145.303 44.4397ZM132.516 29.6046C130.186 27.4527 127.689 25.3254 125.077 23.2593L124.457 24.0435C127.05 26.0951 129.528 28.2059 131.838 30.3393L132.516 29.6046ZM117.205 17.4516C114.503 15.5926 111.741 13.824 108.97 12.1795L108.46 13.0394C111.211 14.6723 113.954 16.4288 116.638 18.2755L117.205 17.4516ZM100.37 7.49947C97.3002 5.98498 94.2799 4.66893 91.3787 3.59954L91.0329 4.53783C93.8964 5.59334 96.8843 6.89487 99.9274 8.39626L100.37 7.49947ZM81.9317 0.959205C80.1922 0.659087 78.5404 0.5 77 0.5V1.5C78.4729 1.5 80.067 1.65226 81.7616 1.94464L81.9317 0.959205Z" fill="#3F4145"/>
</svg>
