<svg width="189" height="59" viewBox="0 0 189 59" fill="none" xmlns="http://www.w3.org/2000/svg">
<path d="M0.976217 0.500613C0.700388 0.513748 0.487431 0.748 0.500566 1.02383C0.513701 1.29966 0.747953 1.51262 1.02378 1.49948L0.976217 0.500613ZM54.5 4.00005L54.4389 4.4963L54.5 4.00005ZM162.5 36L162.698 35.5411L162.5 36ZM186.295 58.956C186.547 59.0693 186.843 58.957 186.956 58.7052L188.803 54.6015C188.916 54.3497 188.804 54.0537 188.552 53.9404C188.3 53.8271 188.004 53.9394 187.891 54.1912L186.249 57.8389L182.602 56.1974C182.35 56.0841 182.054 56.1964 181.94 56.4482C181.827 56.7 181.939 56.996 182.191 57.1093L186.295 58.956ZM1.02378 1.49948C2.15638 1.44555 3.64865 1.40375 5.46672 1.38551L5.45669 0.385556C3.62976 0.40389 2.1245 0.445933 0.976217 0.500613L1.02378 1.49948ZM14.389 1.46502C17.0811 1.53145 20.0661 1.63858 23.3066 1.79862L23.3559 0.79984C20.1073 0.639396 17.114 0.531954 14.4137 0.465326L14.389 1.46502ZM32.222 2.33752C35.059 2.53961 38.0305 2.77994 41.1191 3.06422L41.2107 2.06843C38.1151 1.7835 35.1367 1.54261 32.293 1.34005L32.222 2.33752ZM50.003 3.97346C51.4624 4.13789 52.9415 4.31201 54.4389 4.4963L54.5611 3.50379C53.0602 3.31907 51.5777 3.14456 50.115 2.97975L50.003 3.97346ZM54.4389 4.4963C56.0666 4.69663 57.6118 4.91575 59.0812 5.15194L59.2399 4.16461C57.7577 3.92637 56.2003 3.70554 54.5611 3.50379L54.4389 4.4963ZM68.1986 7.05823C71.5949 7.96119 74.4659 8.97746 76.9798 10.0627L77.3761 9.14463C74.8153 8.03909 71.8976 7.00693 68.4555 6.0918L68.1986 7.05823ZM85.1678 14.4376C86.5298 15.3005 87.8181 16.1718 89.1008 17.0396C90.3817 17.9061 91.6576 18.7693 92.9849 19.6082L93.5192 18.7629C92.2072 17.9337 90.9441 17.0792 89.6611 16.2113C88.3801 15.3447 87.0797 14.465 85.703 13.5929L85.1678 14.4376ZM101.374 23.9497C102.755 24.4981 104.24 25.011 105.861 25.4803L106.139 24.5197C104.548 24.0593 103.094 23.5568 101.743 23.0203L101.374 23.9497ZM105.861 25.4803C107.425 25.933 108.988 26.3316 110.55 26.6865L110.772 25.7113C109.227 25.3604 107.683 24.9665 106.139 24.5197L105.861 25.4803ZM120.06 28.3934C123.259 28.8435 126.452 29.1967 129.632 29.5406L129.739 28.5464C126.559 28.2025 123.38 27.8508 120.2 27.4032L120.06 28.3934ZM139.181 30.6387C142.346 31.0541 145.497 31.5488 148.634 32.2105L148.841 31.2321C145.67 30.5633 142.492 30.0647 139.311 29.6472L139.181 30.6387ZM157.85 34.7316C159.337 35.2462 160.821 35.8187 162.302 36.4589L162.698 35.5411C161.194 34.8904 159.686 34.3089 158.176 33.7866L157.85 34.7316ZM162.302 36.4589C163.611 37.0254 164.862 37.6302 166.056 38.2655L166.526 37.3828C165.309 36.735 164.034 36.1184 162.698 35.5411L162.302 36.4589ZM173.051 42.7688C175.433 44.6007 177.471 46.5147 179.187 48.3843L179.924 47.7082C178.171 45.7985 176.091 43.845 173.66 41.9761L173.051 42.7688ZM184.191 55.0058C185.057 56.4472 185.664 57.7048 186.033 58.6773L186.967 58.3227C186.573 57.2834 185.938 55.972 185.048 54.4908L184.191 55.0058Z" fill="#3F4145"/>
</svg>
