<svg width="217" height="197" viewBox="0 0 217 197" fill="none" xmlns="http://www.w3.org/2000/svg">
<path d="M60 17.5L59.7031 17.9023L60 17.5ZM166.549 196.717C166.669 196.966 166.968 197.07 167.217 196.951L171.271 194.998C171.52 194.879 171.625 194.58 171.505 194.331C171.385 194.082 171.086 193.978 170.838 194.097L167.234 195.833L165.498 192.229C165.379 191.98 165.08 191.875 164.831 191.995C164.582 192.115 164.478 192.414 164.597 192.662L166.549 196.717ZM0.487017 1.49983C1.99003 1.53887 3.73028 1.62535 5.65873 1.7679L5.73245 0.770621C3.78998 0.627031 2.03371 0.539668 0.512983 0.500169L0.487017 1.49983ZM15.9846 2.89333C19.2362 3.35508 22.6886 3.94447 26.2189 4.68259L26.4235 3.70375C22.8701 2.9608 19.3962 2.36777 16.1252 1.90326L15.9846 2.89333ZM36.2951 7.18044C39.6321 8.15008 42.9341 9.26654 46.1013 10.5467L46.476 9.61957C43.2729 8.32486 39.9383 7.1977 36.5741 6.22015L36.2951 7.18044ZM55.3981 15.0703C56.91 15.9606 58.3502 16.9037 59.7031 17.9023L60.2969 17.0977C58.9135 16.0766 57.444 15.1146 55.9055 14.2086L55.3981 15.0703ZM59.7031 17.9023C60.9299 18.8078 62.0828 19.7829 63.1691 20.8192L63.8594 20.0957C62.744 19.0316 61.559 18.0293 60.2969 17.0977L59.7031 17.9023ZM68.9904 27.7685C70.6777 30.2553 72.1589 32.9168 73.4911 35.6859L74.3923 35.2524C73.0434 32.4485 71.5383 29.7426 69.8179 27.207L68.9904 27.7685ZM77.046 44.1099C78.1242 46.9822 79.1108 49.8896 80.0626 52.7687L81.012 52.4549C80.059 49.5718 79.0675 46.6495 77.9823 43.7585L77.046 44.1099ZM82.9525 61.4999C83.9855 64.5245 85.0469 67.4332 86.2111 70.1312L87.1292 69.7351C85.9801 67.0717 84.9283 64.1909 83.8989 61.1767L82.9525 61.4999ZM90.6274 78.2939C91.5545 79.6076 92.5568 80.8044 93.6532 81.8602L94.3468 81.1398C93.3029 80.1346 92.341 78.9878 91.4444 77.7173L90.6274 78.2939ZM93.6532 81.8602C94.78 82.9452 95.968 83.9337 97.217 84.842L97.8051 84.0332C96.5915 83.1507 95.439 82.1916 94.3468 81.1398L93.6532 81.8602ZM105.274 89.3851C107.959 90.569 110.842 91.5961 113.919 92.5624L114.219 91.6083C111.163 90.6488 108.317 89.6342 105.678 88.4701L105.274 89.3851ZM122.744 95.1044C125.557 95.8708 128.498 96.6533 131.581 97.5078L131.848 96.5441C128.763 95.6891 125.812 94.9037 123.006 94.1395L122.744 95.1044ZM140.363 100.063C143.159 100.924 146.052 101.868 149.042 102.926L149.376 101.984C146.371 100.92 143.465 99.9719 140.658 99.1073L140.363 100.063ZM157.582 106.175C158.969 106.741 160.375 107.335 161.8 107.958L162.2 107.042C160.768 106.415 159.355 105.819 157.96 105.249L157.582 106.175ZM161.8 107.958C163.216 108.578 164.619 109.176 166.007 109.755L166.392 108.832C165.009 108.255 163.611 107.659 162.2 107.042L161.8 107.958ZM174.48 113.156C177.422 114.301 180.27 115.38 182.997 116.422L183.354 115.488C180.624 114.444 177.781 113.367 174.842 112.224L174.48 113.156ZM191.466 119.745C194.46 120.972 197.234 122.193 199.75 123.465L200.201 122.572C197.652 121.285 194.852 120.052 191.846 118.82L191.466 119.745ZM207.417 128.19C209.942 130.174 211.89 132.358 213.181 134.876L214.071 134.42C212.699 131.743 210.643 129.454 208.035 127.404L207.417 128.19ZM215.01 143.453C214.975 144.846 214.811 146.326 214.509 147.906L215.491 148.094C215.803 146.467 215.974 144.931 216.009 143.478L215.01 143.453ZM214.509 147.906C214.233 149.346 213.835 150.715 213.329 152.021L214.261 152.382C214.789 151.021 215.204 149.594 215.491 148.094L214.509 147.906ZM208.95 159.371C207.168 161.541 205.071 163.531 202.771 165.407L203.403 166.182C205.74 164.276 207.888 162.24 209.723 160.006L208.95 159.371ZM195.732 170.517C193.318 172.119 190.834 173.667 188.366 175.221L188.899 176.067C191.361 174.517 193.859 172.96 196.285 171.35L195.732 170.517ZM181.02 180.022C178.536 181.752 176.188 183.551 174.102 185.484L174.782 186.218C176.822 184.327 179.13 182.557 181.592 180.843L181.02 180.022ZM168.43 192.291C167.666 193.571 167.025 194.915 166.528 196.335L167.472 196.665C167.945 195.313 168.557 194.03 169.289 192.804L168.43 192.291Z" fill="#3F4145"/>
</svg>
