<svg width="349" height="129" viewBox="0 0 349 129" fill="none" xmlns="http://www.w3.org/2000/svg">
<path d="M317.5 45.4999L317.604 45.989L317.5 45.4999ZM3.50011 64.5L3.95657 64.7041L3.50011 64.5ZM79.3536 124.854C79.5488 124.658 79.5488 124.342 79.3536 124.146L76.1716 120.964C75.9763 120.769 75.6597 120.769 75.4645 120.964C75.2692 121.16 75.2692 121.476 75.4645 121.672L78.2929 124.5L75.4645 127.328C75.2692 127.524 75.2692 127.84 75.4645 128.036C75.6597 128.231 75.9763 128.231 76.1716 128.036L79.3536 124.854ZM79 124C77.6166 124 76.0894 123.928 74.4416 123.785L74.355 124.781C76.0264 124.926 77.5829 125 79 125V124ZM65.334 122.483C62.4821 121.939 59.4675 121.251 56.3618 120.423L56.1041 121.389C59.232 122.224 62.2701 122.917 65.1467 123.466L65.334 122.483ZM47.5301 117.756C44.6565 116.785 41.7644 115.704 38.9052 114.518L38.5219 115.442C41.403 116.637 44.3162 117.725 47.21 118.703L47.5301 117.756ZM30.5352 110.672C27.7649 109.263 25.0812 107.75 22.5368 106.134L22.0008 106.979C24.575 108.613 27.2865 110.142 30.082 111.563L30.5352 110.672ZM15.0903 100.752C12.6558 98.7303 10.4623 96.5899 8.57916 94.3352L7.81165 94.9763C9.73958 97.2845 11.9779 99.4672 14.4514 101.521L15.0903 100.752ZM3.6752 86.6893C2.40894 83.9123 1.61938 80.9997 1.40073 77.9549L0.403297 78.0266C0.631188 81.2 1.45399 84.2283 2.76532 87.1042L3.6752 86.6893ZM2.38223 68.9954C2.78363 67.5906 3.30566 66.1601 3.95657 64.7041L3.04365 64.2959C2.3744 65.7929 1.83579 67.268 1.42071 68.7207L2.38223 68.9954ZM3.95657 64.7041C4.63917 63.1772 5.47663 61.7835 6.46426 60.5126L5.67465 59.899C4.63712 61.2341 3.75849 62.6969 3.04365 64.2959L3.95657 64.7041ZM13.9807 54.3695C16.649 52.9516 19.739 51.8304 23.2338 50.9649L22.9934 49.9942C19.4386 50.8746 16.268 52.0216 13.5114 53.4864L13.9807 54.3695ZM33.0589 49.2809C36.1636 48.9391 39.4788 48.7195 42.9954 48.6037L42.9625 47.6042C39.4255 47.7208 36.0843 47.9417 32.9494 48.2869L33.0589 49.2809ZM53.0424 48.5302C56.2336 48.5769 59.5545 48.6823 63 48.8359L63.0445 47.8369C59.591 47.6829 56.2599 47.5771 53.057 47.5303L53.0424 48.5302ZM72.983 49.3839C76.2212 49.5904 79.5517 49.8265 82.9711 50.0848L83.0464 49.0877C79.6241 48.8291 76.2896 48.5927 73.0467 48.386L72.983 49.3839ZM92.9575 50.8755C96.2165 51.1428 99.5457 51.4228 102.943 51.7098L103.027 50.7134C99.6297 50.4263 96.2996 50.1463 93.0393 49.8788L92.9575 50.8755ZM112.929 52.5528C116.205 52.8275 119.536 53.1038 122.921 53.3771L123.002 52.3803C119.618 52.1071 116.288 51.831 113.013 51.5563L112.929 52.5528ZM132.922 54.1602C136.214 54.4089 139.553 54.6512 142.935 54.8833L143.003 53.8857C139.624 53.6537 136.288 53.4116 132.997 53.163L132.922 54.1602ZM152.944 55.5292C156.236 55.7274 159.566 55.9131 162.932 56.0831L162.982 55.0844C159.619 54.9145 156.293 54.729 153.004 54.531L152.944 55.5292ZM172.937 56.535C176.246 56.6661 179.588 56.7798 182.96 56.8732L182.988 55.8735C179.62 55.7803 176.282 55.6668 172.977 55.5358L172.937 56.535ZM193 57.0869C196.316 57.1358 199.659 57.1631 203.029 57.1661L203.029 56.1661C199.665 56.1631 196.326 56.1358 193.014 56.087L193 57.0869ZM213.037 57.1026C216.355 57.057 219.697 56.9862 223.061 56.8878L223.032 55.8883C219.673 55.9864 216.337 56.0571 213.023 56.1027L213.037 57.1026ZM233.098 56.5134C236.415 56.3624 239.751 56.183 243.107 55.9732L243.045 54.9752C239.695 55.1846 236.364 55.3636 233.052 55.5144L233.098 56.5134ZM253.096 55.2608C256.411 54.9947 259.743 54.6975 263.091 54.3671L262.993 53.3719C259.651 53.7018 256.325 53.9984 253.016 54.264L253.096 55.2608ZM273.078 53.2862C276.373 52.8978 279.682 52.4759 283.004 52.0185L282.868 51.0279C279.552 51.4843 276.25 51.9055 272.961 52.2931L273.078 53.2862ZM292.926 50.5516C296.219 50.0307 299.524 49.4738 302.84 48.879L302.664 47.8947C299.355 48.4883 296.057 49.0441 292.77 49.5638L292.926 50.5516ZM312.668 47.0096C314.311 46.6791 315.956 46.339 317.604 45.989L317.396 45.0108C315.752 45.36 314.11 45.6995 312.47 46.0293L312.668 47.0096ZM317.604 45.989C319.395 45.6086 321.115 45.2051 322.762 44.7803L322.512 43.812C320.88 44.233 319.174 44.6333 317.396 45.0108L317.604 45.989ZM332.904 41.5467C336.737 40.0347 339.902 38.3699 342.328 36.5962L341.738 35.7888C339.4 37.4978 336.317 39.1253 332.537 40.6164L332.904 41.5467ZM348.063 27.689C348.029 24.6401 346.06 21.6493 342.211 18.8601L341.624 19.6699C345.36 22.3767 347.034 25.1101 347.063 27.7001L348.063 27.689ZM332.763 13.8709C329.854 12.6951 326.51 11.5659 322.714 10.4978L322.443 11.4605C326.211 12.5205 329.519 13.6383 332.388 14.798L332.763 13.8709ZM312.503 8.01196C309.258 7.32762 305.775 6.68014 302.048 6.07493L301.887 7.062C305.601 7.66494 309.068 8.30961 312.296 8.99044L312.503 8.01196ZM291.649 4.58091C288.317 4.15919 284.824 3.76757 281.168 3.40884L281.07 4.40406C284.718 4.76193 288.201 5.15252 291.524 5.573L291.649 4.58091ZM270.65 2.50393C267.262 2.25088 263.751 2.02378 260.117 1.82439L260.062 2.82289C263.69 3.02194 267.194 3.24861 270.576 3.50115L270.65 2.50393ZM249.571 1.33829C246.148 1.2092 242.627 1.10308 239.006 1.02113L238.983 2.02087C242.6 2.10271 246.116 2.20869 249.533 2.33758L249.571 1.33829ZM228.411 0.854044C224.976 0.8226 221.46 0.811713 217.86 0.822271L217.862 1.82227C221.459 1.81172 224.971 1.8226 228.402 1.854L228.411 0.854044ZM207.363 0.911331C205.591 0.93591 203.8 0.96544 201.99 1.00002L202.01 1.99983C203.817 1.96529 205.606 1.93579 207.376 1.91123L207.363 0.911331Z" fill="#3F4145"/>
</svg>
