<svg width="245" height="342" viewBox="0 0 245 342" fill="none" xmlns="http://www.w3.org/2000/svg">
<path d="M110.5 10.32L110.479 9.82044L110.5 10.32ZM223 76.32L222.717 76.7322L223 76.32ZM244 144.32L244.495 144.246L244 144.32ZM208.5 329.82L208.396 329.331L208.5 329.82ZM140.146 337.646C139.951 337.842 139.951 338.158 140.146 338.354L143.328 341.536C143.524 341.731 143.84 341.731 144.036 341.536C144.231 341.34 144.231 341.024 144.036 340.828L141.207 338L144.036 335.172C144.231 334.976 144.231 334.66 144.036 334.464C143.84 334.269 143.524 334.269 143.328 334.464L140.146 337.646ZM1.05289 1.81718C2.4642 1.66704 3.97778 1.57316 5.58481 1.52933L5.55755 0.5297C3.92926 0.574107 2.38903 0.66939 0.947106 0.822788L1.05289 1.81718ZM14.6993 1.71776C17.5781 1.88464 20.6295 2.14079 23.8207 2.46303L23.9212 1.46809C20.7198 1.14482 17.6537 0.88734 14.7571 0.719437L14.6993 1.71776ZM32.9283 3.49838C35.8824 3.8645 38.9171 4.26382 42.0112 4.68125L42.1449 3.69023C39.0489 3.27254 36.0103 2.8727 33.0513 2.50597L32.9283 3.49838ZM51.1017 5.92485C54.1031 6.33737 57.1387 6.75299 60.19 7.15897L60.3218 6.1677C57.2728 5.76203 54.2391 5.34666 51.2379 4.93416L51.1017 5.92485ZM69.2931 8.32554C72.341 8.69789 75.3872 9.04834 78.4141 9.3644L78.5179 8.3698C75.498 8.05447 72.4577 7.70471 69.4143 7.33292L69.2931 8.32554ZM87.5621 10.2082C90.6647 10.452 93.7269 10.6444 96.7285 10.7712L96.7706 9.77207C93.7829 9.6459 90.7329 9.45429 87.6404 9.21131L87.5621 10.2082ZM105.93 10.937C107.486 10.9226 109.017 10.8842 110.521 10.8195L110.479 9.82044C108.986 9.88462 107.466 9.92272 105.921 9.93701L105.93 10.937ZM110.521 10.8195C112.104 10.7514 113.681 10.7451 115.251 10.7971L115.284 9.79767C113.689 9.74484 112.087 9.75125 110.479 9.82044L110.521 10.8195ZM124.654 11.7928C127.75 12.3408 130.817 13.0961 133.851 14.031L134.146 13.0753C131.075 12.1292 127.968 11.3638 124.828 10.8081L124.654 11.7928ZM142.748 17.3022C145.638 18.5322 148.493 19.9065 151.31 21.3992L151.778 20.5156C148.939 19.011 146.058 17.6242 143.14 16.3821L142.748 17.3022ZM159.541 26.1427C162.225 27.8098 164.87 29.5658 167.471 31.3863L168.044 30.567C165.43 28.7372 162.77 26.971 160.069 25.2932L159.541 26.1427ZM175.141 37.0149C177.675 38.9559 180.161 40.9373 182.598 42.934L183.232 42.1605C180.788 40.158 178.293 38.1697 175.749 36.2211L175.141 37.0149ZM189.892 49.0623C192.348 51.1704 194.744 53.2667 197.077 55.322L197.738 54.5716C195.403 52.5149 193.003 50.4155 190.543 48.3035L189.892 49.0623ZM204.219 61.6282C206.712 63.8241 209.12 65.9281 211.437 67.8959L212.084 67.1337C209.774 65.1718 207.371 63.0725 204.88 60.8779L204.219 61.6282ZM218.859 73.9255C220.182 74.9364 221.469 75.8757 222.717 76.7322L223.283 75.9077C222.051 75.0626 220.779 74.1336 219.466 73.1308L218.859 73.9255ZM222.717 76.7322C224.034 77.6359 225.259 78.5644 226.4 79.516L227.041 78.748C225.875 77.7757 224.624 76.8284 223.283 75.9077L222.717 76.7322ZM232.774 86.1114C234.708 88.632 236.236 91.2673 237.447 93.9932L238.361 93.5871C237.12 90.7935 235.552 88.0895 233.568 85.5028L232.774 86.1114ZM240.291 102.733C240.961 105.713 241.391 108.765 241.678 111.863L242.674 111.771C242.384 108.643 241.948 105.546 241.266 102.514L240.291 102.733ZM242.198 121.122C242.246 122.67 242.282 124.22 242.317 125.772C242.353 127.324 242.388 128.876 242.435 130.426L243.435 130.395C243.388 128.85 243.353 127.301 243.317 125.749C243.281 124.198 243.245 122.644 243.198 121.092L242.198 121.122ZM242.953 139.746C243.097 141.306 243.277 142.857 243.505 144.394L244.495 144.246C244.269 142.731 244.091 141.199 243.949 139.655L242.953 139.746ZM243.505 144.394C243.707 145.744 243.793 147.228 243.778 148.832L244.778 148.842C244.793 147.197 244.705 145.659 244.495 144.246L243.505 144.394ZM242.911 157.799C242.457 160.594 241.844 163.565 241.118 166.661L242.092 166.89C242.822 163.778 243.439 160.783 243.898 157.959L242.911 157.799ZM238.87 175.445C238.088 178.309 237.251 181.23 236.391 184.174L237.351 184.455C238.212 181.508 239.05 178.58 239.835 175.709L238.87 175.445ZM233.817 192.884C232.947 195.814 232.084 198.733 231.258 201.607L232.219 201.883C233.044 199.014 233.906 196.098 234.775 193.168L233.817 192.884ZM228.836 210.376C228.034 213.443 227.315 216.413 226.723 219.238L227.702 219.443C228.29 216.639 229.004 213.685 229.804 210.629L228.836 210.376ZM225.256 228.24C225.09 229.855 225 231.387 225 232.82H226C226 231.428 226.087 229.931 226.251 228.342L225.256 228.24ZM225 232.82C225 234.327 225.03 236.057 225.079 237.971L226.079 237.945C226.03 236.035 226 234.315 226 232.82H225ZM225.405 248.28C225.51 251.512 225.617 254.977 225.696 258.59L226.696 258.568C226.616 254.95 226.51 251.481 226.404 248.248L225.405 248.28ZM225.824 268.901C225.829 272.3 225.792 275.754 225.693 279.201L226.693 279.23C226.792 275.771 226.829 272.307 226.824 268.899L225.824 268.901ZM225.191 289.487C224.939 292.994 224.6 296.426 224.15 299.714L225.141 299.849C225.594 296.536 225.935 293.082 226.188 289.558L225.191 289.487ZM222.278 309.798C221.391 313.406 220.3 316.666 218.965 319.452L219.867 319.884C221.239 317.019 222.351 313.69 223.249 310.036L222.278 309.798ZM212.883 327.329C211.527 328.302 210.037 328.982 208.396 329.331L208.604 330.309C210.388 329.929 212.005 329.19 213.466 328.141L212.883 327.329ZM208.396 329.331C206.674 329.697 204.8 330.065 202.807 330.432L202.988 331.415C204.988 331.048 206.871 330.678 208.604 330.309L208.396 329.331ZM191.549 332.303C187.894 332.858 184.083 333.394 180.245 333.897L180.375 334.888C184.218 334.384 188.036 333.848 191.699 333.292L191.549 332.303ZM168.908 335.28C164.958 335.726 161.122 336.121 157.551 336.45L157.642 337.446C161.221 337.116 165.064 336.72 169.021 336.273L168.908 335.28ZM146.181 337.315C143.963 337.436 142.043 337.5 140.5 337.5V338.5C142.068 338.5 144.007 338.435 146.236 338.314L146.181 337.315Z" fill="white"/>
</svg>
