<svg width="227" height="171" viewBox="0 0 227 171" fill="none" xmlns="http://www.w3.org/2000/svg">
<path d="M78 8.5L77.8973 8.98934L78 8.5ZM164.5 35L164.282 35.4501L164.5 35ZM222 113L222.456 112.796L222 113ZM200.139 166.154C199.948 166.353 199.955 166.67 200.154 166.861L203.403 169.975C203.602 170.166 203.919 170.159 204.11 169.96C204.301 169.76 204.294 169.444 204.095 169.253L201.207 166.485L203.975 163.597C204.166 163.398 204.159 163.081 203.96 162.89C203.76 162.699 203.444 162.706 203.253 162.905L200.139 166.154ZM-0.00847336 1.49993C1.53768 1.52613 3.17076 1.56261 4.87952 1.61011L4.90731 0.610501C3.19509 0.562905 1.5584 0.526342 0.00847336 0.500072L-0.00847336 1.49993ZM14.6796 1.97358C17.8121 2.11734 21.0891 2.29318 24.4632 2.5042L24.5256 1.50615C21.1458 1.29478 17.8633 1.11864 14.7254 0.974633L14.6796 1.97358ZM34.2375 3.19837C37.4586 3.4551 40.7238 3.7438 43.9969 4.06687L44.0952 3.07171C40.8153 2.74798 37.5438 2.45872 34.3169 2.20153L34.2375 3.19837ZM53.7366 5.13341C57.013 5.52991 60.2607 5.96363 63.4425 6.43697L63.5897 5.44786C60.3979 4.97303 57.1412 4.53812 53.8567 4.14066L53.7366 5.13341ZM73.0986 8.04211C74.7311 8.34533 76.3326 8.66095 77.8973 8.98934L78.1027 8.01066C76.5299 7.68056 74.9207 7.36345 73.2812 7.05893L73.0986 8.04211ZM77.8973 8.98934C79.432 9.31144 80.9193 9.62039 82.3625 9.91772L82.5643 8.93829C81.1222 8.64119 79.6361 8.33249 78.1027 8.01066L77.8973 8.98934ZM91.2643 11.7237C94.4456 12.3611 97.3933 12.9459 100.171 13.5041L100.368 12.5237C97.5914 11.9657 94.6381 11.3798 91.4608 10.7432L91.2643 11.7237ZM109.067 15.3418C112.15 16.0055 115.057 16.6699 117.897 17.3838L118.14 16.414C115.286 15.6965 112.368 15.0296 109.277 14.3642L109.067 15.3418ZM126.621 19.8127C129.399 20.6681 132.224 21.6207 135.202 22.7173L135.548 21.7789C132.553 20.6762 129.711 19.7178 126.915 18.857L126.621 19.8127ZM143.626 26.0351C146.23 27.1216 148.985 28.3215 151.941 29.657L152.353 28.7457C149.389 27.4067 146.625 26.2029 144.011 25.1122L143.626 26.0351ZM160.176 33.4805C161.505 34.1121 162.873 34.7682 164.282 35.4501L164.718 34.5499C163.307 33.8671 161.937 33.21 160.606 32.5773L160.176 33.4805ZM164.282 35.4501C165.751 36.1609 167.19 36.9353 168.6 37.768L169.108 36.907C167.676 36.0608 166.213 35.2732 164.718 34.5499L164.282 35.4501ZM176.649 43.3713C179.178 45.4081 181.599 47.6258 183.915 49.9836L184.629 49.2829C182.288 46.9003 179.839 44.656 177.276 42.5923L176.649 43.3713ZM190.462 57.3282C192.532 59.8708 194.504 62.5084 196.38 65.2023L197.201 64.6306C195.311 61.9186 193.325 59.2608 191.238 56.6969L190.462 57.3282ZM201.761 73.463C203.498 76.3085 205.139 79.1714 206.688 82.0095L207.566 81.5306C206.011 78.68 204.361 75.8028 202.614 72.9418L201.761 73.463ZM211.239 90.7685C212.765 93.8449 214.18 96.8336 215.488 99.6747L216.396 99.2564C215.085 96.4087 213.666 93.411 212.135 90.3241L211.239 90.7685ZM219.543 108.693C220.252 110.296 220.919 111.806 221.544 113.204L222.456 112.796C221.833 111.4 221.167 109.893 220.457 108.288L219.543 108.693ZM221.544 113.204C222.311 114.923 222.977 116.674 223.541 118.444L224.494 118.14C223.918 116.335 223.24 114.549 222.456 112.796L221.544 113.204ZM225.749 129.42C226.086 133.242 225.975 137.014 225.434 140.601L226.422 140.75C226.976 137.082 227.089 133.23 226.746 129.332L225.749 129.42ZM222.25 151.28C220.598 154.758 218.408 157.793 215.708 160.189L216.372 160.937C219.185 158.441 221.452 155.292 223.153 151.709L222.25 151.28ZM205.995 165.292C204.268 165.716 202.433 165.959 200.489 166L200.511 167C202.524 166.957 204.433 166.705 206.233 166.264L205.995 165.292Z" fill="white"/>
</svg>
