<svg width="127" height="137" viewBox="0 0 127 137" fill="none" xmlns="http://www.w3.org/2000/svg">
<path d="M114.5 122.5L114.994 122.576L114.5 122.5ZM114.196 136.897C114.416 137.065 114.729 137.023 114.897 136.804L117.631 133.229C117.798 133.01 117.757 132.696 117.537 132.528C117.318 132.36 117.004 132.402 116.836 132.622L114.407 135.799L111.229 133.369C111.01 133.202 110.696 133.243 110.528 133.463C110.36 133.682 110.402 133.996 110.622 134.164L114.196 136.897ZM0.849747 1.47689C2.11414 1.87526 3.58428 2.3144 5.23531 2.78159L5.50759 1.81937C3.86461 1.35446 2.40398 0.918121 1.15025 0.52311L0.849747 1.47689ZM14.0988 5.10271C16.8581 5.77427 19.8531 6.45994 23.0318 7.13287L23.2389 6.15456C20.0703 5.48375 17.0851 4.80032 14.3353 4.13107L14.0988 5.10271ZM32.0188 8.89856C34.9447 9.4288 37.9684 9.93282 41.0586 10.3945L41.2063 9.40543C38.127 8.94542 35.1136 8.44311 32.1971 7.91459L32.0188 8.89856ZM50.1386 11.5953C53.1556 11.9407 56.2054 12.2343 59.2615 12.4623L59.3359 11.4651C56.294 11.2381 53.2574 10.9458 50.2523 10.6018L50.1386 11.5953ZM68.4165 12.936C69.9505 12.9781 71.4795 13 73 13V12C71.4891 12 69.9692 11.9782 68.4439 11.9364L68.4165 12.936ZM73 13C74.9173 13 76.7406 13.0852 78.4761 13.2476L78.5692 12.2519C76.8014 12.0866 74.947 12 73 12V13ZM89.1211 15.4869C92.8216 16.7698 95.9902 18.4836 98.7494 20.4721L99.3341 19.6609C96.4996 17.6181 93.2449 15.8581 89.4486 14.5421L89.1211 15.4869ZM106.637 27.9514C109.063 30.8771 111.088 33.9553 112.93 36.9177L113.779 36.3895C111.929 33.4146 109.876 30.2912 107.407 27.3131L106.637 27.9514ZM118.885 46.2378C120.084 47.8653 121.325 49.2875 122.685 50.3886L123.315 49.6114C122.046 48.5845 120.862 47.2361 119.69 45.6448L118.885 46.2378ZM122.685 50.3886C123.632 51.1549 124.357 52.3961 124.867 54.0824L125.824 53.793C125.283 52.0022 124.475 50.5509 123.315 49.6114L122.685 50.3886ZM125.765 63.1654C125.706 65.9902 125.442 69.1137 125.028 72.4109L126.02 72.5354C126.437 69.2152 126.705 66.0555 126.765 63.1862L125.765 63.1654ZM123.597 81.5933C123.048 84.6223 122.425 87.6917 121.768 90.7188L122.745 90.9311C123.405 87.8951 124.029 84.8142 124.581 81.7718L123.597 81.5933ZM119.678 99.7958C118.901 103.01 118.129 106.062 117.415 108.833L118.383 109.083C119.098 106.309 119.872 103.252 120.65 100.031L119.678 99.7958ZM115.072 117.846C114.521 119.995 114.133 121.594 114.006 122.424L114.994 122.576C115.113 121.806 115.486 120.261 116.041 118.094L115.072 117.846ZM114.006 122.424C113.829 123.571 113.714 124.767 113.645 125.961L114.643 126.019C114.711 124.85 114.823 123.686 114.994 122.576L114.006 122.424ZM113.681 133.038C113.77 134.503 113.894 135.736 114.004 136.566L114.996 136.434C114.889 135.631 114.767 134.422 114.679 132.977L113.681 133.038Z" fill="white"/>
</svg>
