<svg width="206" height="117" viewBox="0 0 206 117" fill="none" xmlns="http://www.w3.org/2000/svg">
<path d="M111.481 1.00036C111.205 1.01071 110.99 1.2428 111 1.51875C111.011 1.7947 111.243 2.01001 111.519 1.99966L111.481 1.00036ZM193.5 15.5L193.327 15.9691L193.5 15.5ZM1.49987 88L1.01001 87.8998L1.49987 88ZM23.6125 114.987C23.8815 114.925 24.0493 114.657 23.9872 114.388L22.9754 110.003C22.9133 109.734 22.6448 109.566 22.3757 109.628C22.1067 109.69 21.9389 109.959 22.001 110.228L22.9004 114.125L19.0028 115.025C18.7338 115.087 18.566 115.355 18.6281 115.624C18.6902 115.893 18.9586 116.061 19.2277 115.999L23.6125 114.987ZM19.4539 112.063C19.2037 111.946 18.9062 112.054 18.7892 112.304C18.6723 112.554 18.7803 112.852 19.0305 112.969L19.4539 112.063ZM10.7778 108.3C11.0036 108.459 11.3155 108.404 11.4745 108.179C11.6335 107.953 11.5794 107.641 11.3536 107.482L10.7778 108.3ZM4.72903 101.112C4.56961 100.887 4.25759 100.833 4.03211 100.993C3.80663 101.152 3.75309 101.464 3.91251 101.69L4.72903 101.112ZM0.649109 92.7072C0.665963 92.9828 0.903066 93.1926 1.17869 93.1758C1.45432 93.1589 1.6641 92.9218 1.64725 92.6462L0.649109 92.7072ZM3.76111 83.6286C3.90236 83.3913 3.82451 83.0845 3.58723 82.9432C3.34995 82.802 3.04309 82.8798 2.90183 83.1171L3.76111 83.6286ZM9.87077 75.7488C9.65015 75.9148 9.60591 76.2283 9.77198 76.4489C9.93805 76.6696 10.2515 76.7138 10.4722 76.5477L9.87077 75.7488ZM18.9497 71.4146C19.1968 71.2911 19.2969 70.9908 19.1735 70.7438C19.05 70.4968 18.7497 70.3966 18.5027 70.52L18.9497 71.4146ZM27.7414 66.5313C27.483 66.6285 27.3523 66.9168 27.4495 67.1753C27.5467 67.4337 27.835 67.5645 28.0935 67.4673L27.7414 66.5313ZM37.5674 64.2935C37.8319 64.2143 37.9822 63.9357 37.903 63.6711C37.8239 63.4066 37.5452 63.2563 37.2807 63.3355L37.5674 64.2935ZM46.9626 60.714C46.6944 60.7797 46.5302 61.0504 46.5959 61.3186C46.6616 61.5868 46.9323 61.751 47.2006 61.6853L46.9626 60.714ZM56.9586 59.5072C57.2293 59.4522 57.4041 59.1883 57.3492 58.9177C57.2942 58.647 57.0303 58.4722 56.7597 58.5272L56.9586 59.5072ZM66.6273 56.6993C66.355 56.7452 66.1714 57.0031 66.2173 57.2754C66.2631 57.5477 66.5211 57.7313 66.7934 57.6854L66.6273 56.6993ZM76.6767 56.1724C76.9503 56.1345 77.1413 55.8821 77.1035 55.6086C77.0656 55.335 76.8132 55.144 76.5397 55.1818L76.6767 56.1724ZM86.4926 53.9431C86.2182 53.9736 86.0203 54.2207 86.0508 54.4952C86.0812 54.7697 86.3284 54.9675 86.6028 54.9371L86.4926 53.9431ZM96.5591 53.9648C96.8342 53.9416 97.0384 53.6996 97.0152 53.4245C96.9919 53.1493 96.75 52.9451 96.4749 52.9684L96.5591 53.9648ZM106.475 52.2555C106.2 52.2714 105.989 52.5078 106.005 52.7835C106.021 53.0592 106.258 53.2698 106.533 53.2538L106.475 52.2555ZM116.39 52.7279C116.665 52.7094 116.874 52.4711 116.855 52.1956C116.837 51.9201 116.599 51.7117 116.323 51.7301L116.39 52.7279ZM126.011 50.8912C125.736 50.92 125.537 51.166 125.566 51.4406C125.594 51.7153 125.84 51.9146 126.115 51.8858L126.011 50.8912ZM135.808 50.7122C136.082 50.6747 136.273 50.4226 136.236 50.149C136.198 49.8754 135.946 49.684 135.673 49.7214L135.808 50.7122ZM145.296 48.2602C145.024 48.3056 144.84 48.5633 144.885 48.8356C144.931 49.108 145.188 49.292 145.461 49.2466L145.296 48.2602ZM155.065 47.4986C155.336 47.4451 155.512 47.1821 155.458 46.9112C155.405 46.6403 155.142 46.4641 154.871 46.5176L155.065 47.4986ZM164.385 44.4786C164.116 44.541 163.949 44.8097 164.011 45.0787C164.074 45.3477 164.342 45.5152 164.611 45.4528L164.385 44.4786ZM174.086 43.0623C174.352 42.9892 174.508 42.7141 174.435 42.4478C174.362 42.1815 174.087 42.0249 173.821 42.098L174.086 43.0623ZM183.133 39.2818C182.871 39.3694 182.73 39.6528 182.817 39.9146C182.905 40.1765 183.188 40.3178 183.45 40.2301L183.133 39.2818ZM192.576 36.7591C192.829 36.6482 192.944 36.3532 192.833 36.1004C192.722 35.8475 192.427 35.7324 192.174 35.8433L192.576 36.7591ZM200.63 31.2022C200.408 31.3656 200.36 31.6786 200.523 31.9011C200.687 32.1237 200.999 32.1717 201.222 32.0083L200.63 31.2022ZM205.695 23.469C205.606 23.2076 205.322 23.0678 205.06 23.1568C204.799 23.2458 204.659 23.5299 204.748 23.7913L205.695 23.469ZM197.828 17.864C198.076 17.9849 198.376 17.8816 198.496 17.6333C198.617 17.3851 198.514 17.0858 198.266 16.9649L197.828 17.864ZM188.731 13.283C188.47 13.1944 188.186 13.3346 188.097 13.5961C188.009 13.8577 188.149 14.1415 188.41 14.2301L188.731 13.283ZM178.453 11.1355C178.718 11.211 178.995 11.0568 179.07 10.7912C179.146 10.5255 178.992 10.249 178.726 10.1736L178.453 11.1355ZM168.589 7.54463C168.32 7.48133 168.051 7.64791 167.987 7.9167C167.924 8.18548 168.091 8.4547 168.359 8.518L168.589 7.54463ZM158.153 6.34379C158.424 6.39564 158.686 6.2178 158.738 5.94657C158.789 5.67534 158.612 5.41343 158.34 5.36158L158.153 6.34379ZM148.019 3.60508C147.746 3.56424 147.492 3.75253 147.451 4.02563C147.41 4.29874 147.598 4.55324 147.871 4.59408L148.019 3.60508ZM137.521 3.25784C137.795 3.28766 138.042 3.08928 138.072 2.81475C138.102 2.54023 137.903 2.2935 137.629 2.26368L137.521 3.25784ZM127.197 1.35261C126.922 1.33464 126.684 1.54345 126.666 1.819C126.648 2.09456 126.857 2.33251 127.132 2.35049L127.197 1.35261ZM116.707 1.94012C116.983 1.94278 117.209 1.72109 117.212 1.44496C117.214 1.16883 116.993 0.942829 116.717 0.94017L116.707 1.94012ZM23.765 114.076C23.4335 113.869 22.8515 113.6 22.1328 113.277C21.3979 112.947 20.4876 112.546 19.4539 112.063L19.0305 112.969C20.0731 113.456 20.9959 113.862 21.7228 114.189C22.466 114.523 22.9748 114.761 23.235 114.924L23.765 114.076ZM11.3536 107.482C8.87686 105.738 6.50894 103.63 4.72903 101.112L3.91251 101.69C5.7788 104.329 8.24186 106.513 10.7778 108.3L11.3536 107.482ZM1.64725 92.6462C1.56011 91.2212 1.66095 89.7075 1.98972 88.1002L1.01001 87.8998C0.664383 89.5895 0.556402 91.1911 0.649109 92.7072L1.64725 92.6462ZM1.98972 88.1002C2.30413 86.5631 2.90127 85.073 3.76111 83.6286L2.90183 83.1171C1.99097 84.6472 1.34918 86.2416 1.01001 87.8998L1.98972 88.1002ZM10.4722 76.5477C12.8807 74.7349 15.7302 73.0236 18.9497 71.4146L18.5027 70.52C15.2427 72.1493 12.3386 73.8913 9.87077 75.7488L10.4722 76.5477ZM28.0935 67.4673C31.0786 66.3446 34.2487 65.2867 37.5674 64.2935L37.2807 63.3355C33.9431 64.3344 30.7509 65.3994 27.7414 66.5313L28.0935 67.4673ZM47.2006 61.6853C50.3721 60.9082 53.6334 60.1823 56.9586 59.5072L56.7597 58.5272C53.4225 59.2047 50.1481 59.9335 46.9626 60.714L47.2006 61.6853ZM66.7934 57.6854C70.0604 57.1352 73.3624 56.6309 76.6767 56.1724L76.5397 55.1818C73.2161 55.6416 69.9044 56.1473 66.6273 56.6993L66.7934 57.6854ZM86.6028 54.9371C89.9396 54.5671 93.266 54.2431 96.5591 53.9648L96.4749 52.9684C93.1733 53.2474 89.8382 53.5722 86.4926 53.9431L86.6028 54.9371ZM106.533 53.2538C108.213 53.1566 109.877 53.0718 111.522 52.9995L111.478 52.0005C109.828 52.073 108.16 52.158 106.475 52.2555L106.533 53.2538ZM111.522 52.9995C113.107 52.9298 114.732 52.839 116.39 52.7279L116.323 51.7301C114.672 51.8407 113.055 51.9312 111.478 52.0005L111.522 52.9995ZM126.115 51.8858C129.29 51.5531 132.534 51.1601 135.808 50.7122L135.673 49.7214C132.408 50.168 129.175 50.5597 126.011 50.8912L126.115 51.8858ZM145.461 49.2466C148.679 48.7097 151.892 48.1254 155.065 47.4986L154.871 46.5176C151.708 47.1424 148.505 47.7249 145.296 48.2602L145.461 49.2466ZM164.611 45.4528C167.87 44.6968 171.042 43.8981 174.086 43.0623L173.821 42.098C170.791 42.9299 167.632 43.7254 164.385 44.4786L164.611 45.4528ZM183.45 40.2301C186.778 39.1166 189.846 37.956 192.576 36.7591L192.174 35.8433C189.478 37.0255 186.439 38.1755 183.133 39.2818L183.45 40.2301ZM201.222 32.0083C204.79 29.389 206.724 26.4934 205.695 23.469L204.748 23.7913C205.544 26.1288 204.155 28.6145 200.63 31.2022L201.222 32.0083ZM198.266 16.9649C196.926 16.3125 195.398 15.6676 193.673 15.0309L193.327 15.9691C195.027 16.5964 196.523 17.2287 197.828 17.864L198.266 16.9649ZM193.673 15.0309C192.028 14.4239 190.38 13.8416 188.731 13.283L188.41 14.2301C190.051 14.7859 191.691 15.3653 193.327 15.9691L193.673 15.0309ZM178.726 10.1736C175.318 9.20541 171.931 8.33179 168.589 7.54463L168.359 8.518C171.688 9.30188 175.061 10.1717 178.453 11.1355L178.726 10.1736ZM158.34 5.36158C154.805 4.68579 151.354 4.10383 148.019 3.60508L147.871 4.59408C151.194 5.09093 154.632 5.67065 158.153 6.34379L158.34 5.36158ZM137.629 2.26368C133.909 1.85959 130.412 1.56233 127.197 1.35261L127.132 2.35049C130.333 2.55928 133.815 2.85531 137.521 3.25784L137.629 2.26368ZM116.717 0.94017C114.726 0.921006 112.97 0.94452 111.481 1.00036L111.519 1.99966C112.99 1.9445 114.73 1.92108 116.707 1.94012L116.717 0.94017Z" fill="#3F4145"/>
</svg>
