<svg width="356" height="170" viewBox="0 0 356 170" fill="none" xmlns="http://www.w3.org/2000/svg">
<path d="M207 7.5L206.897 7.98934L207 7.5ZM293.5 34L293.282 34.4501L293.5 34ZM351 112L351.457 111.796L351 112ZM329.139 165.154C328.948 165.353 328.955 165.67 329.154 165.861L332.403 168.975C332.602 169.166 332.919 169.159 333.11 168.96C333.301 168.76 333.294 168.444 333.095 168.253L330.207 165.485L332.975 162.597C333.166 162.398 333.159 162.081 332.96 161.89C332.76 161.699 332.444 161.706 332.253 161.905L329.139 165.154ZM-0.00847336 1.49993C1.19872 1.52039 2.94325 1.54332 5.15957 1.56953L5.17139 0.569599C2.95519 0.543391 1.21288 0.520486 0.00847336 0.500072L-0.00847336 1.49993ZM15.46 1.68374C18.5851 1.71758 22.0645 1.75531 25.8426 1.7976L25.8538 0.797665C22.0755 0.755366 18.5959 0.717643 15.4708 0.683801L15.46 1.68374ZM36.2232 1.91739C39.5291 1.9568 42.9867 1.99935 46.57 2.04535L46.5829 1.04543C42.9992 0.999424 39.5413 0.956876 36.2351 0.917458L36.2232 1.91739ZM56.9331 2.18376C60.3207 2.23085 63.789 2.28093 67.3192 2.33424L67.3343 1.33435C63.8036 1.28103 60.335 1.23095 56.947 1.18386L56.9331 2.18376ZM77.6689 2.49736C81.0876 2.55358 84.5454 2.61287 88.0268 2.67541L88.0448 1.67557C84.5628 1.61302 81.1045 1.55373 77.6853 1.49749L77.6689 2.49736ZM98.3905 2.8703C101.841 2.93823 105.3 3.00948 108.752 3.08424L108.774 2.08447C105.321 2.0097 101.862 1.93844 98.4101 1.8705L98.3905 2.8703ZM119.108 3.32002C122.591 3.40342 126.053 3.49064 129.476 3.58187L129.503 2.58222C126.078 2.49097 122.616 2.40373 119.132 2.32031L119.108 3.32002ZM139.842 3.87447C143.358 3.97964 146.813 4.08949 150.192 4.20427L150.226 3.20484C146.846 3.09002 143.389 2.98012 139.872 2.87492L139.842 3.87447ZM160.536 4.58157C164.127 4.72241 167.595 4.86975 170.916 5.02392L170.962 4.02499C167.639 3.8707 164.168 3.72326 160.575 3.58234L160.536 4.58157ZM181.234 5.55398C184.968 5.76727 188.422 5.9919 191.546 6.22847L191.621 5.23133C188.49 4.99418 185.03 4.76916 181.291 4.55561L181.234 5.55398ZM201.897 7.20827C203.931 7.45872 205.61 7.7192 206.897 7.98934L207.103 7.01066C205.777 6.73233 204.067 6.46783 202.02 6.21576L201.897 7.20827ZM206.897 7.98934C208.432 8.31144 209.919 8.62039 211.362 8.91772L211.564 7.93829C210.122 7.64119 208.636 7.33249 207.103 7.01066L206.897 7.98934ZM220.264 10.7237C223.446 11.3611 226.393 11.9459 229.171 12.5041L229.368 11.5237C226.591 10.9657 223.638 10.3798 220.461 9.74318L220.264 10.7237ZM238.067 14.3418C241.15 15.0055 244.057 15.6699 246.897 16.3838L247.14 15.414C244.286 14.6965 241.368 14.0296 238.277 13.3642L238.067 14.3418ZM255.621 18.8127C258.399 19.6681 261.224 20.6207 264.202 21.7173L264.548 20.7789C261.553 19.6762 258.711 18.7178 255.915 17.857L255.621 18.8127ZM272.626 25.0351C275.23 26.1216 277.985 27.3215 280.941 28.657L281.353 27.7457C278.389 26.4067 275.625 25.2029 273.011 24.1122L272.626 25.0351ZM289.176 32.4805C290.505 33.1121 291.873 33.7682 293.282 34.4501L293.718 33.5499C292.307 32.8671 290.937 32.21 289.606 31.5773L289.176 32.4805ZM293.282 34.4501C294.751 35.1609 296.19 35.9353 297.6 36.768L298.108 35.907C296.676 35.0608 295.213 34.2732 293.718 33.5499L293.282 34.4501ZM305.649 42.3713C308.178 44.4081 310.599 46.6258 312.915 48.9836L313.629 48.2829C311.288 45.9003 308.839 43.656 306.276 41.5923L305.649 42.3713ZM319.462 56.3282C321.532 58.8708 323.504 61.5084 325.38 64.2023L326.201 63.6306C324.311 60.9186 322.325 58.2608 320.238 55.6969L319.462 56.3282ZM330.761 72.463C332.498 75.3085 334.139 78.1714 335.688 81.0095L336.566 80.5306C335.011 77.68 333.361 74.8028 331.614 71.9418L330.761 72.463ZM340.239 89.7685C341.765 92.8449 343.18 95.8336 344.488 98.6747L345.396 98.2564C344.085 95.4087 342.666 92.411 341.135 89.3241L340.239 89.7685ZM348.543 107.693C349.252 109.296 349.919 110.806 350.543 112.204L351.457 111.796C350.833 110.4 350.167 108.893 349.457 107.288L348.543 107.693ZM350.543 112.204C351.311 113.923 351.977 115.674 352.541 117.444L353.494 117.14C352.918 115.335 352.24 113.549 351.457 111.796L350.543 112.204ZM354.749 128.42C355.086 132.242 354.975 136.014 354.434 139.601L355.422 139.75C355.976 136.082 356.089 132.23 355.746 128.332L354.749 128.42ZM351.25 150.28C349.598 153.758 347.408 156.793 344.708 159.189L345.372 159.937C348.185 157.441 350.452 154.292 352.153 150.709L351.25 150.28ZM334.995 164.292C333.268 164.716 331.433 164.959 329.489 165L329.511 166C331.524 165.957 333.433 165.705 335.233 165.264L334.995 164.292Z" fill="white"/>
</svg>
