<svg width="235" height="165" viewBox="0 0 235 165" fill="none" xmlns="http://www.w3.org/2000/svg">
<path d="M123 4.62965L122.848 5.10598L123 4.62965ZM191 79L191.249 78.5667L191 79ZM233.982 165C234.258 165.01 234.49 164.794 234.5 164.518L234.66 160.021C234.67 159.745 234.454 159.513 234.178 159.503C233.902 159.493 233.671 159.709 233.661 159.985L233.518 163.982L229.521 163.84C229.245 163.83 229.013 164.046 229.003 164.322C228.993 164.598 229.209 164.829 229.485 164.839L233.982 165ZM5.89172 6.28173C6.1626 6.33537 6.42568 6.15926 6.47933 5.88838C6.53297 5.6175 6.35687 5.35442 6.08598 5.30078L5.89172 6.28173ZM16.175 6.67277C15.8998 6.65091 15.6589 6.85634 15.637 7.13162C15.6151 7.40689 15.8206 7.64777 16.0959 7.66963L16.175 6.67277ZM26.3761 8.0029C26.6522 8.00014 26.8738 7.77407 26.8711 7.49794C26.8683 7.22181 26.6423 7.00019 26.3661 7.00295L26.3761 8.0029ZM36.5686 6.55678C36.2932 6.57701 36.0863 6.81666 36.1065 7.09206C36.1267 7.36746 36.3664 7.57432 36.6418 7.5541L36.5686 6.55678ZM46.8624 6.57884C47.1368 6.54763 47.3339 6.29991 47.3027 6.02554C47.2715 5.75116 47.0238 5.55404 46.7494 5.58525L46.8624 6.57884ZM56.9063 4.31595C56.6325 4.35229 56.4401 4.60365 56.4764 4.87739C56.5127 5.15113 56.7641 5.34359 57.0378 5.30726L56.9063 4.31595ZM67.1932 3.95002C67.467 3.91411 67.6598 3.66304 67.6239 3.38925C67.588 3.11545 67.337 2.9226 67.0632 2.95851L67.1932 3.95002ZM77.2454 1.7197C76.9708 1.74952 76.7725 1.99624 76.8023 2.27077C76.8321 2.54529 77.0788 2.74367 77.3534 2.71385L77.2454 1.7197ZM87.5379 1.81672C87.8135 1.79918 88.0227 1.56156 88.0052 1.28597C87.9876 1.01039 87.75 0.801197 87.4744 0.818734L87.5379 1.81672ZM97.7463 0.50265C97.4702 0.500842 97.2449 0.723228 97.2431 0.999365C97.2413 1.2755 97.4637 1.50082 97.7398 1.50263L97.7463 0.50265ZM107.918 2.04757C108.192 2.07665 108.439 1.8776 108.468 1.603C108.497 1.32839 108.298 1.08221 108.023 1.05313L107.918 2.04757ZM118.181 2.77115C117.912 2.707 117.643 2.87274 117.579 3.14133C117.514 3.40992 117.68 3.67965 117.949 3.7438L118.181 2.77115ZM127.777 6.84174C128.034 6.94179 128.324 6.81424 128.424 6.55685C128.524 6.29947 128.396 6.00972 128.139 5.90968L127.777 6.84174ZM137.594 10.5041C137.358 10.3603 137.05 10.4347 136.907 10.6705C136.763 10.9062 136.837 11.2139 137.073 11.3577L137.594 10.5041ZM145.122 17.7986C145.311 17.9996 145.628 18.009 145.829 17.8196C146.03 17.6302 146.039 17.3138 145.85 17.1128L145.122 17.7986ZM151.92 25.7439C151.791 25.4995 151.489 25.4056 151.244 25.5341C151 25.6626 150.906 25.965 151.035 26.2094L151.92 25.7439ZM155.149 35.7463C155.247 36.0046 155.536 36.1348 155.794 36.0371C156.052 35.9395 156.182 35.6509 156.085 35.3926L155.149 35.7463ZM159.88 45.1107C159.771 44.8571 159.477 44.74 159.223 44.8492C158.969 44.9585 158.852 45.2526 158.961 45.5062L159.88 45.1107ZM163.784 54.8663C163.929 55.1009 164.237 55.1731 164.472 55.0275C164.707 54.8819 164.779 54.5736 164.633 54.339L163.784 54.8663ZM170.851 62.6252C170.666 62.4196 170.35 62.4024 170.145 62.5868C169.939 62.7712 169.922 63.0873 170.106 63.2929L170.851 62.6252ZM177.714 70.5342C177.927 70.7094 178.242 70.6784 178.418 70.465C178.593 70.2516 178.562 69.9365 178.348 69.7613L177.714 70.5342ZM186.797 75.8647C186.564 75.7158 186.255 75.7836 186.106 76.0161C185.957 76.2487 186.025 76.5579 186.257 76.7068L186.797 75.8647ZM194.917 82.0478C195.145 82.2036 195.456 82.145 195.612 81.917C195.768 81.6889 195.709 81.3778 195.481 81.2221L194.917 82.0478ZM203.225 87.4967C203.025 87.3055 202.709 87.312 202.518 87.5112C202.326 87.7105 202.333 88.027 202.532 88.2182L203.225 87.4967ZM208.998 95.5765C209.162 95.7985 209.475 95.8454 209.697 95.6812C209.919 95.517 209.966 95.2039 209.802 94.9819L208.998 95.5765ZM215.071 103.432C214.943 103.188 214.641 103.093 214.396 103.221C214.152 103.349 214.057 103.651 214.185 103.896L215.071 103.432ZM218.151 112.883C218.247 113.142 218.535 113.274 218.794 113.178C219.053 113.082 219.185 112.794 219.089 112.535L218.151 112.883ZM222.073 122.014C222.002 121.748 221.728 121.589 221.461 121.661C221.194 121.732 221.036 122.006 221.107 122.273L222.073 122.014ZM223.354 131.881C223.41 132.151 223.675 132.325 223.945 132.269C224.216 132.213 224.389 131.948 224.333 131.678L223.354 131.881ZM226.247 141.396C226.194 141.125 225.931 140.948 225.66 141.001C225.389 141.054 225.213 141.316 225.266 141.587L226.247 141.396ZM227.376 151.279C227.445 151.547 227.718 151.708 227.986 151.639C228.253 151.57 228.414 151.297 228.345 151.03L227.376 151.279ZM231.644 160.219C231.515 159.975 231.213 159.88 230.968 160.009C230.724 160.137 230.63 160.439 230.758 160.684L231.644 160.219ZM0.870014 5.11237C2.53317 5.56014 4.20745 5.94818 5.89172 6.28173L6.08598 5.30078C4.42283 4.97142 2.77049 4.58842 1.12999 4.14675L0.870014 5.11237ZM16.0959 7.66963C19.4952 7.93961 22.9249 8.03731 26.3761 8.0029L26.3661 7.00295C22.9402 7.03711 19.5406 6.94007 16.175 6.67277L16.0959 7.66963ZM36.6418 7.5541C40.0381 7.30467 43.4478 6.96728 46.8624 6.57884L46.7494 5.58525C43.3441 5.97262 39.9482 6.30858 36.5686 6.55678L36.6418 7.5541ZM57.0378 5.30726C60.4303 4.85697 63.8125 4.39336 67.1932 3.95002L67.0632 2.95851C63.684 3.40165 60.2905 3.86675 56.9063 4.31595L57.0378 5.30726ZM77.3534 2.71385C80.7691 2.34283 84.1664 2.03127 87.5379 1.81672L87.4744 0.818734C84.0844 1.03446 80.6718 1.34751 77.2454 1.7197L77.3534 2.71385ZM97.7398 1.50263C101.172 1.52511 104.568 1.69291 107.918 2.04757L108.023 1.05313C104.636 0.694514 101.207 0.525317 97.7463 0.50265L97.7398 1.50263ZM117.949 3.7438C119.596 4.1372 121.23 4.58945 122.848 5.10598L123.152 4.15332C121.509 3.62894 119.852 3.17008 118.181 2.77115L117.949 3.7438ZM122.848 5.10598C124.594 5.66327 126.234 6.2422 127.777 6.84174L128.139 5.90968C126.576 5.30217 124.916 4.71644 123.152 4.15332L122.848 5.10598ZM137.073 11.3577C140.351 13.3586 142.969 15.5134 145.122 17.7986L145.85 17.1128C143.632 14.7596 140.945 12.5492 137.594 10.5041L137.073 11.3577ZM151.035 26.2094C152.628 29.2389 153.893 32.4245 155.149 35.7463L156.085 35.3926C154.827 32.0663 153.543 28.8315 151.92 25.7439L151.035 26.2094ZM158.961 45.5062C160.281 48.5697 161.818 51.6993 163.784 54.8663L164.633 54.339C162.701 51.2248 161.185 48.1418 159.88 45.1107L158.961 45.5062ZM170.106 63.2929C172.269 65.705 174.776 68.1223 177.714 70.5342L178.348 69.7613C175.448 67.3806 172.979 64.9983 170.851 62.6252L170.106 63.2929ZM186.257 76.7068C187.68 77.6179 189.176 78.527 190.751 79.4333L191.249 78.5667C189.688 77.6679 188.206 76.767 186.797 75.8647L186.257 76.7068ZM190.751 79.4333C192.206 80.2715 193.594 81.144 194.917 82.0478L195.481 81.2221C194.137 80.3036 192.727 79.4175 191.249 78.5667L190.751 79.4333ZM202.532 88.2182C204.964 90.5515 207.104 93.0158 208.998 95.5765L209.802 94.9819C207.876 92.3779 205.699 89.8707 203.225 87.4967L202.532 88.2182ZM214.185 103.896C215.722 106.835 217.026 109.845 218.151 112.883L219.089 112.535C217.951 109.464 216.631 106.414 215.071 103.432L214.185 103.896ZM221.107 122.273C221.974 125.514 222.701 128.734 223.354 131.881L224.333 131.678C223.678 128.52 222.946 125.28 222.073 122.014L221.107 122.273ZM225.266 141.587C225.937 145.023 226.605 148.286 227.376 151.279L228.345 151.03C227.581 148.067 226.918 144.83 226.247 141.396L225.266 141.587ZM230.758 160.684C231.584 162.256 232.529 163.654 233.634 164.841L234.366 164.159C233.333 163.05 232.437 161.73 231.644 160.219L230.758 160.684Z" fill="white"/>
</svg>
