<svg width="299" height="95" viewBox="0 0 299 95" fill="none" xmlns="http://www.w3.org/2000/svg">
<path d="M242.475 1.50051C242.199 1.51443 241.987 1.74929 242.001 2.02508C242.015 2.30087 242.249 2.51316 242.525 2.49924L242.475 1.50051ZM289 58.0004L288.527 57.8394L289 58.0004ZM0.646449 90.6468C0.451185 90.8421 0.451184 91.1587 0.646445 91.3539L3.82841 94.5359C4.02367 94.7312 4.34025 94.7312 4.53551 94.5359C4.73078 94.3407 4.73078 94.0241 4.53552 93.8288L1.70711 91.0004L4.53555 88.172C4.73081 87.9767 4.73081 87.6601 4.53555 87.4649C4.34029 87.2696 4.02371 87.2696 3.82845 87.4649L0.646449 90.6468ZM6.28062 91.1459C6.55427 91.1089 6.74611 90.8571 6.70911 90.5834C6.67211 90.3098 6.42028 90.1179 6.14662 90.1549L6.28062 91.1459ZM16.1097 87.5043C15.8525 87.6049 15.7255 87.8949 15.8261 88.1521C15.9267 88.4092 16.2167 88.5362 16.4739 88.4356L16.1097 87.5043ZM25.937 83.8547C26.178 83.7198 26.2639 83.4151 26.129 83.1742C25.9941 82.9333 25.6894 82.8473 25.4484 82.9822L25.937 83.8547ZM34.4104 77.6491C34.1748 77.7932 34.1007 78.101 34.2448 78.3365C34.3889 78.5721 34.6966 78.6463 34.9322 78.5022L34.4104 77.6491ZM43.8975 73.1542C44.1375 73.0176 44.2213 72.7123 44.0847 72.4723C43.9481 72.2323 43.6429 72.1485 43.4029 72.2851L43.8975 73.1542ZM52.6913 67.4237C52.4416 67.5416 52.3349 67.8397 52.4529 68.0894C52.5708 68.339 52.8689 68.4458 53.1185 68.3278L52.6913 67.4237ZM62.7236 64.3485C62.9838 64.256 63.1197 63.9701 63.0272 63.7099C62.9347 63.4497 62.6488 63.3138 62.3886 63.4063L62.7236 64.3485ZM72.4615 60.4193C72.1929 60.4836 72.0273 60.7534 72.0915 61.022C72.1558 61.2905 72.4256 61.4561 72.6942 61.3919L72.4615 60.4193ZM82.9087 59.5004C83.1824 59.4639 83.3746 59.2123 83.3381 58.9386C83.3015 58.6649 83.05 58.4727 82.7763 58.5092L82.9087 59.5004ZM93.2478 57.607C92.9719 57.6183 92.7574 57.8512 92.7688 58.1271C92.7802 58.403 93.013 58.6175 93.2889 58.6061L93.2478 57.607ZM103.681 58.7246C103.956 58.7472 104.198 58.5424 104.22 58.2672C104.243 57.992 104.038 57.7505 103.763 57.7279L103.681 58.7246ZM114.174 59.1843C113.902 59.1333 113.641 59.3119 113.59 59.5833C113.539 59.8547 113.717 60.1161 113.989 60.1671L114.174 59.1843ZM124.156 62.4228C124.424 62.4899 124.696 62.3271 124.763 62.0593C124.83 61.7914 124.667 61.5199 124.399 61.4528L124.156 62.4228ZM134.535 64.2008C134.269 64.1242 133.992 64.2772 133.916 64.5425C133.839 64.8078 133.992 65.085 134.257 65.1615L134.535 64.2008ZM144.272 68.1721C144.535 68.254 144.816 68.1066 144.898 67.8429C144.979 67.5791 144.832 67.299 144.568 67.2171L144.272 68.1721ZM154.565 70.3803C154.302 70.296 154.02 70.4408 153.936 70.7038C153.852 70.9667 153.997 71.2482 154.26 71.3326L154.565 70.3803ZM164.223 74.5378C164.486 74.6223 164.767 74.4776 164.852 74.2147C164.936 73.9518 164.791 73.6702 164.529 73.5857L164.223 74.5378ZM174.509 76.7601C174.245 76.6775 173.965 76.8242 173.882 77.0877C173.799 77.3512 173.946 77.6318 174.209 77.7144L174.509 76.7601ZM184.231 80.7822C184.496 80.8609 184.774 80.7102 184.853 80.4455C184.931 80.1808 184.781 79.9024 184.516 79.8237L184.231 80.7822ZM194.574 82.6978C194.307 82.6252 194.033 82.7823 193.96 83.0487C193.887 83.3151 194.044 83.59 194.311 83.6626L194.574 82.6978ZM204.467 86.2637C204.735 86.3276 205.005 86.1616 205.069 85.893C205.133 85.6244 204.967 85.3548 204.698 85.2909L204.467 86.2637ZM214.922 87.4943C214.651 87.4425 214.389 87.6204 214.337 87.8917C214.285 88.1629 214.463 88.4248 214.734 88.4766L214.922 87.4943ZM225.085 90.1445C225.359 90.1796 225.61 89.9861 225.645 89.7122C225.68 89.4383 225.486 89.1878 225.213 89.1526L225.085 90.1445ZM235.614 90.0701C235.338 90.0581 235.105 90.2719 235.093 90.5478C235.081 90.8237 235.295 91.0571 235.571 91.0692L235.614 90.0701ZM246.091 90.9511C246.366 90.931 246.573 90.6915 246.553 90.4161C246.533 90.1407 246.293 89.9337 246.018 89.9537L246.091 90.9511ZM256.266 88.4161C255.997 88.4801 255.831 88.7498 255.895 89.0184C255.959 89.287 256.229 89.4529 256.497 89.3889L256.266 88.4161ZM266.46 85.8937C266.708 85.7737 266.813 85.4748 266.693 85.2261C266.573 84.9774 266.274 84.8731 266.025 84.9932L266.46 85.8937ZM274.672 79.3796C274.462 79.5586 274.437 79.8742 274.616 80.0844C274.795 80.2947 275.11 80.32 275.32 80.141L274.672 79.3796ZM282.413 72.3434C282.573 72.118 282.519 71.806 282.294 71.6465C282.068 71.4869 281.756 71.5403 281.597 71.7657L282.413 72.3434ZM286.637 62.7352C286.526 62.9883 286.642 63.283 286.895 63.3933C287.148 63.5037 287.443 63.388 287.553 63.1349L286.637 62.7352ZM291.141 53.1532C291.227 52.8906 291.083 52.6085 290.821 52.523C290.558 52.4376 290.276 52.5812 290.19 52.8438L291.141 53.1532ZM293.258 42.8127C293.183 43.0785 293.337 43.3548 293.603 43.4298C293.869 43.5049 294.145 43.3504 294.22 43.0847L293.258 42.8127ZM296.773 32.8028C296.829 32.5324 296.655 32.2679 296.385 32.2121C296.114 32.1563 295.85 32.3303 295.794 32.6007L296.773 32.8028ZM297.223 22.2729C297.209 22.5487 297.422 22.7832 297.697 22.7967C297.973 22.8102 298.208 22.5976 298.221 22.3218L297.223 22.2729ZM296.891 11.7735C296.791 11.5163 296.501 11.3892 296.243 11.4897C295.986 11.5902 295.859 11.8801 295.96 12.1374L296.891 11.7735ZM289.189 4.91938C289.436 5.04212 289.736 4.9411 289.859 4.69374C289.982 4.44637 289.881 4.14634 289.633 4.0236L289.189 4.91938ZM279.369 1.26982C279.095 1.23529 278.845 1.4294 278.81 1.70337C278.776 1.97735 278.97 2.22744 279.244 2.26197L279.369 1.26982ZM268.795 1.64497C269.071 1.64805 269.298 1.42671 269.301 1.15059C269.304 0.874461 269.082 0.648116 268.806 0.64503L268.795 1.64497ZM258.277 0.794579C258.001 0.803629 257.784 1.0347 257.793 1.3107C257.802 1.58669 258.034 1.80309 258.31 1.79404L258.277 0.794579ZM247.787 2.23782C248.063 2.22447 248.276 1.99005 248.263 1.71423C248.249 1.43841 248.015 1.22564 247.739 1.23899L247.787 2.23782ZM0.999997 91.5004C2.81343 91.5004 4.56956 91.3773 6.28062 91.1459L6.14662 90.1549C4.47922 90.3804 2.76785 90.5004 1 90.5004L0.999997 91.5004ZM16.4739 88.4356C19.6794 87.1821 22.7998 85.6116 25.937 83.8547L25.4484 82.9822C22.3346 84.726 19.2577 86.2733 16.1097 87.5043L16.4739 88.4356ZM34.9322 78.5022C37.8051 76.7449 40.7679 74.9352 43.8975 73.1542L43.4029 72.2851C40.2576 74.075 37.282 75.8926 34.4104 77.6491L34.9322 78.5022ZM53.1185 68.3278C56.1329 66.9035 59.3193 65.5592 62.7236 64.3485L62.3886 63.4063C58.9495 64.6293 55.7322 65.9868 52.6913 67.4237L53.1185 68.3278ZM72.6942 61.3919C75.9075 60.623 79.3035 59.982 82.9087 59.5004L82.7763 58.5092C79.1371 58.9953 75.7077 59.6426 72.4615 60.4193L72.6942 61.3919ZM93.2889 58.6061C94.9834 58.5364 96.7198 58.5003 98.5 58.5003V57.5003C96.7063 57.5003 94.9562 57.5366 93.2478 57.607L93.2889 58.6061ZM98.5 58.5003C100.161 58.5003 101.889 58.5774 103.681 58.7246L103.763 57.7279C101.948 57.5789 100.191 57.5003 98.5 57.5003V58.5003ZM113.989 60.1671C117.247 60.7799 120.643 61.5426 124.156 62.4228L124.399 61.4528C120.871 60.5688 117.455 59.8016 114.174 59.1843L113.989 60.1671ZM134.257 65.1615C137.527 66.1052 140.871 67.1161 144.272 68.1721L144.568 67.2171C141.163 66.1597 137.813 65.1467 134.535 64.2008L134.257 65.1615ZM154.26 71.3326C157.548 72.3871 160.871 73.461 164.223 74.5378L164.529 73.5857C161.181 72.51 157.853 71.4346 154.565 70.3803L154.26 71.3326ZM174.209 77.7144C177.542 78.7591 180.887 79.7877 184.231 80.7822L184.516 79.8237C181.178 78.8309 177.838 77.8038 174.509 76.7601L174.209 77.7144ZM194.311 83.6626C197.714 84.5902 201.103 85.4636 204.467 86.2637L204.698 85.2909C201.347 84.4936 197.968 83.623 194.574 82.6978L194.311 83.6626ZM214.734 88.4766C218.234 89.1449 221.689 89.7085 225.085 90.1445L225.213 89.1526C221.84 88.7196 218.404 88.1593 214.922 87.4943L214.734 88.4766ZM235.571 91.0692C239.177 91.227 242.691 91.1983 246.091 90.9511L246.018 89.9537C242.662 90.1977 239.187 90.2265 235.614 90.0701L235.571 91.0692ZM256.497 89.3889C259.999 88.5544 263.33 87.4044 266.46 85.8937L266.025 84.9932C262.967 86.4693 259.705 87.5965 256.266 88.4161L256.497 89.3889ZM275.32 80.141C277.916 77.9304 280.289 75.3438 282.413 72.3434L281.597 71.7657C279.52 74.6998 277.203 77.2244 274.672 79.3796L275.32 80.141ZM287.553 63.1349C288.242 61.5557 288.882 59.8988 289.473 58.1614L288.527 57.8394C287.944 59.5517 287.313 61.1826 286.637 62.7352L287.553 63.1349ZM289.473 58.1614C290.058 56.4424 290.614 54.7735 291.141 53.1532L290.19 52.8438C289.665 54.4595 289.11 56.1242 288.527 57.8394L289.473 58.1614ZM294.22 43.0847C295.276 39.3486 296.128 35.9298 296.773 32.8028L295.794 32.6007C295.155 35.6991 294.309 39.0941 293.258 42.8127L294.22 43.0847ZM298.221 22.3218C298.429 18.088 297.999 14.6099 296.891 11.7735L295.96 12.1374C297 14.7997 297.426 18.1253 297.223 22.2729L298.221 22.3218ZM289.633 4.0236C286.864 2.64944 283.439 1.78287 279.369 1.26982L279.244 2.26197C283.254 2.76744 286.557 3.6136 289.189 4.91938L289.633 4.0236ZM268.806 0.64503C265.571 0.608879 262.062 0.670455 258.277 0.794579L258.31 1.79404C262.086 1.67019 265.58 1.60904 268.795 1.64497L268.806 0.64503ZM247.739 1.23899C246.029 1.32174 244.275 1.40966 242.475 1.50051L242.525 2.49924C244.325 2.4084 246.079 2.32052 247.787 2.23782L247.739 1.23899Z" fill="#3F4145"/>
</svg>
