<svg width="245" height="339" viewBox="0 0 245 339" fill="none" xmlns="http://www.w3.org/2000/svg">
<path d="M110 10.0002L109.979 9.50062L110 10.0002ZM222.5 76.0002L222.217 76.4124L222.5 76.0002ZM243.5 144L243.995 143.926L243.5 144ZM208 329.5L207.896 329.011L208 329.5ZM179.146 334.647C178.951 334.842 178.951 335.158 179.146 335.354L182.328 338.536C182.524 338.731 182.84 338.731 183.036 338.536C183.231 338.34 183.231 338.024 183.036 337.829L180.207 335L183.036 332.172C183.231 331.976 183.231 331.66 183.036 331.465C182.84 331.269 182.524 331.269 182.328 331.465L179.146 334.647ZM0.552894 1.49735C1.9642 1.34721 3.47778 1.25333 5.08481 1.2095L5.05755 0.209876C3.42926 0.254283 1.88903 0.349566 0.447106 0.502964L0.552894 1.49735ZM14.1993 1.39794C17.0781 1.56481 20.1295 1.82097 23.3207 2.1432L23.4212 1.14826C20.2198 0.824997 17.1537 0.567516 14.2571 0.399613L14.1993 1.39794ZM32.4283 3.17856C35.3824 3.54468 38.4171 3.94399 41.5112 4.36143L41.6449 3.37041C38.5489 2.95271 35.5103 2.55288 32.5513 2.18615L32.4283 3.17856ZM50.6017 5.60503C53.6031 6.01755 56.6387 6.43317 59.69 6.83914L59.8218 5.84788C56.7728 5.44221 53.7391 5.02684 50.7379 4.61434L50.6017 5.60503ZM68.7931 8.00572C71.841 8.37807 74.8872 8.72851 77.9141 9.04457L78.0179 8.04998C74.998 7.73465 71.9577 7.38489 68.9143 7.0131L68.7931 8.00572ZM87.0621 9.88841C90.1647 10.1322 93.2269 10.3246 96.2285 10.4514L96.2706 9.45224C93.2829 9.32608 90.2329 9.13447 87.1404 8.89149L87.0621 9.88841ZM105.43 10.6171C106.986 10.6028 108.517 10.5644 110.021 10.4997L109.979 9.50062C108.486 9.56479 106.966 9.6029 105.421 9.61718L105.43 10.6171ZM110.021 10.4997C111.604 10.4316 113.181 10.4253 114.751 10.4773L114.784 9.47785C113.189 9.42502 111.587 9.43143 109.979 9.50062L110.021 10.4997ZM124.154 11.4729C127.25 12.021 130.317 12.7763 133.351 13.7111L133.646 12.7555C130.575 11.8094 127.468 11.044 124.328 10.4882L124.154 11.4729ZM142.248 16.9823C145.138 18.2124 147.993 19.5867 150.81 21.0794L151.278 20.1958C148.439 18.6911 145.558 17.3044 142.64 16.0622L142.248 16.9823ZM159.041 25.8229C161.725 27.49 164.37 29.246 166.971 31.0665L167.544 30.2472C164.93 28.4174 162.27 26.6512 159.569 24.9734L159.041 25.8229ZM174.641 36.6951C177.175 38.6361 179.661 40.6175 182.098 42.6142L182.732 41.8407C180.288 39.8382 177.793 37.8499 175.249 35.9012L174.641 36.6951ZM189.392 48.7424C191.848 50.8506 194.244 52.9468 196.577 55.0022L197.238 54.2518C194.903 52.195 192.503 50.0957 190.043 47.9837L189.392 48.7424ZM203.719 61.3084C206.212 63.5043 208.62 65.6082 210.937 67.5761L211.584 66.8139C209.274 64.8519 206.871 62.7527 204.38 60.5581L203.719 61.3084ZM218.359 73.6056C219.682 74.6166 220.969 75.5559 222.217 76.4124L222.783 75.5879C221.551 74.7427 220.279 73.8137 218.966 72.811L218.359 73.6056ZM222.217 76.4124C223.534 77.316 224.759 78.2446 225.9 79.1962L226.541 78.4282C225.375 77.4559 224.124 76.5086 222.783 75.5879L222.217 76.4124ZM232.274 85.7916C234.208 88.3122 235.736 90.9474 236.947 93.6733L237.861 93.2673C236.62 90.4737 235.052 87.7697 233.068 85.1829L232.274 85.7916ZM239.791 102.413C240.461 105.394 240.891 108.445 241.178 111.543L242.174 111.451C241.884 108.323 241.448 105.227 240.766 102.194L239.791 102.413ZM241.698 120.803C241.746 122.35 241.782 123.9 241.817 125.452C241.853 127.004 241.888 128.557 241.935 130.106L242.935 130.076C242.888 128.531 242.853 126.981 242.817 125.429C242.781 123.878 242.745 122.324 242.698 120.772L241.698 120.803ZM242.453 139.426C242.597 140.986 242.777 142.537 243.005 144.074L243.995 143.926C243.769 142.411 243.591 140.879 243.449 139.335L242.453 139.426ZM243.005 144.074C243.207 145.424 243.293 146.908 243.278 148.512L244.278 148.522C244.293 146.878 244.205 145.339 243.995 143.926L243.005 144.074ZM242.411 157.479C241.957 160.275 241.344 163.245 240.618 166.341L241.592 166.57C242.322 163.458 242.939 160.464 243.398 157.639L242.411 157.479ZM238.37 175.125C237.588 177.989 236.751 180.91 235.891 183.855L236.851 184.135C237.712 181.188 238.55 178.261 239.335 175.389L238.37 175.125ZM233.317 192.564C232.447 195.494 231.584 198.413 230.758 201.287L231.719 201.563C232.544 198.694 233.406 195.778 234.275 192.849L233.317 192.564ZM228.336 210.056C227.534 213.123 226.815 216.093 226.223 218.918L227.202 219.123C227.79 216.319 228.504 213.366 229.304 210.309L228.336 210.056ZM224.756 227.92C224.59 229.536 224.5 231.067 224.5 232.5H225.5C225.5 231.108 225.587 229.611 225.751 228.022L224.756 227.92ZM224.5 232.5C224.5 234.007 224.53 235.737 224.579 237.651L225.579 237.626C225.53 235.715 225.5 233.995 225.5 232.5H224.5ZM224.905 247.96C225.01 251.192 225.117 254.657 225.196 258.27L226.196 258.248C226.116 254.63 226.01 251.161 225.904 247.928L224.905 247.96ZM225.324 268.581C225.329 271.981 225.292 275.435 225.193 278.882L226.193 278.91C226.292 275.451 226.329 271.987 226.324 268.579L225.324 268.581ZM224.691 289.167C224.439 292.674 224.1 296.106 223.65 299.394L224.641 299.53C225.094 296.216 225.435 292.763 225.688 289.238L224.691 289.167ZM221.778 309.478C220.891 313.086 219.8 316.346 218.465 319.132L219.367 319.564C220.739 316.699 221.851 313.37 222.749 309.717L221.778 309.478ZM212.383 327.009C211.027 327.982 209.537 328.662 207.896 329.011L208.104 329.989C209.888 329.61 211.505 328.87 212.966 327.821L212.383 327.009ZM207.896 329.011C205.078 329.611 202.744 330.154 200.769 330.646L201.01 331.616C202.974 331.128 205.297 330.586 208.104 329.989L207.896 329.011ZM186.72 334.184C184.922 334.399 182.732 334.5 179.5 334.5V335.5C182.749 335.5 184.983 335.399 186.839 335.177L186.72 334.184Z" fill="white"/>
</svg>
