<svg width="273" height="66" viewBox="0 0 273 66" fill="none" xmlns="http://www.w3.org/2000/svg">
<path d="M1.78591 0.539873C1.80793 0.26461 1.60264 0.0236134 1.32737 0.00159237C1.05211 -0.0204287 0.811113 0.184864 0.789092 0.460127L1.78591 0.539873ZM6.2875 38.5L6.72774 38.263L6.2875 38.5ZM187 29.5L186.96 29.0016L186.947 29.0027L186.934 29.0044L187 29.5ZM272.854 62.3536C273.049 62.1583 273.049 61.8417 272.854 61.6464L269.672 58.4645C269.476 58.2692 269.16 58.2692 268.964 58.4645C268.769 58.6597 268.769 58.9763 268.964 59.1716L271.793 62L268.964 64.8284C268.769 65.0237 268.769 65.3403 268.964 65.5355C269.16 65.7308 269.476 65.7308 269.672 65.5355L272.854 62.3536ZM0.541693 5.31814C0.534337 5.59419 0.752152 5.82393 1.0282 5.83128C1.30424 5.83864 1.53398 5.62082 1.54134 5.34478L0.541693 5.31814ZM1.67353 14.9863C1.65862 14.7106 1.423 14.4992 1.14726 14.5141C0.871525 14.529 0.660082 14.7646 0.674994 15.0403L1.67353 14.9863ZM1.65736 24.7224C1.69995 24.9953 1.95565 25.1819 2.22849 25.1394C2.50133 25.0968 2.68798 24.8411 2.6454 24.5682L1.65736 24.7224ZM4.85292 33.8946C4.76321 33.6334 4.47876 33.4945 4.2176 33.5842C3.95644 33.6739 3.81746 33.9583 3.90717 34.2195L4.85292 33.8946ZM9.88879 42.4816C10.124 42.6262 10.432 42.5528 10.5766 42.3175C10.7212 42.0823 10.6478 41.7744 10.4126 41.6297L9.88879 42.4816ZM19.9932 45.8251C19.7316 45.7369 19.4479 45.8774 19.3597 46.1391C19.2714 46.4008 19.412 46.6844 19.6737 46.7727L19.9932 45.8251ZM29.9213 49.6983C30.1895 49.7639 30.4601 49.5996 30.5257 49.3314C30.5913 49.0631 30.427 48.7925 30.1587 48.7269L29.9213 49.6983ZM40.5328 50.9557C40.2615 50.9044 40 51.0829 39.9488 51.3543C39.8976 51.6256 40.076 51.8871 40.3474 51.9383L40.5328 50.9557ZM50.8285 53.6883C51.1018 53.7284 51.3557 53.5394 51.3958 53.2661C51.4358 52.9929 51.2468 52.739 50.9736 52.6989L50.8285 53.6883ZM61.4862 54.0441C61.2117 54.014 60.9647 54.2121 60.9346 54.4866C60.9044 54.7611 61.1025 55.008 61.377 55.0382L61.4862 54.0441ZM71.9691 56.0127C72.2445 56.0331 72.4843 55.8264 72.5047 55.551C72.5251 55.2756 72.3184 55.0358 72.043 55.0154L71.9691 56.0127ZM82.6265 55.6031C82.3505 55.5931 82.1187 55.8087 82.1087 56.0846C82.0986 56.3606 82.3142 56.5924 82.5902 56.6024L82.6265 55.6031ZM93.2253 56.7638C93.5015 56.7618 93.7237 56.5363 93.7217 56.2602C93.7196 55.984 93.4941 55.7618 93.218 55.7639L93.2253 56.7638ZM103.796 55.4075C103.521 55.4248 103.311 55.6622 103.329 55.9378C103.346 56.2134 103.583 56.4228 103.859 56.4055L103.796 55.4075ZM114.475 55.3453C114.748 55.3062 114.938 55.0529 114.899 54.7795C114.86 54.5062 114.607 54.3163 114.334 54.3553L114.475 55.3453ZM124.662 52.2368C124.396 52.3124 124.242 52.589 124.318 52.8546C124.393 53.1202 124.67 53.2742 124.935 53.1986L124.662 52.2368ZM134.731 49.4064C134.983 49.2931 135.095 48.9971 134.982 48.7453C134.869 48.4934 134.573 48.3811 134.321 48.4944L134.731 49.4064ZM143.514 43.9526C143.272 44.0849 143.183 44.3886 143.315 44.631C143.447 44.8734 143.751 44.9626 143.993 44.8303L143.514 43.9526ZM152.861 39.5872C153.097 39.4445 153.173 39.1371 153.03 38.9008C152.887 38.6644 152.58 38.5885 152.344 38.7312L152.861 39.5872ZM161.654 34.1696C161.394 34.2627 161.258 34.5488 161.352 34.8088C161.445 35.0688 161.731 35.2042 161.991 35.1112L161.654 34.1696ZM171.841 32.4678C172.111 32.4121 172.285 32.1477 172.229 31.8772C172.174 31.6068 171.909 31.4327 171.639 31.4884L171.841 32.4678ZM181.798 29.7268C181.525 29.7675 181.337 30.0219 181.378 30.295C181.418 30.5681 181.673 30.7566 181.946 30.7159L181.798 29.7268ZM191.497 30.1978C191.77 30.2355 192.023 30.0443 192.06 29.7707C192.098 29.4972 191.907 29.2448 191.633 29.2071L191.497 30.1978ZM200.666 31.3449C200.402 31.2635 200.122 31.4114 200.041 31.6753C199.959 31.9391 200.107 32.219 200.371 32.3004L200.666 31.3449ZM209.018 35.3297C209.276 35.4288 209.565 35.3002 209.665 35.0424C209.764 34.7846 209.635 34.4954 209.377 34.3963L209.018 35.3297ZM217.913 37.8758C217.659 37.7673 217.365 37.8851 217.256 38.1391C217.148 38.393 217.266 38.6868 217.52 38.7953L217.913 37.8758ZM225.93 42.5097C226.182 42.6238 226.478 42.5124 226.592 42.261C226.706 42.0095 226.595 41.7131 226.344 41.5991L225.93 42.5097ZM234.703 45.4611C234.453 45.3439 234.155 45.4516 234.038 45.7016C233.92 45.9516 234.028 46.2493 234.278 46.3665L234.703 45.4611ZM242.59 50.2917C242.84 50.41 243.138 50.3036 243.256 50.0541C243.374 49.8046 243.268 49.5064 243.019 49.3881L242.59 50.2917ZM251.345 53.319C251.095 53.202 250.798 53.3099 250.681 53.5601C250.564 53.8102 250.671 54.1078 250.922 54.2248L251.345 53.319ZM259.303 58.0497C259.556 58.1609 259.851 58.0461 259.962 57.7933C260.073 57.5405 259.958 57.2455 259.705 57.1343L259.303 58.0497ZM268.208 60.5337C267.946 60.4465 267.663 60.5883 267.576 60.8503C267.489 61.1124 267.631 61.3954 267.893 61.4826L268.208 60.5337ZM0.789092 0.460127C0.680211 1.82114 0.590976 3.46868 0.541693 5.31814L1.54134 5.34478C1.5902 3.51093 1.6786 1.88123 1.78591 0.539873L0.789092 0.460127ZM0.674994 15.0403C0.845832 18.1994 1.15476 21.5024 1.65736 24.7224L2.6454 24.5682C2.14902 21.388 1.84296 18.1193 1.67353 14.9863L0.674994 15.0403ZM3.90717 34.2195C4.46411 35.8407 5.10677 37.3618 5.84726 38.737L6.72774 38.263C6.018 36.9449 5.39597 35.4754 4.85292 33.8946L3.90717 34.2195ZM5.84726 38.737C6.55574 40.0528 7.96866 41.301 9.88879 42.4816L10.4126 41.6297C8.54528 40.4816 7.31146 39.347 6.72774 38.263L5.84726 38.737ZM19.6737 46.7727C22.7233 47.8011 26.171 48.7816 29.9213 49.6983L30.1587 48.7269C26.4297 47.8154 23.0102 46.8426 19.9932 45.8251L19.6737 46.7727ZM40.3474 51.9383C43.7143 52.5737 47.2241 53.1598 50.8285 53.6883L50.9736 52.6989C47.3819 52.1723 43.8856 51.5884 40.5328 50.9557L40.3474 51.9383ZM61.377 55.0382C64.878 55.4226 68.4218 55.7497 71.9691 56.0127L72.043 55.0154C68.5077 54.7533 64.9756 54.4273 61.4862 54.0441L61.377 55.0382ZM82.5902 56.6024C86.1867 56.733 89.7459 56.7893 93.2253 56.7638L93.218 55.7639C89.7542 55.7892 86.2096 55.7332 82.6265 55.6031L82.5902 56.6024ZM103.859 56.4055C107.578 56.172 111.138 55.8224 114.475 55.3453L114.334 54.3553C111.026 54.8281 107.493 55.1754 103.796 55.4075L103.859 56.4055ZM124.935 53.1986C126.748 52.6827 128.436 52.105 129.98 51.4615L129.595 50.5385C128.093 51.1644 126.443 51.7298 124.662 52.2368L124.935 53.1986ZM129.98 51.4615C131.688 50.7498 133.266 50.0653 134.731 49.4064L134.321 48.4944C132.865 49.1494 131.295 49.8301 129.595 50.5385L129.98 51.4615ZM143.993 44.8303C147.692 42.8119 150.376 41.0872 152.861 39.5872L152.344 38.7312C149.836 40.2456 147.187 41.9481 143.514 43.9526L143.993 44.8303ZM161.991 35.1112C164.585 34.183 167.715 33.3177 171.841 32.4678L171.639 31.4884C167.481 32.345 164.303 33.2218 161.654 34.1696L161.991 35.1112ZM181.946 30.7159C183.547 30.4775 185.25 30.2378 187.066 29.9956L186.934 29.0044C185.113 29.2471 183.405 29.4876 181.798 29.7268L181.946 30.7159ZM187.04 29.9984C188.326 29.8941 189.82 29.9666 191.497 30.1978L191.633 29.2071C189.91 28.9696 188.339 28.8898 186.96 29.0016L187.04 29.9984ZM200.371 32.3004C203.081 33.1365 205.985 34.1638 209.018 35.3297L209.377 34.3963C206.329 33.2246 203.403 32.1893 200.666 31.3449L200.371 32.3004ZM217.52 38.7953C220.287 39.9782 223.105 41.2277 225.93 42.5097L226.344 41.5991C223.513 40.3148 220.688 39.0623 217.913 37.8758L217.52 38.7953ZM234.278 46.3665C237.097 47.688 239.882 49.0079 242.59 50.2917L243.019 49.3881C240.311 48.1044 237.524 46.7836 234.703 45.4611L234.278 46.3665ZM250.922 54.2248C253.916 55.6251 256.735 56.9204 259.303 58.0497L259.705 57.1343C257.147 56.0094 254.336 54.7178 251.345 53.319L250.922 54.2248ZM267.893 61.4826C269.81 62.1204 271.39 62.5 272.5 62.5V61.5C271.565 61.5 270.118 61.1689 268.208 60.5337L267.893 61.4826Z" fill="white"/>
</svg>
