<svg width="243" height="110" viewBox="0 0 243 110" fill="none" xmlns="http://www.w3.org/2000/svg">
<path d="M63 2.00022L63.0872 2.49254L63 2.00022ZM212.5 85L212.062 85.241L212.5 85ZM242.142 108.479C242.407 108.401 242.558 108.122 242.479 107.858L241.197 103.544C241.118 103.279 240.84 103.129 240.575 103.207C240.31 103.286 240.16 103.564 240.238 103.829L241.378 107.663L237.544 108.803C237.279 108.882 237.129 109.16 237.207 109.425C237.286 109.69 237.564 109.84 237.829 109.762L242.142 108.479ZM1.35355 31.8538C2.44885 30.7585 3.88236 29.4655 5.63387 28.0387L5.00228 27.2634C3.22991 28.7072 1.77024 30.0229 0.646447 31.1467L1.35355 31.8538ZM14.9959 21.3113C17.9692 19.404 21.3116 17.4444 24.991 15.527L24.5289 14.6402C20.8221 16.5718 17.4537 18.5466 14.4559 20.4696L14.9959 21.3113ZM35.4456 10.6358C38.8651 9.21027 42.4845 7.86602 46.2869 6.6523L45.9828 5.69966C42.1518 6.9225 38.5055 8.27677 35.0608 9.71283L35.4456 10.6358ZM57.4267 3.62867C59.2804 3.2129 61.1677 2.83271 63.0872 2.49254L62.9128 1.50789C60.9781 1.85074 59.0759 2.23391 57.2078 2.65291L57.4267 3.62867ZM63.0872 2.49254C64.6154 2.22173 66.2091 1.99364 67.8616 1.80609L67.7488 0.812472C66.0778 1.00213 64.4634 1.23308 62.9128 1.50789L63.0872 2.49254ZM77.5388 1.16886C80.6589 1.09136 83.9102 1.11798 87.2603 1.23752L87.296 0.238152C83.9283 0.117995 80.6567 0.0911052 77.514 0.169165L77.5388 1.16886ZM96.9714 1.81384C100.152 2.072 103.388 2.39778 106.656 2.78268L106.773 1.78955C103.494 1.40335 100.246 1.07634 97.0523 0.817122L96.9714 1.81384ZM116.307 4.07323C119.511 4.55053 122.722 5.07555 125.918 5.64052L126.092 4.65579C122.888 4.08932 119.668 3.56284 116.454 3.08414L116.307 4.07323ZM135.483 7.45673C138.702 8.10952 141.882 8.79599 144.998 9.50779L145.221 8.5329C142.097 7.81931 138.909 7.13111 135.682 6.47668L135.483 7.45673ZM154.459 11.7935C157.71 12.6231 160.855 13.4727 163.863 14.3313L164.138 13.3697C161.121 12.5085 157.966 11.6564 154.706 10.8246L154.459 11.7935ZM173.191 17.1639C176.531 18.2461 179.602 19.3229 182.34 20.3725L182.698 19.4387C179.94 18.3818 176.853 17.2992 173.499 16.2126L173.191 17.1639ZM191.233 24.2948C192.992 25.2313 194.314 26.0978 195.164 26.8702L195.836 26.1302C194.897 25.2759 193.49 24.3636 191.703 23.4121L191.233 24.2948ZM195.164 26.8702C196.271 27.8766 197.28 29.1964 198.203 30.778L199.067 30.2738C198.108 28.6314 197.039 27.2234 195.836 26.1302L195.164 26.8702ZM202.03 40.1521C202.956 43.241 203.752 46.6056 204.465 50.0736L205.444 49.8722C204.728 46.3874 203.925 42.9919 202.987 39.865L202.03 40.1521ZM206.325 60.1501C206.922 63.6495 207.482 67.0894 208.05 70.2759L209.035 70.1002C208.467 66.918 207.909 63.4923 207.31 59.982L206.325 60.1501ZM210.213 80.3504C210.764 82.3101 211.369 83.9811 212.062 85.241L212.938 84.759C212.299 83.5973 211.719 82.0108 211.176 80.0798L210.213 80.3504ZM212.062 85.241C212.752 86.4964 213.736 87.7998 214.923 89.119L215.667 88.4499C214.51 87.1656 213.58 85.9252 212.938 84.759L212.062 85.241ZM221.952 95.5239C224.391 97.451 227.029 99.3334 229.63 101.075L230.186 100.244C227.601 98.5132 224.986 96.6463 222.572 94.7393L221.952 95.5239ZM237.646 106.108C239.171 107.005 240.567 107.792 241.762 108.44L242.238 107.56C241.054 106.919 239.669 106.138 238.153 105.246L237.646 106.108Z" fill="white"/>
</svg>
