<svg width="229" height="61" viewBox="0 0 229 61" fill="none" xmlns="http://www.w3.org/2000/svg">
<path d="M0.5 1.00416C0.5 0.728016 0.723858 0.504158 1 0.504158C1.27614 0.504158 1.5 0.728016 1.5 1.00416H0.5ZM82.5 27.5041L82.8338 27.1319L82.5 27.5041ZM144.5 53.0003L144.766 52.5769L144.5 53.0003ZM228.354 46.6464C228.549 46.8417 228.549 47.1583 228.354 47.3535L225.172 50.5356C224.976 50.7309 224.66 50.7309 224.465 50.5356C224.269 50.3404 224.269 50.0238 224.465 49.8285L227.293 47L224.464 44.1717C224.269 43.9764 224.269 43.6598 224.464 43.4646C224.66 43.2693 224.976 43.2693 225.171 43.4646L228.354 46.6464ZM5.11242 3.87562C5.37164 3.97079 5.50462 4.25809 5.40945 4.51731C5.31427 4.77654 5.02698 4.90952 4.76775 4.81435L5.11242 3.87562ZM15.4574 7.3302C15.1854 7.28233 15.0037 7.02305 15.0516 6.75109C15.0995 6.47913 15.3588 6.29747 15.6307 6.34534L15.4574 7.3302ZM26.3955 8.09798C26.6682 8.1413 26.8542 8.39751 26.8109 8.67023C26.7675 8.94296 26.5113 9.12892 26.2386 9.08559L26.3955 8.09798ZM36.9923 10.8806C36.7205 10.8318 36.5397 10.5719 36.5885 10.3001C36.6373 10.0283 36.8972 9.84754 37.169 9.89633L36.9923 10.8806ZM47.8924 12.046C48.1617 12.1069 48.3308 12.3745 48.2699 12.6439C48.2091 12.9133 47.9414 13.0823 47.6721 13.0215L47.8924 12.046ZM58.1972 15.7709C57.933 15.6908 57.7837 15.4116 57.8638 15.1473C57.9439 14.8831 58.2231 14.7338 58.4873 14.8139L58.1972 15.7709ZM68.7994 18.5423C69.0528 18.652 69.1694 18.9463 69.0597 19.1997C68.9501 19.4532 68.6558 19.5697 68.4023 19.4601L68.7994 18.5423ZM77.9161 24.5782C77.6874 24.4235 77.6274 24.1126 77.7821 23.8839C77.9369 23.6552 78.2477 23.5952 78.4764 23.75L77.9161 24.5782ZM87.1716 30.8523C87.3857 31.0268 87.4177 31.3418 87.2432 31.5558C87.0687 31.7698 86.7537 31.8018 86.5397 31.6273L87.1716 30.8523ZM95.9536 38.178C95.712 38.0443 95.6245 37.74 95.7582 37.4984C95.8919 37.2568 96.1961 37.1693 96.4378 37.303L95.9536 38.178ZM106.995 40.9004C107.269 40.9368 107.461 41.1882 107.425 41.4619C107.389 41.7357 107.137 41.9281 106.864 41.8917L106.995 40.9004ZM118.238 42.7471C117.964 42.7127 117.77 42.4627 117.804 42.1887C117.839 41.9147 118.089 41.7205 118.363 41.7549L118.238 42.7471ZM129.489 44.6318C129.747 44.7315 129.875 45.0212 129.775 45.2786C129.675 45.5361 129.386 45.664 129.128 45.5643L129.489 44.6318ZM139.326 50.4874C139.085 50.3515 139.001 50.0464 139.137 49.8061C139.273 49.5657 139.578 49.4811 139.818 49.6171L139.326 50.4874ZM149.453 55.1006C149.705 55.2149 149.816 55.5113 149.702 55.7627C149.587 56.0141 149.291 56.1252 149.039 56.0109L149.453 55.1006ZM159.433 59.2062C159.161 59.1576 158.98 58.8979 159.028 58.626C159.077 58.3542 159.337 58.1732 159.609 58.2218L159.433 59.2062ZM170.245 59.0108C170.521 59.0057 170.749 59.2254 170.754 59.5015C170.759 59.7776 170.539 60.0055 170.263 60.0106L170.245 59.0108ZM181.058 59.0257C180.785 59.0683 180.529 58.8817 180.486 58.6088C180.444 58.336 180.631 58.0803 180.903 58.0377L181.058 59.0257ZM191.417 55.876C191.685 55.8093 191.957 55.9726 192.023 56.2406C192.09 56.5086 191.927 56.7798 191.659 56.8464L191.417 55.876ZM202.066 53.9552C201.801 54.0346 201.522 53.8846 201.443 53.6201C201.364 53.3556 201.514 53.0769 201.778 52.9975L202.066 53.9552ZM212.088 49.8428C212.352 49.7632 212.631 49.913 212.711 50.1774C212.79 50.4418 212.641 50.7207 212.376 50.8003L212.088 49.8428ZM222.749 48.0864C222.478 48.1385 222.216 47.9608 222.164 47.6896C222.112 47.4184 222.29 47.1564 222.561 47.1044L222.749 48.0864ZM1.5 1.00416C1.5 1.47908 1.74453 1.95547 2.34719 2.44998C2.95558 2.94918 3.88009 3.42316 5.11242 3.87562L4.76775 4.81435C3.49338 4.34645 2.44785 3.82612 1.71287 3.22304C0.972164 2.61527 0.5 1.88143 0.5 1.00416H1.5ZM15.6307 6.34534C18.8684 6.91529 22.5044 7.47984 26.3955 8.09798L26.2386 9.08559C22.3535 8.46841 18.7057 7.90202 15.4574 7.3302L15.6307 6.34534ZM37.169 9.89633C40.6928 10.5289 44.2974 11.2342 47.8924 12.046L47.6721 13.0215C44.0955 12.2137 40.506 11.5113 36.9923 10.8806L37.169 9.89633ZM58.4873 14.8139C62.0578 15.8963 65.5277 17.1268 68.7994 18.5423L68.4023 19.4601C65.1724 18.0626 61.7393 16.8447 58.1972 15.7709L58.4873 14.8139ZM78.4764 23.75C80.0308 24.8016 81.4894 25.9265 82.8338 27.1319L82.1662 27.8764C80.8591 26.7045 79.4369 25.6072 77.9161 24.5782L78.4764 23.75ZM82.8338 27.1319C84.364 28.5038 85.8066 29.7393 87.1716 30.8523L86.5397 31.6273C85.1613 30.5034 83.7068 29.2576 82.1662 27.8764L82.8338 27.1319ZM96.4378 37.303C100.554 39.5807 103.855 40.4831 106.995 40.9004L106.864 41.8917C103.606 41.4588 100.185 40.5192 95.9536 38.178L96.4378 37.303ZM118.363 41.7549C121.519 42.1513 125.097 42.9303 129.489 44.6318L129.128 45.5643C124.816 43.894 121.318 43.134 118.238 42.7471L118.363 41.7549ZM139.818 49.6171C141.383 50.5025 143.03 51.4854 144.766 52.5769L144.234 53.4236C142.51 52.3397 140.876 51.3648 139.326 50.4874L139.818 49.6171ZM144.766 52.5769C146.297 53.5393 147.861 54.3768 149.453 55.1006L149.039 56.0109C147.407 55.269 145.804 54.4102 144.234 53.4236L144.766 52.5769ZM159.609 58.2218C163.096 58.8449 166.658 59.0763 170.245 59.0108L170.263 60.0106C166.622 60.0771 162.994 59.8424 159.433 59.2062L159.609 58.2218ZM180.903 58.0377C184.45 57.4841 187.971 56.7325 191.417 55.876L191.659 56.8464C188.191 57.7082 184.641 58.4665 181.058 59.0257L180.903 58.0377ZM201.778 52.9975C203.586 52.4548 205.354 51.9098 207.075 51.3785C208.796 50.8474 210.47 50.3298 212.088 49.8428L212.376 50.8003C210.763 51.2861 209.092 51.8026 207.37 52.334C205.649 52.8653 203.878 53.4113 202.066 53.9552L201.778 52.9975ZM222.561 47.1044C224.548 46.7232 226.373 46.5 228 46.5L228 47.5C226.459 47.5 224.701 47.712 222.749 48.0864L222.561 47.1044Z" fill="white"/>
</svg>
