<svg width="32" height="32" viewBox="0 0 32 32" xmlns="http://www.w3.org/2000/svg">
<g clip-path="url(#clip0_37_2895)">
<path fill-rule="evenodd" clip-rule="evenodd" d="M10.6403 12.4143C10.6403 11.1457 10.8046 10.1229 11.2804 9.07651C12.1527 7.15816 14.0996 6.05718 16.2605 6.03244C17.6037 6.01704 18.9574 6.03246 20.3017 6.03246L20.3017 25.3286H17.9066L17.9031 18.0628L15.819 18.0649C15.7501 18.1494 14.2612 21.5053 14.1759 21.6964L12.6371 25.1168C12.6051 25.1879 12.5851 25.2839 12.5169 25.3286L9.78575 25.323L13.4071 17.4524C13.2537 17.4012 12.9329 17.1698 12.8078 17.0769C12.4742 16.8295 12.0815 16.4612 11.8279 16.1372C11.0268 15.1137 10.6403 13.8252 10.6403 12.4143ZM0 15.2549V15.2999C0.000258215 16.2413 0.00970145 16.9397 0.147809 17.8753C0.358457 19.302 0.728793 20.6533 1.32433 21.9521C1.54757 22.4391 1.78109 22.9201 2.05317 23.3825L2.50732 24.1225C2.57641 24.2233 2.62657 24.3073 2.69537 24.4086L3.30752 25.2385C3.34591 25.2892 3.36992 25.3155 3.40909 25.3647C3.4512 25.4175 3.47393 25.454 3.51812 25.5024C3.56057 25.5488 3.59236 25.5888 3.63087 25.6364C3.67222 25.6876 3.70553 25.7224 3.74352 25.7706L4.08469 26.1511C4.13681 26.2025 4.14879 26.2323 4.19912 26.2836C4.42299 26.5115 5.17321 27.2672 5.42188 27.4556C5.69645 27.6638 5.94509 27.8979 6.22273 28.1006L7.36065 28.8855C7.65782 29.0764 7.95993 29.2608 8.27433 29.4199C8.33404 29.4501 8.36684 29.4752 8.43404 29.508C8.49942 29.5399 8.53796 29.5577 8.59687 29.5929C8.94473 29.8005 9.51927 30.0271 9.91985 30.1966C10.6265 30.4956 11.3652 30.7175 12.1177 30.9023C13.1807 31.1636 14.4049 31.3576 15.5502 31.3576H15.5961C16.5559 31.3573 17.2914 31.3477 18.2436 31.2127C19.1549 31.0836 20.5228 30.7921 21.3863 30.4546C21.5017 30.4096 21.6161 30.375 21.7376 30.3286C21.8631 30.2806 21.9716 30.238 22.0941 30.1888C23.2526 29.7236 24.3751 29.1135 25.3825 28.3883L26.3504 27.6438C26.4412 27.5743 26.5199 27.4902 26.6052 27.4232L26.8712 27.1947C27.057 27.0425 27.4172 26.6615 27.6016 26.4807C27.6475 26.4357 27.6818 26.4046 27.7268 26.3588L28.1219 25.9183C28.5596 25.3856 28.9423 24.9356 29.3419 24.3484C29.4132 24.2436 29.4661 24.1557 29.5377 24.0513L29.9042 23.4509C30.2612 22.8249 30.5892 22.1789 30.8618 21.5111C30.9588 21.2733 31.042 21.0609 31.1268 20.8114C31.2976 20.3094 31.4377 19.8393 31.5688 19.3257C31.7 18.8121 31.8012 18.27 31.8718 17.7039C32.1053 15.8302 32.0301 13.8257 31.5612 12.0005C31.43 11.4902 31.2841 11.0056 31.1174 10.5166C30.9966 10.1625 30.8536 9.82 30.7025 9.47455C30.6512 9.35702 30.6068 9.24996 30.5503 9.13462C30.0818 8.17833 29.5587 7.25579 28.9119 6.41345L28.0423 5.34677C27.999 5.29613 27.9652 5.27569 27.9217 5.22039C27.6111 4.82636 26.5868 3.9134 26.295 3.67279L25.4672 3.03544C24.6001 2.39685 23.6561 1.88142 22.6792 1.4219C22.566 1.36867 22.4548 1.32535 22.3457 1.27844C22.2274 1.22765 22.1197 1.18537 21.9924 1.13546C20.8029 0.669306 19.3972 0.269644 18.1035 0.130393C16.5968 -0.031775 15.4425 -0.0535528 13.934 0.126977C13.3564 0.196105 12.8031 0.295343 12.2788 0.423859C11.7547 0.552375 11.275 0.689584 10.7627 0.85696L9.70873 1.25389C9.14553 1.49041 8.60102 1.76367 8.06894 2.05499C8.00989 2.08732 7.97964 2.10375 7.92262 2.13731L6.86919 2.79811C6.38316 3.12063 5.94047 3.47575 5.49624 3.84187L4.73071 4.54022C4.64119 4.60732 4.57691 4.70347 4.49706 4.78156C4.41676 4.86015 4.31893 4.94424 4.24835 5.02695C3.88092 5.45767 3.46908 5.8672 3.14463 6.33451C3.07705 6.43183 3.00588 6.52268 2.93435 6.61755C2.59035 7.07369 2.2766 7.57956 1.99041 8.08167C1.95644 8.14131 1.93952 8.18509 1.90429 8.24182C1.74748 8.49418 1.6214 8.77389 1.49076 9.04058C1.15927 9.71731 0.916218 10.4099 0.679122 11.1234C0.280218 12.3239 0 13.9625 0 15.2549Z" />
<path fill-rule="evenodd" clip-rule="evenodd" d="M13.2131 12.4709C13.2131 13.7549 13.6744 15.1848 14.8305 15.7354C15.1874 15.9054 15.7354 16.0309 16.1791 16.0309H17.8971L17.8973 8.06445H16.2223C15.7179 8.06445 15.2155 8.23187 14.8455 8.43194C13.7145 9.04314 13.2131 10.6069 13.2131 11.9066V12.4709Z" />
</g>
<defs>
<clipPath id="clip0_37_2895">
<rect width="32" height="32" fill="white"/>
</clipPath>
</defs>
</svg>
