<svg width="24" height="24" viewBox="0 0 24 24" xmlns="http://www.w3.org/2000/svg">
<path d="M13.4407 1.58611L15.3715 7.5689C15.4275 7.74604 15.5352 7.89182 15.6742 7.9905C15.8132 8.09142 15.9836 8.14973 16.1698 8.14973L22.4575 8.13628C22.7916 8.13628 23.0989 8.23945 23.35 8.42109C23.6034 8.60498 23.7963 8.86509 23.8994 9.18126C24.0026 9.49968 24.0003 9.82486 23.9039 10.1208C23.8052 10.4168 23.6169 10.6814 23.3477 10.8765L18.253 14.5631C18.1027 14.6707 17.9974 14.8187 17.9458 14.9802C17.892 15.1439 17.892 15.3233 17.9481 15.5004L19.9035 21.4765C20.0067 21.7927 20.0044 22.1179 19.908 22.4139C19.8116 22.7099 19.6232 22.9768 19.3541 23.1718C19.0851 23.3669 18.7756 23.4633 18.4639 23.4633C18.1521 23.4633 17.8427 23.3647 17.5736 23.1696L12.4945 19.4628C12.3442 19.3552 12.1716 19.3014 11.9989 19.3014C11.8285 19.3014 11.6558 19.3552 11.5056 19.4628L6.42646 23.1696C6.1574 23.3647 5.84788 23.4633 5.53621 23.4633C5.22454 23.4633 4.91282 23.3669 4.64596 23.1718C4.37685 22.9767 4.18851 22.7099 4.09208 22.4139C3.99562 22.1179 3.99341 21.7927 4.09658 21.4765L6.04972 15.5004C6.10804 15.3233 6.10804 15.1439 6.05422 14.9802C6.00266 14.8187 5.89729 14.6707 5.74701 14.5631L0.652162 10.8765C0.3831 10.6814 0.192459 10.4168 0.0960375 10.1208C-0.000384336 9.82476 -0.00263434 9.49964 0.100538 9.18122C0.203709 8.86504 0.396553 8.60493 0.649912 8.42104C0.901069 8.2394 1.20829 8.13623 1.54241 8.13623L7.83018 8.14968C8.01627 8.14968 8.18671 8.09137 8.32574 7.99045C8.46477 7.89178 8.57015 7.74604 8.62846 7.56886L10.5592 1.58606C10.6623 1.26984 10.8552 1.00748 11.1064 0.823637C11.3598 0.639746 11.6692 0.536621 11.9989 0.536621C12.3307 0.536621 12.6402 0.639793 12.8936 0.823637C13.1448 1.00753 13.3376 1.26989 13.4407 1.58611Z" />
</svg>
