<svg width="32" height="32" viewBox="0 0 32 32" xmlns="http://www.w3.org/2000/svg">
<g clip-path="url(#clip0_37_2885)">
<path fill-rule="evenodd" clip-rule="evenodd" d="M1.08167 9.97869L6.04938 13.0441C6.41315 12.2561 6.4081 11.7377 7.01532 10.7711C8.37206 8.61156 9.79185 7.23873 12.3262 6.2644C14.8996 5.2751 17.975 5.3802 20.4676 6.59428C21.5479 7.12044 21.6284 7.25644 22.5147 7.85447L25.426 4.79268C25.6666 4.53872 26.2528 3.99535 26.4039 3.74499C22.2908 0.216412 16.4742 -0.848022 11.2708 0.676538C6.75057 2.00092 2.71166 5.6295 1.08167 9.97869Z" />
<path fill-rule="evenodd" clip-rule="evenodd" d="M22.6328 23.3991L27.5838 26.478C28.0449 26.1592 29.2712 24.4946 29.5892 23.9655C30.1785 22.985 30.7126 22.0446 31.0815 20.9527C31.4862 19.7549 31.8257 18.5677 31.9257 17.3016C31.9864 16.532 32.004 15.9115 31.9992 15.137C31.9934 14.2007 31.8441 13.759 31.8055 13.0864L16.6227 13.0887L16.6401 18.3227L25.9354 18.323C25.5481 19.7199 24.7079 21.305 23.6793 22.3876C23.5391 22.5352 22.6635 23.3408 22.6328 23.3991Z" />
<path fill-rule="evenodd" clip-rule="evenodd" d="M3.41577 25.3401C3.76265 25.9349 5.01035 27.0821 5.57032 27.5553C8.22722 29.8006 11.4476 31.0585 14.9426 31.3182C17.4474 31.5044 20.1314 31.0196 22.4327 30.0417C24.0353 29.3607 26.4883 27.8092 27.5839 26.478L22.6329 23.3991C22.3951 23.5409 22.1026 23.7851 21.8709 23.9542C21.6342 24.127 21.3132 24.2951 21.0541 24.446C20.5847 24.7193 19.757 25.1011 19.2373 25.2429C17.5818 25.6947 16.3929 25.8684 14.6629 25.6593C13.3298 25.4981 11.9021 25.0249 10.76 24.3321C8.77216 23.1265 8.23216 22.1608 7.94729 21.9644L3.41577 25.3401Z" />
<path fill-rule="evenodd" clip-rule="evenodd" d="M3.41571 25.34L7.9472 21.9643C7.86218 21.7807 7.47396 21.3115 7.32815 21.0907C6.05995 19.1701 5.42535 16.5335 5.81232 14.2591L6.0494 13.044L1.08169 9.97852C0.620954 10.8498 0.178775 12.9654 0.0805005 13.9598C-0.191241 16.71 0.211816 19.8036 1.49084 22.2952C1.89667 23.0857 2.78001 24.7683 3.41571 25.34Z" />
</g>
<defs>
<clipPath id="clip0_37_2885">
<rect width="32" height="32" fill="white"/>
</clipPath>
</defs>
</svg>
