<svg width="32" height="32" viewBox="0 0 32 32" xmlns="http://www.w3.org/2000/svg">
<g clip-path="url(#clip0_37_2875)">
<path fill-rule="evenodd" clip-rule="evenodd" d="M3.68257e-10 15.0972C3.68257e-10 16.9956 -0.000277129 17.6818 0.479984 19.5639C0.933345 21.3407 1.80076 23.2209 2.903 24.7133C3.67321 25.7562 4.75744 26.7412 5.67403 27.6803C6.86725 28.6244 7.81135 29.2568 9.18669 29.8815C11.0569 30.7311 13.3101 31.3576 15.3998 31.3576C17.0749 31.3576 18.0012 31.3657 19.6721 30.9583C21.5215 30.5072 22.4702 30.0804 24.0134 29.2552C24.4209 29.0373 24.7208 28.8261 25.0871 28.5831C25.2988 28.4427 26.4299 27.6292 26.5596 27.4394H14.9998C14.9998 27.0642 14.9598 26.841 14.9598 26.4599V24.1873C14.9598 24.0719 15.417 23.7073 15.5367 23.6162L21.5097 18.222C22.7658 16.9915 24.1202 15.4301 25.0324 13.9538C25.6105 13.018 26.1996 11.6256 26.1996 10.4346C26.1996 9.38582 26.0345 8.50313 25.3903 7.81869C24.4167 6.78446 22.3359 6.75639 21.1509 7.48749C20.1345 8.11455 19.6461 9.4216 19.526 10.5975C19.49 10.9496 19.393 12.6052 19.5197 12.8639H15.4798C14.9626 10.6895 15.4033 7.97731 16.6076 6.21073C16.8784 5.81355 17.1712 5.46871 17.5097 5.13529C19.4232 3.25046 22.5097 2.71702 25.2167 3.2085C25.3561 3.2338 25.7143 3.30266 25.7996 3.34277C25.7668 3.25411 25.7938 3.31059 25.7349 3.24943C25.3536 2.85358 23.4655 1.8097 22.9464 1.55341C21.9723 1.07245 20.4283 0.552876 19.41 0.354908C16.8675 -0.139331 14.5655 -0.135947 12.0398 0.482514C9.8048 1.02983 8.03069 1.93588 6.22836 3.25311C6.03005 3.39806 5.89145 3.52376 5.69679 3.67276L4.43398 4.82585C4.3418 4.93901 4.31921 4.97143 4.21009 5.07671C3.09468 6.15315 1.83305 8.15556 1.20527 9.65615C0.532879 11.2634 3.68257e-10 13.3144 3.68257e-10 15.0972Z"/>
<path fill-rule="evenodd" clip-rule="evenodd" d="M21.5597 23.0513H30.1596L30.8339 21.5959C31.4674 20.0404 31.9995 18.0742 31.9995 16.2729C31.9995 14.5249 32.0271 14.2527 31.663 12.4493C31.6183 12.2281 31.1529 10.4175 30.9596 10.1997C30.9596 11.8921 30.1608 13.9583 29.2234 15.3558C28.2055 16.8732 27.911 17.1855 26.7291 18.4372L26.0497 19.1429C25.6434 19.5409 24.3054 20.7537 23.8338 21.1256L22.3291 22.3943C22.2441 22.4684 22.2167 22.4727 22.1298 22.5518C22.0412 22.6324 22.0375 22.6381 21.9368 22.7153L21.5597 23.0513Z" />
</g>
<defs>
<clipPath id="clip0_37_2875">
<rect width="32" height="32" fill="white"/>
</clipPath>
</defs>
</svg>
