<svg width="210" height="33" viewBox="0 0 210 33" fill="none" xmlns="http://www.w3.org/2000/svg">
<path d="M28.9083 6.35547C29.6749 7.35993 30.3239 8.45119 30.8421 9.60734L16.1419 20.5895L9.99829 16.6865V11.991L16.1419 15.894L28.9083 6.35547Z" fill="#32CC00"/>
<path d="M3.72827 16.354C3.72827 16.1433 3.73334 15.934 3.74348 15.7259L0.0202772 15.541C0.00760464 15.8107 4.49931e-06 16.083 4.49931e-06 16.3578C-0.00157962 18.505 0.415154 20.6313 1.22631 22.6148C2.03746 24.5984 3.22706 26.4001 4.72687 27.9166L7.36783 25.2414C6.21333 24.0761 5.29746 22.691 4.67286 21.1658C4.04826 19.6406 3.72725 18.0053 3.72827 16.354Z" fill="#32CC00"/>
<path d="M16.1385 3.77784C16.3463 3.77784 16.5528 3.78555 16.7581 3.79582L16.9444 0.0212291C16.6775 0.00838602 16.4088 0.00196525 16.1385 0.00196525C14.0188 -0.000654425 11.9196 0.421078 9.96126 1.24295C8.00291 2.06482 6.22405 3.27064 4.72681 4.79117L7.36777 7.46767C8.51766 6.29725 9.8845 5.36872 11.3897 4.73549C12.8949 4.10226 14.5087 3.7768 16.1385 3.77784Z" fill="#32CC00"/>
<path d="M16.1385 28.9326C15.9307 28.9326 15.7241 28.9326 15.5176 28.9159L15.3313 32.6892C15.5991 32.7029 15.8682 32.7098 16.1385 32.7098C18.2573 32.712 20.3555 32.29 22.3128 31.4679C24.2701 30.6458 26.0478 29.4398 27.5439 27.9193L24.908 25.2441C23.7579 26.4139 22.3912 27.3419 20.8863 27.9749C19.3814 28.6079 17.7679 28.9334 16.1385 28.9326Z" fill="#32CC00"/>
<path d="M23.1339 5.97207L26.2716 3.6282C23.4037 1.27465 19.8238 -0.0065332 16.1335 2.50536e-05V3.77718C18.6324 3.77404 21.0733 4.53938 23.1339 5.97207Z" fill="#32CC00"/>
<path d="M32.2759 16.3546C32.2779 15.372 32.1931 14.3911 32.0224 13.4238L28.5489 16.0181C28.5489 16.1299 28.5489 16.2416 28.5489 16.3546C28.5498 18.1119 28.1863 19.8498 27.4821 21.4556C26.7778 23.0614 25.7484 24.4993 24.4607 25.6761L26.9661 28.4824C28.6402 26.9507 29.978 25.0796 30.8927 22.9904C31.8075 20.9011 32.2787 18.6403 32.2759 16.3546Z" fill="#32CC00"/>
<path d="M16.1386 28.9323C14.4045 28.9329 12.6896 28.5644 11.1049 27.8507C9.52028 27.137 8.10119 26.0939 6.93956 24.7891L4.17188 27.3269C5.68303 29.0238 7.52923 30.3798 9.59076 31.3071C11.6523 32.2343 13.8831 32.7121 16.1386 32.7094V28.9323Z" fill="#32CC00"/>
<path d="M7.81645 7.03278L5.31235 4.22656C3.63776 5.75794 2.29948 7.62894 1.3843 9.71822C0.469132 11.8075 -0.00249507 14.0684 9.92661e-06 16.3543H3.72828C3.72751 14.5971 4.09104 12.8592 4.79529 11.2534C5.49955 9.64763 6.52883 8.20969 7.81645 7.03278Z" fill="#32CC00"/>
<mask id="mask0_606_5807" style="mask-type:luminance" maskUnits="userSpaceOnUse" x="40" y="5" width="170" height="23">
<path d="M209.38 5.68945H40.9656V27.3102H209.38V5.68945Z" fill="white"/>
</mask>
<g mask="url(#mask0_606_5807)">
<path d="M93.1298 9.35392L97.7473 5.94531H82.2935V26.4281H97.7473V23.0195H86.7031V17.7728H96.1243V14.3642H86.7031V9.35392H93.1298Z" fill="white"/>
<path d="M71.8952 13.9247H66.53V9.35256H75.0927L79.7074 5.93359H62.123V26.4164H71.3277C76.4883 26.4164 79.45 24.0728 79.45 19.9856C79.45 16.0755 76.7674 13.9247 71.8952 13.9247ZM71.1292 23.0067H66.53V17.3312H71.1292C73.9204 17.3312 75.2291 18.2823 75.2291 20.169C75.2291 22.0556 73.8366 23.0067 71.1292 23.0067Z" fill="white"/>
<path d="M109.107 5.94141H100.695V26.4241H105.104V20.6217H109.107C114.474 20.6217 117.794 17.792 117.794 13.2706C117.794 8.74936 114.474 5.94141 109.107 5.94141ZM109.014 17.2105H105.104V9.35262H109.014C111.837 9.35262 113.395 10.7488 113.395 13.2831C113.395 15.8174 111.837 17.2105 109.014 17.2105Z" fill="white"/>
<path d="M55.5064 21.59C54.3674 22.208 53.0913 22.528 51.7962 22.5204C47.9198 22.5204 45.1077 19.7475 45.1077 15.9292C45.1077 12.1108 47.9198 9.33184 51.7962 9.33184C53.1941 9.30805 54.563 9.73278 55.7029 10.5441L58.7871 8.26815L58.5785 8.11966C56.7794 6.53474 54.3755 5.69531 51.6239 5.69531C48.6394 5.69531 45.9332 6.70141 44.001 8.5318C43.024 9.47424 42.2514 10.6084 41.7311 11.8634C41.2109 13.1184 40.9542 14.4673 40.9773 15.8261C40.9566 17.1987 41.2121 18.5614 41.7285 19.8329C42.2449 21.1044 43.0116 22.2585 43.9829 23.2265C45.9241 25.1296 48.6243 26.1781 51.5876 26.1781C54.6839 26.1781 57.3902 25.0962 59.2226 23.1265L56.4619 21.0658L55.5064 21.59Z" fill="white"/>
<path d="M135.277 13.9247H129.914V9.35256H141.439V5.93359H125.504V26.4164H134.697C139.857 26.4164 142.819 24.0728 142.819 19.9856C142.831 16.0755 140.149 13.9247 135.277 13.9247ZM134.511 23.0067H129.914V17.3312H134.511C137.302 17.3312 138.61 18.2823 138.61 20.169C138.61 22.0556 137.23 23.0067 134.511 23.0067Z" fill="white"/>
<path d="M192.947 26.3851H188.477V5.90234H192.947V14.5052H195.38L201.95 5.90234H207.016L199.223 15.6462L208.272 26.3851H202.341L195.69 18.3294H192.947V26.3851Z" fill="white"/>
<path d="M159.059 22.4935H149.603L148 26.471H143.243L152.112 5.98828H156.868L165.593 26.471H160.662L159.059 22.4935ZM157.578 18.7822L154.359 10.8271L151.122 18.7822H157.578Z" fill="white"/>
<path d="M171.611 5.98828V14.5415H180.861V5.98828H185.47V26.471H180.861V18.4001H171.611V26.471H167.002V5.98828H171.611Z" fill="white"/>
</g>
</svg>
