<svg xmlns="http://www.w3.org/2000/svg" xmlns:xlink="http://www.w3.org/1999/xlink"><symbol id="arrow-down" viewBox="0 0 15 7"><path d="M6.864 6.476a1 1 0 001.272 0l5.712-4.704c.724-.596.303-1.772-.636-1.772H1.787C.85 0 .427 1.176 1.152 1.772l5.712 4.704z" fill="#32CC00"/></symbol><symbol id="burger" viewBox="0 0 26 20"><path d="M1 1h24M1 10h24M1 19h24" stroke="#3F4145" stroke-linecap="round"/></symbol><symbol id="dashed-arrow-right" viewBox="0 0 75 8"><path d="M1.096 3.5a.5.5 0 000 1v-1zm73.354.854a.5.5 0 000-.708L71.268.464a.5.5 0 10-.707.708L73.389 4l-2.828 2.828a.5.5 0 10.707.708l3.182-3.182zM1.096 4.5H5.66v-1H1.096v1zm13.688 0h9.125v-1h-9.125v1zm18.25 0h9.125v-1h-9.125v1zm18.25 0h9.125v-1h-9.125v1zm18.25 0h4.562v-1h-4.562v1z" fill="#fff"/></symbol><symbol id="lightning" viewBox="0 0 37 37"><path d="M22.57 5.433h0a.334.334 0 01.424-.11c.152.066.225.192.188.352 0 0 0 0 0 0L20.626 16.9l-.157.688.7-.08 7.901-.897-.056-.497.056.497c.323-.037.467.294.319.494h0l-12.223 16.56h0c-.108.145-.271.175-.425.109-.152-.066-.225-.192-.188-.352l2.556-11.224.157-.688-.7.08-7.9.897c-.323.037-.468-.294-.32-.494l-.402-.297.402.297L22.57 5.432z" fill="#fff" stroke="#3F4145"/><path fill-rule="evenodd" clip-rule="evenodd" d="M20.356 3.228L8.134 19.787c-.427.577.052 1.37.777 1.288l7.9-.897-2.556 11.224c-.198.868.969 1.373 1.503.65L27.98 15.493c.427-.577-.052-1.37-.777-1.288l-7.9.897L21.859 3.88c.198-.869-.969-1.374-1.503-.651z" fill="#3F4145"/></symbol><symbol id="logo" viewBox="0 0 175 31"><path d="M10.112 24.448c-1.813 0-3.573-.224-5.28-.672-1.707-.448-3.093-1.045-4.16-1.792l2.08-4.672c1.003.661 2.165 1.195 3.488 1.6s2.624.608 3.904.608c2.432 0 3.648-.608 3.648-1.824 0-.64-.352-1.11-1.056-1.408-.683-.32-1.792-.65-3.328-.992-1.685-.363-3.093-.747-4.224-1.152a7.251 7.251 0 01-2.912-2.016c-.81-.917-1.216-2.155-1.216-3.712 0-1.365.373-2.592 1.12-3.68.747-1.11 1.856-1.984 3.328-2.624 1.493-.64 3.317-.96 5.472-.96 1.472 0 2.923.17 4.352.512 1.43.32 2.688.8 3.776 1.44l-1.952 4.704c-2.133-1.152-4.203-1.728-6.208-1.728-1.259 0-2.176.192-2.752.576-.576.363-.864.843-.864 1.44s.341 1.045 1.024 1.344c.683.299 1.781.608 3.296.928 1.707.363 3.115.757 4.224 1.184a6.973 6.973 0 012.912 1.984c.832.896 1.248 2.123 1.248 3.68a6.3 6.3 0 01-1.12 3.648c-.747 1.088-1.867 1.963-3.36 2.624-1.493.64-3.307.96-5.44.96zm23.727-1.152c-.512.32-1.142.565-1.888.736a10.18 10.18 0 01-2.336.256c-2.262 0-4-.555-5.216-1.664-1.195-1.11-1.792-2.763-1.792-4.96V2.784h6.08v4.512h3.936v4.544h-3.936v5.76c0 .64.16 1.13.48 1.472.32.341.757.512 1.312.512.704 0 1.322-.181 1.856-.544l1.504 4.256zM54.41 6.656V24h-5.792v-1.856a6.232 6.232 0 01-2.304 1.6 7.518 7.518 0 01-2.848.544c-2.24 0-4.032-.661-5.376-1.984-1.323-1.323-1.984-3.307-1.984-5.952V6.656h6.08v8.704c0 1.301.245 2.25.736 2.848.49.597 1.205.896 2.144.896.96 0 1.738-.33 2.336-.992.618-.683.928-1.717.928-3.104V6.656h6.08zm22.348-6.4V24h-5.792v-1.728c-1.13 1.344-2.827 2.016-5.088 2.016-1.579 0-3.019-.363-4.32-1.088-1.301-.747-2.336-1.803-3.104-3.168-.747-1.365-1.12-2.944-1.12-4.736 0-1.792.373-3.36 1.12-4.704.768-1.365 1.803-2.41 3.104-3.136 1.301-.725 2.741-1.088 4.32-1.088 2.07 0 3.67.597 4.8 1.792V.256h6.08zm-9.6 19.2c1.045 0 1.91-.363 2.592-1.088.683-.747 1.024-1.77 1.024-3.072 0-1.28-.341-2.283-1.024-3.008-.661-.725-1.525-1.088-2.592-1.088-1.067 0-1.941.363-2.624 1.088-.683.725-1.024 1.728-1.024 3.008 0 1.301.341 2.325 1.024 3.072.683.725 1.557 1.088 2.624 1.088zm31.752-12.8v14.176c0 3.221-.864 5.632-2.592 7.232-1.707 1.621-4.17 2.432-7.392 2.432-1.686 0-3.264-.192-4.736-.576-1.45-.384-2.688-.95-3.712-1.696l2.208-4.256c.682.576 1.536 1.024 2.56 1.344a9.958 9.958 0 003.104.512c1.536 0 2.666-.352 3.392-1.056.725-.704 1.088-1.75 1.088-3.136v-.384c-1.302 1.237-2.923 1.856-4.864 1.856-2.24 0-4.032-.661-5.376-1.984-1.323-1.323-1.984-3.307-1.984-5.952V6.656h6.08v7.52c0 1.323.245 2.283.736 2.88.49.597 1.205.896 2.144.896.96 0 1.738-.341 2.336-1.024.618-.683.928-1.707.928-3.072v-7.2h6.08z" fill="#fff"/><path d="M110.987 24.448c-1.813 0-3.573-.224-5.28-.672-1.707-.448-3.093-1.045-4.16-1.792l2.08-4.672c1.003.661 2.165 1.195 3.488 1.6a13.28 13.28 0 003.904.608c2.432 0 3.648-.608 3.648-1.824 0-.64-.352-1.11-1.056-1.408-.683-.32-1.792-.65-3.328-.992-1.685-.363-3.093-.747-4.224-1.152a7.251 7.251 0 01-2.912-2.016c-.811-.917-1.216-2.155-1.216-3.712 0-1.365.373-2.592 1.12-3.68.747-1.11 1.856-1.984 3.328-2.624 1.493-.64 3.317-.96 5.472-.96 1.472 0 2.923.17 4.352.512 1.429.32 2.688.8 3.776 1.44l-1.952 4.704c-2.133-1.152-4.203-1.728-6.208-1.728-1.259 0-2.176.192-2.752.576-.576.363-.864.843-.864 1.44s.341 1.045 1.024 1.344c.683.299 1.781.608 3.296.928 1.707.363 3.115.757 4.224 1.184a6.973 6.973 0 012.912 1.984c.832.896 1.248 2.123 1.248 3.68 0 1.344-.373 2.56-1.12 3.648-.747 1.088-1.867 1.963-3.36 2.624-1.493.64-3.307.96-5.44.96zm30.895-17.792V24h-5.792v-1.728c-1.131 1.344-2.838 2.016-5.12 2.016-1.579 0-3.019-.363-4.32-1.088-1.28-.747-2.304-1.803-3.072-3.168-.747-1.365-1.12-2.944-1.12-4.736 0-1.792.373-3.36 1.12-4.704.768-1.365 1.792-2.41 3.072-3.136 1.301-.725 2.741-1.088 4.32-1.088 2.048 0 3.658.597 4.832 1.792V6.656h6.08zm-9.632 12.8c1.066 0 1.941-.363 2.624-1.088.682-.747 1.024-1.77 1.024-3.072 0-1.28-.342-2.283-1.024-3.008-.683-.725-1.558-1.088-2.624-1.088-1.067 0-1.942.363-2.624 1.088-.683.725-1.024 1.728-1.024 3.008 0 1.301.341 2.325 1.024 3.072.682.725 1.557 1.088 2.624 1.088zm20.298 4.832c-2.134 0-3.798-.544-4.992-1.632-1.174-1.11-1.76-2.688-1.76-4.736V.256h6.08V17.6c0 .64.16 1.13.48 1.472.341.341.81.512 1.408.512.49 0 .949-.107 1.376-.32l.256 4.576a9.145 9.145 0 01-2.848.448zm13.997-4.64c.832 0 1.546-.117 2.144-.352.618-.235 1.237-.619 1.856-1.152l3.168 3.328c-1.643 1.877-4.096 2.816-7.36 2.816-2.027 0-3.808-.384-5.344-1.152-1.536-.768-2.731-1.835-3.585-3.2-.831-1.365-1.247-2.912-1.247-4.64 0-1.707.416-3.232 1.247-4.576.833-1.365 1.974-2.432 3.425-3.2 1.472-.768 3.114-1.152 4.928-1.152 1.685 0 3.221.352 4.608 1.056a7.97 7.97 0 013.36 3.04c.832 1.323 1.248 2.901 1.248 4.736l-12.384 2.368c.661 1.387 1.973 2.08 3.936 2.08zm-.736-8.96c-1.046 0-1.899.33-2.56.992-.662.64-1.035 1.568-1.12 2.784l7.04-1.376a3.159 3.159 0 00-1.216-1.728c-.598-.448-1.312-.672-2.144-.672z" fill="#E6EA24"/></symbol><symbol id="mb-arrow" viewBox="0 0 248 91"><path d="M246.989.898a.5.5 0 10-.979.204l.979-.204zM178 54l.058-.497L178 54zM74 38.5l-.135-.481.135.481zM32.5 80l.133.482L32.5 80zM.604 86.695a.5.5 0 00.09.7l3.564 2.75a.5.5 0 10.61-.792l-3.167-2.444 2.444-3.167a.5.5 0 10-.792-.61L.604 86.695zM5.082 87a.5.5 0 00-.116-.993l.116.993zm7.821-2.083a.5.5 0 00.224.974l-.224-.974zm8.038-1.157a.5.5 0 00-.273-.962l.273.962zm7.51-3.153a.5.5 0 10.269.963l-.269-.963zm9.24-1.812a.5.5 0 10-.372-.928l.373.928zm8.175-6.48a.5.5 0 00.743.669l-.743-.67zm5.228-8.982a.5.5 0 00-.976-.218l.976.218zm1.651-10.473a.5.5 0 00.922.387l-.922-.387zm7.215-7.528a.5.5 0 10-.6-.801l.6.8zm8.824-5.683a.5.5 0 10.345.938l-.345-.938zM79.35 37.57a.5.5 0 10-.251-.968l.251.968zm10.257-3.346a.5.5 0 10.18.984l-.18-.984zm10.775-.037a.5.5 0 00.025-1l-.025 1zm10.639 1.308a.5.5 0 00-.377.927l.377-.927zm9.383 5.38a.5.5 0 10.408-.913l-.408.913zm10.376 3.02a.5.5 0 10-.325.946l.325-.946zm9.986 4.038a.5.5 0 00.253-.968l-.253.968zm10.726 1.449a.5.5 0 10-.199.98l.199-.98zm10.38 2.9a.5.5 0 00.159-.986l-.159.987zm10.792.556a.5.5 0 00-.129.992l.129-.992zm10.504 2.177a.5.5 0 00.081-.997l-.081.997zm10.468-.564a.5.5 0 00.002 1l-.002-1zm10.453.446a.5.5 0 00-.109-.994l.109.994zm10.091-2.823a.5.5 0 00.25.969l-.25-.968zm10.136-2.563a.5.5 0 00-.428-.904l.428.904zm8.293-6.363a.5.5 0 10.632.775l-.632-.775zm7.813-6.92a.5.5 0 10-.818-.576l.818.576zm3.909-9.695a.5.5 0 00.94.341l-.94-.34zm3.328-9.909a.5.5 0 10-.993-.115l.993.115zm-.888-10.43a.5.5 0 00.996-.095l-.996.094zM1.064 87.494c1.584-.204 2.902-.364 4.018-.495l-.116-.993c-1.12.131-2.441.292-4.03.497l.128.992zm12.063-1.604c1.611-.37 3.727-.973 7.814-2.13l-.273-.963c-4.101 1.162-6.185 1.756-7.765 2.119l.224.974zm15.593-4.32c1.206-.337 2.507-.699 3.913-1.088l-.266-.964c-1.408.39-2.71.752-3.916 1.089l.269.963zm3.913-1.088a47.877 47.877 0 005.059-1.687l-.373-.928a46.888 46.888 0 01-4.952 1.651l.266.964zm13.976-7.498c2.668-2.965 3.734-6.287 4.485-9.651l-.976-.218c-.738 3.306-1.756 6.426-4.252 9.2l.743.669zm7.058-19.737c1.165-2.77 3.004-5.454 6.293-7.915l-.6-.801c-3.44 2.575-5.386 5.405-6.615 8.329l.922.387zm15.462-12.66a66.168 66.168 0 015.006-1.606l-.27-.962a67.227 67.227 0 00-5.081 1.63l.345.938zm5.006-1.606a292.83 292.83 0 015.216-1.41l-.251-.968c-1.646.428-3.388.898-5.235 1.416l.27.962zm15.652-3.772c4.321-.788 7.714-1.093 10.596-1.02l.025-1c-2.972-.075-6.436.24-10.8 1.036l.18.984zm20.858 1.214c2.881 1.172 5.825 2.697 9.76 4.453l.408-.913c-3.852-1.72-6.904-3.292-9.791-4.467l-.377.927zm19.811 8.419a143.103 143.103 0 0010.311 3.092l.253-.968a142.016 142.016 0 01-10.239-3.07l-.325.946zm20.838 5.52c3.236.66 6.751 1.303 10.579 1.922l.159-.987a264.932 264.932 0 01-10.539-1.914l-.199.98zm21.242 3.47c1.747.226 3.548.448 5.406.665l.116-.994a411.542 411.542 0 01-5.393-.664l-.129.992zm5.406.665c1.785.208 3.527.38 5.227.519l.081-.997a148.137 148.137 0 01-5.192-.516l-.116.994zm15.697.955a97.346 97.346 0 0010.451-.554l-.109-.994a96.357 96.357 0 01-10.344.548l.002 1zm20.792-2.408c3.647-.94 6.932-2.133 9.886-3.532l-.428-.904c-2.893 1.37-6.118 2.542-9.708 3.468l.25.968zm18.811-9.12a38.464 38.464 0 007.181-7.695l-.818-.576a37.456 37.456 0 01-6.995 7.496l.632.775zm12.03-17.049c1.233-3.4 1.995-6.865 2.388-10.25l-.993-.115c-.385 3.316-1.132 6.705-2.335 10.024l.94.341zM247.768 6.1a47.5 47.5 0 00-.779-5.202l-.979.204c.332 1.594.593 3.302.762 5.092l.996-.094z" fill="#3F4145"/></symbol><symbol id="sparkle" viewBox="0 0 34 33"><path d="M.753 16.435l13.254 3.18 3.18 13.255 3.182-13.254 13.253-3.181-13.253-3.181L17.188 0l-3.181 13.254-13.254 3.18z"/></symbol><symbol id="star" viewBox="0 0 53 53"><path fill-rule="evenodd" clip-rule="evenodd" d="M20.082 46.305c3.347-11.09-2.887-22.802-13.953-26.186C17.22 23.511 28.965 17.252 32.363 6.14c-3.347 11.09 2.887 22.802 13.953 26.186-11.091-3.392-22.836 2.867-26.234 13.979z" fill="#3F4145"/><path fill-rule="evenodd" clip-rule="evenodd" d="M21.46 41.798c2.596-8.6-2.24-17.685-10.822-20.31 8.602 2.631 17.712-2.223 20.347-10.841-2.596 8.6 2.24 17.685 10.822 20.31-8.602-2.631-17.712 2.223-20.347 10.841z" fill="#E6EA24"/></symbol></svg>