<svg xmlns="http://www.w3.org/2000/svg" xmlns:xlink="http://www.w3.org/1999/xlink"><defs><clipPath id="clip0_37_2875"><path fill="#fff" d="M0 0h32v32H0z"/></clipPath><clipPath id="clip0_37_2885"><path fill="#fff" d="M0 0h32v32H0z"/></clipPath><clipPath id="clip0_37_2883"><path fill="#fff" d="M0 0h32v32H0z"/></clipPath><clipPath id="clip0_37_2895"><path fill="#fff" d="M0 0h32v32H0z"/></clipPath></defs><symbol id="arrow-down" viewBox="0 0 15 7"><path d="M6.864 6.476a1 1 0 001.272 0l5.712-4.704c.724-.596.303-1.772-.636-1.772H1.787C.85 0 .427 1.176 1.152 1.772l5.712 4.704z" fill="#32CC00"/></symbol><symbol id="arrow-slider-right" viewBox="0 0 16 26"><path d="M14.018 14.436a2 2 0 000-2.872L3.234 1.114A1.282 1.282 0 101.45 2.956l8.883 8.608a2 2 0 010 2.872L1.45 23.044a1.282 1.282 0 001.784 1.842l10.784-10.45z" fill="#3F4145" stroke="#3F4145"/></symbol><symbol id="avatar-ph-female" viewBox="0 0 38 44"><path d="M26.434 25.205c-1.789 4.08-4.455 5.731-7.434 5.731s-5.645-1.651-7.434-5.73C4.83 26.695.11 30.147.11 34.17c0 5.385 8.458 9.75 18.891 9.75 10.433 0 18.89-4.365 18.89-9.75 0-4.023-4.72-7.476-11.456-8.966zm4.999-3.85s-3.635-1.026-2.982-7.653c.651-6.618-.816-12.898-6.138-12.409 0 0-2.307-2.31-6.895-.558-1.573.603-5.803 2.111-5.591 11.288.212 9.17-3.26 9.227-3.26 9.227s6.4 3.02 12.48 3.02c5.406 0 12.386-2.915 12.386-2.915z" fill="#3F4145"/></symbol><symbol id="avatar-ph-male" viewBox="0 0 48 48"><path d="M32.696 14.434c-.027 0-.059.002-.088.004C33.03 7.467 34.416 2.124 24 2.125c-10.367.001-9.024 5.342-8.602 12.313a1.164 1.164 0 00-.086-.004c-.437 0-1.14.394-1.042 2.035.11 1.829 1.23 4.2 1.997 4.322 1.352 4.97 4.162 7.304 7.733 7.304 3.563 0 6.385-2.335 7.737-7.304.768-.122 1.893-2.493 2.002-4.322.098-1.64-.606-2.035-1.043-2.035z" fill="#3F4145"/><path d="M31.434 27.175c-1.789 4.08-4.455 5.731-7.434 5.731s-5.645-1.652-7.434-5.731C9.83 28.665 5.11 32.118 5.11 36.14c0 5.384 8.458 9.75 18.891 9.75 10.433 0 18.89-4.366 18.89-9.75 0-4.023-4.72-7.476-11.456-8.966z" fill="#3F4145"/></symbol><symbol id="burger" viewBox="0 0 26 20"><path d="M1 1h24M1 10h24M1 19h24" stroke="#3F4145" stroke-linecap="round"/></symbol><symbol id="cross" viewBox="0 0 16 16"><path d="M1 1.1L14.9 15m-13.8-.1L15 1" stroke="#fff" stroke-linecap="round"/></symbol><symbol id="dashed-arrow-right" viewBox="0 0 75 8"><path d="M1.096 3.5a.5.5 0 000 1v-1zm73.354.854a.5.5 0 000-.708L71.268.464a.5.5 0 10-.707.708L73.389 4l-2.828 2.828a.5.5 0 10.707.708l3.182-3.182zM1.096 4.5H5.66v-1H1.096v1zm13.688 0h9.125v-1h-9.125v1zm18.25 0h9.125v-1h-9.125v1zm18.25 0h9.125v-1h-9.125v1zm18.25 0h4.562v-1h-4.562v1z" fill="#fff"/></symbol><symbol id="lightning" viewBox="0 0 37 37"><path d="M22.57 5.433h0a.334.334 0 01.424-.11c.152.066.225.192.188.352 0 0 0 0 0 0L20.626 16.9l-.157.688.7-.08 7.901-.897-.056-.497.056.497c.323-.037.467.294.319.494h0l-12.223 16.56h0c-.108.145-.271.175-.425.109-.152-.066-.225-.192-.188-.352l2.556-11.224.157-.688-.7.08-7.9.897c-.323.037-.468-.294-.32-.494l-.402-.297.402.297L22.57 5.432z" fill="#fff" stroke="#3F4145"/><path fill-rule="evenodd" clip-rule="evenodd" d="M20.356 3.228L8.134 19.787c-.427.577.052 1.37.777 1.288l7.9-.897-2.556 11.224c-.198.868.969 1.373 1.503.65L27.98 15.493c.427-.577-.052-1.37-.777-1.288l-7.9.897L21.859 3.88c.198-.869-.969-1.374-1.503-.651z" fill="#3F4145"/></symbol><symbol id="logo-dark" viewBox="0 0 175 31"><path d="M10.112 24.448c-1.813 0-3.573-.224-5.28-.672-1.707-.448-3.093-1.045-4.16-1.792l2.08-4.672c1.003.661 2.165 1.195 3.488 1.6s2.624.608 3.904.608c2.432 0 3.648-.608 3.648-1.824 0-.64-.352-1.11-1.056-1.408-.683-.32-1.792-.65-3.328-.992-1.685-.363-3.093-.747-4.224-1.152a7.251 7.251 0 01-2.912-2.016c-.81-.917-1.216-2.155-1.216-3.712 0-1.365.373-2.592 1.12-3.68.747-1.11 1.856-1.984 3.328-2.624 1.493-.64 3.317-.96 5.472-.96 1.472 0 2.923.17 4.352.512 1.43.32 2.688.8 3.776 1.44l-1.952 4.704c-2.133-1.152-4.203-1.728-6.208-1.728-1.259 0-2.176.192-2.752.576-.576.363-.864.843-.864 1.44s.341 1.045 1.024 1.344c.683.299 1.781.608 3.296.928 1.707.363 3.115.757 4.224 1.184a6.973 6.973 0 012.912 1.984c.832.896 1.248 2.123 1.248 3.68a6.3 6.3 0 01-1.12 3.648c-.747 1.088-1.867 1.963-3.36 2.624-1.493.64-3.307.96-5.44.96zm23.727-1.152c-.512.32-1.142.565-1.888.736a10.18 10.18 0 01-2.336.256c-2.262 0-4-.555-5.216-1.664-1.195-1.11-1.792-2.763-1.792-4.96V2.784h6.08v4.512h3.936v4.544h-3.936v5.76c0 .64.16 1.13.48 1.472.32.341.757.512 1.312.512.704 0 1.322-.181 1.856-.544l1.504 4.256zM54.41 6.656V24h-5.792v-1.856a6.232 6.232 0 01-2.304 1.6 7.518 7.518 0 01-2.848.544c-2.24 0-4.032-.661-5.376-1.984-1.323-1.323-1.984-3.307-1.984-5.952V6.656h6.08v8.704c0 1.301.245 2.25.736 2.848.49.597 1.205.896 2.144.896.96 0 1.738-.33 2.336-.992.618-.683.928-1.717.928-3.104V6.656h6.08zm22.348-6.4V24h-5.792v-1.728c-1.13 1.344-2.827 2.016-5.088 2.016-1.579 0-3.019-.363-4.32-1.088-1.301-.747-2.336-1.803-3.104-3.168-.747-1.365-1.12-2.944-1.12-4.736 0-1.792.373-3.36 1.12-4.704.768-1.365 1.803-2.41 3.104-3.136 1.301-.725 2.741-1.088 4.32-1.088 2.07 0 3.67.597 4.8 1.792V.256h6.08zm-9.6 19.2c1.045 0 1.91-.363 2.592-1.088.683-.747 1.024-1.77 1.024-3.072 0-1.28-.341-2.283-1.024-3.008-.661-.725-1.525-1.088-2.592-1.088-1.067 0-1.941.363-2.624 1.088-.683.725-1.024 1.728-1.024 3.008 0 1.301.341 2.325 1.024 3.072.683.725 1.557 1.088 2.624 1.088zm31.752-12.8v14.176c0 3.221-.864 5.632-2.592 7.232-1.707 1.621-4.17 2.432-7.392 2.432-1.686 0-3.264-.192-4.736-.576-1.45-.384-2.688-.95-3.712-1.696l2.208-4.256c.682.576 1.536 1.024 2.56 1.344a9.958 9.958 0 003.104.512c1.536 0 2.666-.352 3.392-1.056.725-.704 1.088-1.75 1.088-3.136v-.384c-1.302 1.237-2.923 1.856-4.864 1.856-2.24 0-4.032-.661-5.376-1.984-1.323-1.323-1.984-3.307-1.984-5.952V6.656h6.08v7.52c0 1.323.245 2.283.736 2.88.49.597 1.205.896 2.144.896.96 0 1.738-.341 2.336-1.024.618-.683.928-1.707.928-3.072v-7.2h6.08z" fill="#3F4145"/><path d="M110.987 24.448c-1.813 0-3.573-.224-5.28-.672-1.707-.448-3.093-1.045-4.16-1.792l2.08-4.672c1.003.661 2.165 1.195 3.488 1.6a13.28 13.28 0 003.904.608c2.432 0 3.648-.608 3.648-1.824 0-.64-.352-1.11-1.056-1.408-.683-.32-1.792-.65-3.328-.992-1.685-.363-3.093-.747-4.224-1.152a7.251 7.251 0 01-2.912-2.016c-.811-.917-1.216-2.155-1.216-3.712 0-1.365.373-2.592 1.12-3.68.747-1.11 1.856-1.984 3.328-2.624 1.493-.64 3.317-.96 5.472-.96 1.472 0 2.923.17 4.352.512 1.429.32 2.688.8 3.776 1.44l-1.952 4.704c-2.133-1.152-4.203-1.728-6.208-1.728-1.259 0-2.176.192-2.752.576-.576.363-.864.843-.864 1.44s.341 1.045 1.024 1.344c.683.299 1.781.608 3.296.928 1.707.363 3.115.757 4.224 1.184a6.973 6.973 0 012.912 1.984c.832.896 1.248 2.123 1.248 3.68 0 1.344-.373 2.56-1.12 3.648-.747 1.088-1.867 1.963-3.36 2.624-1.493.64-3.307.96-5.44.96zm30.895-17.792V24h-5.792v-1.728c-1.131 1.344-2.838 2.016-5.12 2.016-1.579 0-3.019-.363-4.32-1.088-1.28-.747-2.304-1.803-3.072-3.168-.747-1.365-1.12-2.944-1.12-4.736 0-1.792.373-3.36 1.12-4.704.768-1.365 1.792-2.41 3.072-3.136 1.301-.725 2.741-1.088 4.32-1.088 2.048 0 3.658.597 4.832 1.792V6.656h6.08zm-9.632 12.8c1.066 0 1.941-.363 2.624-1.088.682-.747 1.024-1.77 1.024-3.072 0-1.28-.342-2.283-1.024-3.008-.683-.725-1.558-1.088-2.624-1.088-1.067 0-1.942.363-2.624 1.088-.683.725-1.024 1.728-1.024 3.008 0 1.301.341 2.325 1.024 3.072.682.725 1.557 1.088 2.624 1.088zm20.298 4.832c-2.134 0-3.798-.544-4.992-1.632-1.174-1.11-1.76-2.688-1.76-4.736V.256h6.08V17.6c0 .64.16 1.13.48 1.472.341.341.81.512 1.408.512.49 0 .949-.107 1.376-.32l.256 4.576a9.145 9.145 0 01-2.848.448zm13.997-4.64c.832 0 1.546-.117 2.144-.352.618-.235 1.237-.619 1.856-1.152l3.168 3.328c-1.643 1.877-4.096 2.816-7.36 2.816-2.027 0-3.808-.384-5.344-1.152-1.536-.768-2.731-1.835-3.585-3.2-.831-1.365-1.247-2.912-1.247-4.64 0-1.707.416-3.232 1.247-4.576.833-1.365 1.974-2.432 3.425-3.2 1.472-.768 3.114-1.152 4.928-1.152 1.685 0 3.221.352 4.608 1.056a7.97 7.97 0 013.36 3.04c.832 1.323 1.248 2.901 1.248 4.736l-12.384 2.368c.661 1.387 1.973 2.08 3.936 2.08zm-.736-8.96c-1.046 0-1.899.33-2.56.992-.662.64-1.035 1.568-1.12 2.784l7.04-1.376a3.159 3.159 0 00-1.216-1.728c-.598-.448-1.312-.672-2.144-.672z" fill="#F06"/></symbol><symbol id="logo" viewBox="0 0 175 31"><path d="M10.112 24.448c-1.813 0-3.573-.224-5.28-.672-1.707-.448-3.093-1.045-4.16-1.792l2.08-4.672c1.003.661 2.165 1.195 3.488 1.6s2.624.608 3.904.608c2.432 0 3.648-.608 3.648-1.824 0-.64-.352-1.11-1.056-1.408-.683-.32-1.792-.65-3.328-.992-1.685-.363-3.093-.747-4.224-1.152a7.251 7.251 0 01-2.912-2.016c-.81-.917-1.216-2.155-1.216-3.712 0-1.365.373-2.592 1.12-3.68.747-1.11 1.856-1.984 3.328-2.624 1.493-.64 3.317-.96 5.472-.96 1.472 0 2.923.17 4.352.512 1.43.32 2.688.8 3.776 1.44l-1.952 4.704c-2.133-1.152-4.203-1.728-6.208-1.728-1.259 0-2.176.192-2.752.576-.576.363-.864.843-.864 1.44s.341 1.045 1.024 1.344c.683.299 1.781.608 3.296.928 1.707.363 3.115.757 4.224 1.184a6.973 6.973 0 012.912 1.984c.832.896 1.248 2.123 1.248 3.68a6.3 6.3 0 01-1.12 3.648c-.747 1.088-1.867 1.963-3.36 2.624-1.493.64-3.307.96-5.44.96zm23.727-1.152c-.512.32-1.142.565-1.888.736a10.18 10.18 0 01-2.336.256c-2.262 0-4-.555-5.216-1.664-1.195-1.11-1.792-2.763-1.792-4.96V2.784h6.08v4.512h3.936v4.544h-3.936v5.76c0 .64.16 1.13.48 1.472.32.341.757.512 1.312.512.704 0 1.322-.181 1.856-.544l1.504 4.256zM54.41 6.656V24h-5.792v-1.856a6.232 6.232 0 01-2.304 1.6 7.518 7.518 0 01-2.848.544c-2.24 0-4.032-.661-5.376-1.984-1.323-1.323-1.984-3.307-1.984-5.952V6.656h6.08v8.704c0 1.301.245 2.25.736 2.848.49.597 1.205.896 2.144.896.96 0 1.738-.33 2.336-.992.618-.683.928-1.717.928-3.104V6.656h6.08zm22.348-6.4V24h-5.792v-1.728c-1.13 1.344-2.827 2.016-5.088 2.016-1.579 0-3.019-.363-4.32-1.088-1.301-.747-2.336-1.803-3.104-3.168-.747-1.365-1.12-2.944-1.12-4.736 0-1.792.373-3.36 1.12-4.704.768-1.365 1.803-2.41 3.104-3.136 1.301-.725 2.741-1.088 4.32-1.088 2.07 0 3.67.597 4.8 1.792V.256h6.08zm-9.6 19.2c1.045 0 1.91-.363 2.592-1.088.683-.747 1.024-1.77 1.024-3.072 0-1.28-.341-2.283-1.024-3.008-.661-.725-1.525-1.088-2.592-1.088-1.067 0-1.941.363-2.624 1.088-.683.725-1.024 1.728-1.024 3.008 0 1.301.341 2.325 1.024 3.072.683.725 1.557 1.088 2.624 1.088zm31.752-12.8v14.176c0 3.221-.864 5.632-2.592 7.232-1.707 1.621-4.17 2.432-7.392 2.432-1.686 0-3.264-.192-4.736-.576-1.45-.384-2.688-.95-3.712-1.696l2.208-4.256c.682.576 1.536 1.024 2.56 1.344a9.958 9.958 0 003.104.512c1.536 0 2.666-.352 3.392-1.056.725-.704 1.088-1.75 1.088-3.136v-.384c-1.302 1.237-2.923 1.856-4.864 1.856-2.24 0-4.032-.661-5.376-1.984-1.323-1.323-1.984-3.307-1.984-5.952V6.656h6.08v7.52c0 1.323.245 2.283.736 2.88.49.597 1.205.896 2.144.896.96 0 1.738-.341 2.336-1.024.618-.683.928-1.707.928-3.072v-7.2h6.08z" fill="#fff"/><path d="M110.987 24.448c-1.813 0-3.573-.224-5.28-.672-1.707-.448-3.093-1.045-4.16-1.792l2.08-4.672c1.003.661 2.165 1.195 3.488 1.6a13.28 13.28 0 003.904.608c2.432 0 3.648-.608 3.648-1.824 0-.64-.352-1.11-1.056-1.408-.683-.32-1.792-.65-3.328-.992-1.685-.363-3.093-.747-4.224-1.152a7.251 7.251 0 01-2.912-2.016c-.811-.917-1.216-2.155-1.216-3.712 0-1.365.373-2.592 1.12-3.68.747-1.11 1.856-1.984 3.328-2.624 1.493-.64 3.317-.96 5.472-.96 1.472 0 2.923.17 4.352.512 1.429.32 2.688.8 3.776 1.44l-1.952 4.704c-2.133-1.152-4.203-1.728-6.208-1.728-1.259 0-2.176.192-2.752.576-.576.363-.864.843-.864 1.44s.341 1.045 1.024 1.344c.683.299 1.781.608 3.296.928 1.707.363 3.115.757 4.224 1.184a6.973 6.973 0 012.912 1.984c.832.896 1.248 2.123 1.248 3.68 0 1.344-.373 2.56-1.12 3.648-.747 1.088-1.867 1.963-3.36 2.624-1.493.64-3.307.96-5.44.96zm30.895-17.792V24h-5.792v-1.728c-1.131 1.344-2.838 2.016-5.12 2.016-1.579 0-3.019-.363-4.32-1.088-1.28-.747-2.304-1.803-3.072-3.168-.747-1.365-1.12-2.944-1.12-4.736 0-1.792.373-3.36 1.12-4.704.768-1.365 1.792-2.41 3.072-3.136 1.301-.725 2.741-1.088 4.32-1.088 2.048 0 3.658.597 4.832 1.792V6.656h6.08zm-9.632 12.8c1.066 0 1.941-.363 2.624-1.088.682-.747 1.024-1.77 1.024-3.072 0-1.28-.342-2.283-1.024-3.008-.683-.725-1.558-1.088-2.624-1.088-1.067 0-1.942.363-2.624 1.088-.683.725-1.024 1.728-1.024 3.008 0 1.301.341 2.325 1.024 3.072.682.725 1.557 1.088 2.624 1.088zm20.298 4.832c-2.134 0-3.798-.544-4.992-1.632-1.174-1.11-1.76-2.688-1.76-4.736V.256h6.08V17.6c0 .64.16 1.13.48 1.472.341.341.81.512 1.408.512.49 0 .949-.107 1.376-.32l.256 4.576a9.145 9.145 0 01-2.848.448zm13.997-4.64c.832 0 1.546-.117 2.144-.352.618-.235 1.237-.619 1.856-1.152l3.168 3.328c-1.643 1.877-4.096 2.816-7.36 2.816-2.027 0-3.808-.384-5.344-1.152-1.536-.768-2.731-1.835-3.585-3.2-.831-1.365-1.247-2.912-1.247-4.64 0-1.707.416-3.232 1.247-4.576.833-1.365 1.974-2.432 3.425-3.2 1.472-.768 3.114-1.152 4.928-1.152 1.685 0 3.221.352 4.608 1.056a7.97 7.97 0 013.36 3.04c.832 1.323 1.248 2.901 1.248 4.736l-12.384 2.368c.661 1.387 1.973 2.08 3.936 2.08zm-.736-8.96c-1.046 0-1.899.33-2.56.992-.662.64-1.035 1.568-1.12 2.784l7.04-1.376a3.159 3.159 0 00-1.216-1.728c-.598-.448-1.312-.672-2.144-.672z" fill="#E6EA24"/></symbol><symbol id="mb-arrow" viewBox="0 0 248 91"><path d="M246.989.898a.5.5 0 10-.979.204l.979-.204zM178 54l.058-.497L178 54zM74 38.5l-.135-.481.135.481zM32.5 80l.133.482L32.5 80zM.604 86.695a.5.5 0 00.09.7l3.564 2.75a.5.5 0 10.61-.792l-3.167-2.444 2.444-3.167a.5.5 0 10-.792-.61L.604 86.695zM5.082 87a.5.5 0 00-.116-.993l.116.993zm7.821-2.083a.5.5 0 00.224.974l-.224-.974zm8.038-1.157a.5.5 0 00-.273-.962l.273.962zm7.51-3.153a.5.5 0 10.269.963l-.269-.963zm9.24-1.812a.5.5 0 10-.372-.928l.373.928zm8.175-6.48a.5.5 0 00.743.669l-.743-.67zm5.228-8.982a.5.5 0 00-.976-.218l.976.218zm1.651-10.473a.5.5 0 00.922.387l-.922-.387zm7.215-7.528a.5.5 0 10-.6-.801l.6.8zm8.824-5.683a.5.5 0 10.345.938l-.345-.938zM79.35 37.57a.5.5 0 10-.251-.968l.251.968zm10.257-3.346a.5.5 0 10.18.984l-.18-.984zm10.775-.037a.5.5 0 00.025-1l-.025 1zm10.639 1.308a.5.5 0 00-.377.927l.377-.927zm9.383 5.38a.5.5 0 10.408-.913l-.408.913zm10.376 3.02a.5.5 0 10-.325.946l.325-.946zm9.986 4.038a.5.5 0 00.253-.968l-.253.968zm10.726 1.449a.5.5 0 10-.199.98l.199-.98zm10.38 2.9a.5.5 0 00.159-.986l-.159.987zm10.792.556a.5.5 0 00-.129.992l.129-.992zm10.504 2.177a.5.5 0 00.081-.997l-.081.997zm10.468-.564a.5.5 0 00.002 1l-.002-1zm10.453.446a.5.5 0 00-.109-.994l.109.994zm10.091-2.823a.5.5 0 00.25.969l-.25-.968zm10.136-2.563a.5.5 0 00-.428-.904l.428.904zm8.293-6.363a.5.5 0 10.632.775l-.632-.775zm7.813-6.92a.5.5 0 10-.818-.576l.818.576zm3.909-9.695a.5.5 0 00.94.341l-.94-.34zm3.328-9.909a.5.5 0 10-.993-.115l.993.115zm-.888-10.43a.5.5 0 00.996-.095l-.996.094zM1.064 87.494c1.584-.204 2.902-.364 4.018-.495l-.116-.993c-1.12.131-2.441.292-4.03.497l.128.992zm12.063-1.604c1.611-.37 3.727-.973 7.814-2.13l-.273-.963c-4.101 1.162-6.185 1.756-7.765 2.119l.224.974zm15.593-4.32c1.206-.337 2.507-.699 3.913-1.088l-.266-.964c-1.408.39-2.71.752-3.916 1.089l.269.963zm3.913-1.088a47.877 47.877 0 005.059-1.687l-.373-.928a46.888 46.888 0 01-4.952 1.651l.266.964zm13.976-7.498c2.668-2.965 3.734-6.287 4.485-9.651l-.976-.218c-.738 3.306-1.756 6.426-4.252 9.2l.743.669zm7.058-19.737c1.165-2.77 3.004-5.454 6.293-7.915l-.6-.801c-3.44 2.575-5.386 5.405-6.615 8.329l.922.387zm15.462-12.66a66.168 66.168 0 015.006-1.606l-.27-.962a67.227 67.227 0 00-5.081 1.63l.345.938zm5.006-1.606a292.83 292.83 0 015.216-1.41l-.251-.968c-1.646.428-3.388.898-5.235 1.416l.27.962zm15.652-3.772c4.321-.788 7.714-1.093 10.596-1.02l.025-1c-2.972-.075-6.436.24-10.8 1.036l.18.984zm20.858 1.214c2.881 1.172 5.825 2.697 9.76 4.453l.408-.913c-3.852-1.72-6.904-3.292-9.791-4.467l-.377.927zm19.811 8.419a143.103 143.103 0 0010.311 3.092l.253-.968a142.016 142.016 0 01-10.239-3.07l-.325.946zm20.838 5.52c3.236.66 6.751 1.303 10.579 1.922l.159-.987a264.932 264.932 0 01-10.539-1.914l-.199.98zm21.242 3.47c1.747.226 3.548.448 5.406.665l.116-.994a411.542 411.542 0 01-5.393-.664l-.129.992zm5.406.665c1.785.208 3.527.38 5.227.519l.081-.997a148.137 148.137 0 01-5.192-.516l-.116.994zm15.697.955a97.346 97.346 0 0010.451-.554l-.109-.994a96.357 96.357 0 01-10.344.548l.002 1zm20.792-2.408c3.647-.94 6.932-2.133 9.886-3.532l-.428-.904c-2.893 1.37-6.118 2.542-9.708 3.468l.25.968zm18.811-9.12a38.464 38.464 0 007.181-7.695l-.818-.576a37.456 37.456 0 01-6.995 7.496l.632.775zm12.03-17.049c1.233-3.4 1.995-6.865 2.388-10.25l-.993-.115c-.385 3.316-1.132 6.705-2.335 10.024l.94.341zM247.768 6.1a47.5 47.5 0 00-.779-5.202l-.979.204c.332 1.594.593 3.302.762 5.092l.996-.094z" fill="#3F4145"/></symbol><symbol id="rating-2gis" viewBox="0 0 32 32"><g clip-path="url(#clip0_37_2875)" fill-rule="evenodd" clip-rule="evenodd"><path d="M0 15.097c0 1.899 0 2.585.48 4.467.453 1.777 1.32 3.657 2.423 5.15.77 1.042 1.854 2.027 2.771 2.966 1.193.944 2.137 1.577 3.513 2.201 1.87.85 4.123 1.477 6.213 1.477 1.675 0 2.601.008 4.272-.4 1.85-.45 2.798-.878 4.341-1.703.408-.218.708-.429 1.074-.672.212-.14 1.343-.954 1.473-1.144H15c0-.375-.04-.598-.04-.98v-2.272c0-.115.457-.48.577-.57l5.973-5.395c1.256-1.23 2.61-2.792 3.522-4.268.578-.936 1.168-2.328 1.168-3.52 0-1.048-.165-1.93-.81-2.615-.973-1.035-3.054-1.063-4.24-.332-1.015.628-1.504 1.935-1.624 3.11-.036.353-.133 2.008-.006 2.267h-4.04c-.517-2.175-.077-4.887 1.128-6.653.27-.397.563-.742.902-1.076 1.913-1.885 5-2.418 7.707-1.926.14.025.497.094.583.134-.033-.089-.006-.032-.065-.094-.381-.395-2.27-1.44-2.789-1.696-.974-.48-2.518-1-3.536-1.198-2.543-.494-4.845-.49-7.37.128-2.235.547-4.01 1.453-5.812 2.77-.198.145-.337.27-.531.42L4.434 4.826c-.092.113-.115.145-.224.25-1.115 1.077-2.377 3.08-3.005 4.58C.533 11.263 0 13.314 0 15.097z"/><path d="M21.56 23.051h8.6l.674-1.455C31.467 20.04 32 18.074 32 16.273c0-1.748.027-2.02-.337-3.824-.045-.22-.51-2.031-.703-2.25 0 1.693-.8 3.76-1.737 5.157-1.017 1.517-1.312 1.83-2.494 3.081l-.68.706c-.406.398-1.744 1.61-2.215 1.983l-1.505 1.268c-.085.074-.112.079-.2.158-.088.08-.091.086-.192.163l-.377.336z"/></g></symbol><symbol id="rating-google" viewBox="0 0 32 32"><g clip-path="url(#clip0_37_2885)" fill-rule="evenodd" clip-rule="evenodd"><path d="M1.082 9.979l4.967 3.065c.364-.788.36-1.306.966-2.273 1.357-2.16 2.777-3.532 5.311-4.507 2.574-.989 5.649-.884 8.142.33 1.08.526 1.16.662 2.047 1.26l2.911-3.061c.24-.254.827-.798.978-1.048C22.29.216 16.474-.848 11.27.677 6.75 2 2.71 5.63 1.08 9.979zM22.633 23.4l4.95 3.078c.462-.319 1.688-1.983 2.006-2.513.59-.98 1.124-1.92 1.492-3.012.405-1.198.745-2.385.845-3.651.06-.77.078-1.39.073-2.165-.006-.936-.155-1.378-.194-2.05l-15.182.002.017 5.234h9.295c-.387 1.397-1.227 2.982-2.256 4.065-.14.147-1.015.953-1.046 1.011z"/><path d="M3.416 25.34c.347.595 1.594 1.742 2.154 2.215 2.657 2.246 5.878 3.503 9.373 3.763 2.504.186 5.188-.298 7.49-1.276 1.602-.681 4.055-2.233 5.15-3.564l-4.95-3.079c-.238.142-.53.386-.762.555-.237.173-.558.341-.817.492-.47.273-1.297.655-1.817.797-1.655.452-2.844.625-4.574.416-1.333-.16-2.76-.634-3.903-1.327-1.988-1.206-2.528-2.171-2.813-2.368L3.416 25.34zm0 0l4.531-3.376c-.085-.183-.473-.652-.619-.873-1.268-1.92-1.903-4.558-1.516-6.832l.237-1.215-4.967-3.065c-.461.87-.903 2.986-1.001 3.98-.272 2.751.13 5.845 1.41 8.336.406.79 1.289 2.473 1.925 3.045z"/></g></symbol><symbol id="rating-star" viewBox="0 0 24 24"><path d="M13.44 1.586l1.931 5.983a.814.814 0 00.303.421c.14.101.31.16.496.16l6.287-.014c.335 0 .642.103.893.285.253.184.446.444.55.76.103.319.1.644.004.94-.099.296-.287.56-.556.755l-5.095 3.687a.823.823 0 00-.305.937l1.956 5.977a1.505 1.505 0 01-.55 1.695 1.509 1.509 0 01-.89.291 1.51 1.51 0 01-.89-.293l-5.08-3.707A.85.85 0 0012 19.3a.847.847 0 00-.493.162l-5.08 3.707a1.504 1.504 0 01-1.78.002 1.505 1.505 0 01-.55-1.695L6.05 15.5a.826.826 0 00-.303-.937L.652 10.876a1.512 1.512 0 01-.556-.755 1.512 1.512 0 01.005-.94 1.51 1.51 0 01.549-.76c.251-.182.558-.285.892-.285l6.288.014a.827.827 0 00.798-.58l1.931-5.984a1.52 1.52 0 01.547-.762c.254-.184.563-.287.893-.287.332 0 .641.103.895.287.25.184.444.446.547.762z"/></symbol><symbol id="rating-yahoo" viewBox="0 0 32 32"><g clip-path="url(#clip0_37_2883)"><path fill-rule="evenodd" clip-rule="evenodd" d="M8.102 5.84l4.984-.001c.165.211 2.368 5.173 2.54 5.535.086.178.127.293.192.444l.429.94c.072.163.134.358.241.46l1.234-2.777c.145-.3.298-.635.43-.933.357-.813.954-2.026 1.244-2.764.044-.11.35-.874.472-.905h4.943c-.046.202-1.712 3.51-1.886 3.819-.337.601-.62 1.269-.939 1.877-.324.62-.651 1.27-.958 1.903-.297.611-.652 1.229-.944 1.864-.085.183-.151.293-.234.45-.069.134-.142.32-.234.489-.285.52-.285.424-.285 1.168 0 .465.03 5.45-.014 5.777h-5.72c-.06-.694-.01-4.693-.01-5.734 0-.721.017-.639-.248-1.169l-1.9-3.763c-.157-.332-.318-.64-.47-.938L9.056 7.787c-.183-.37-.874-1.687-.953-1.948zM0 4.516c0 1.882.007 1.32.294 3.075.1.61.264 1.235.395 1.791.404 1.728.77 3.11 1.246 4.761.047.166.074.238.125.437.323 1.259 1.41 4.665 1.837 5.817l.871 2.426c.424 1.096.763 2.034 1.278 3.082.73 1.485 1.636 2.8 3.124 3.357 1.974.739 3.368.337 5.403.045 1.21-.173 8.474-1.83 9.797-2.197l.93-.221c.263-.031.313.195.61.51.807.853 4.993 5.103 5.55 3.663.54-1.397-1.173-6.126-1.164-6.335l.308-1.242c.66-2.82 1.229-8.775 1.355-11.787l.003-.087c-.012-2.215.247-4.964-.438-6.693-.79-1.993-2.283-2.351-4.238-2.792-.95-.214-1.939-.371-2.898-.561-.489-.097-.968-.184-1.45-.278-.462-.09-1-.156-1.479-.236-.258-.043-.533-.044-.793-.077-.225-.028-.53-.075-.761-.106-.882-.12-2.22-.206-3.16-.309-.285-.03-.518-.035-.8-.063L13.213.298C12.568.273 11.91.182 11.267.182 9.324.141 7.727.002 5.685.002c-1.439 0-2.81-.084-4.075.98a4.95 4.95 0 00-.37.353C.53 2.058 0 3.52 0 4.515z"/></g></symbol><symbol id="rating-yandex" viewBox="0 0 32 32"><g clip-path="url(#clip0_37_2895)" fill-rule="evenodd" clip-rule="evenodd"><path d="M10.64 12.414c0-1.268.165-2.291.64-3.337.873-1.919 2.82-3.02 4.98-3.045 1.344-.015 2.697 0 4.042 0V25.33h-2.395l-.004-7.266-2.084.002c-.069.084-1.558 3.44-1.643 3.631l-1.539 3.42c-.032.072-.052.168-.12.213l-2.731-.006 3.621-7.87c-.153-.052-.474-.283-.6-.376a5.573 5.573 0 01-.98-.94c-.8-1.023-1.187-2.312-1.187-3.723zM0 15.254v.046c0 .941.01 1.64.148 2.575.21 1.427.58 2.778 1.176 4.077.224.487.457.968.73 1.43l.453.74c.07.101.12.185.188.287l.613.83c.038.05.062.076.101.126.042.053.065.089.11.137.042.047.073.087.112.134.041.052.075.086.113.135l.34.38c.053.052.065.081.115.133.224.228.974.983 1.223 1.172.274.208.523.442.8.645l1.139.785c.297.19.599.375.913.534.06.03.093.055.16.088.065.032.104.05.163.085.348.207.922.434 1.323.604.707.299 1.445.52 2.198.705 1.063.262 2.287.456 3.432.456h.046c.96 0 1.695-.01 2.648-.145.91-.13 2.279-.42 3.142-.758.116-.045.23-.08.352-.126a15.641 15.641 0 003.645-1.94l.967-.745c.091-.07.17-.154.255-.22l.266-.23c.186-.151.546-.532.73-.713.047-.045.08-.076.126-.122l.395-.44c.438-.533.82-.983 1.22-1.57.071-.105.124-.193.196-.298l.366-.6a16.58 16.58 0 00.958-1.94 12 12 0 00.265-.7c.17-.502.31-.972.442-1.485.131-.514.232-1.056.303-1.622.233-1.874.158-3.878-.31-5.704a19.94 19.94 0 00-.445-1.483 12.69 12.69 0 00-.415-1.042c-.05-.118-.095-.225-.152-.34-.468-.957-.991-1.88-1.638-2.722l-.87-1.066c-.043-.05-.077-.071-.12-.127-.31-.394-1.335-1.307-1.627-1.547l-.828-.638c-.867-.638-1.81-1.154-2.788-1.613-.113-.053-.224-.097-.333-.144a14.41 14.41 0 00-.354-.143C20.802.67 19.397.27 18.103.13c-1.506-.162-2.66-.184-4.169-.003-.578.07-1.13.168-1.655.297-.524.128-1.004.266-1.516.433l-1.054.397a17.63 17.63 0 00-1.786.883l-1.054.661c-.486.323-.929.678-1.373 1.044l-.765.698c-.09.067-.154.163-.234.242-.08.078-.178.162-.249.245-.367.43-.779.84-1.103 1.308-.068.097-.14.188-.21.283a13.75 13.75 0 00-.945 1.464c-.034.06-.05.103-.086.16-.157.252-.283.532-.413.799-.332.676-.575 1.369-.812 2.082C.28 12.323 0 13.963 0 15.255z"/><path d="M13.213 12.47c0 1.285.461 2.715 1.618 3.265.356.17.904.296 1.348.296h1.718V8.064h-1.675c-.504 0-1.007.168-1.377.368-1.13.611-1.632 2.175-1.632 3.475v.564z"/></g></symbol><symbol id="sber-logo" viewBox="0 0 210 33"><path d="M28.908 6.355a16.45 16.45 0 011.934 3.252l-14.7 10.983-6.144-3.904v-4.695l6.144 3.903 12.766-9.539zm-25.18 9.999c0-.21.005-.42.015-.628L.02 15.54a16.501 16.501 0 001.206 7.074 16.347 16.347 0 003.5 5.302l2.642-2.676a12.544 12.544 0 01-2.695-4.075 12.679 12.679 0 01-.945-4.812zM16.139 3.778c.207 0 .414.008.62.018L16.943.02A15.909 15.909 0 009.96 1.242 16.082 16.082 0 004.726 4.79l2.64 2.677a12.357 12.357 0 014.023-2.733 12.223 12.223 0 014.748-.957zm0 25.155c-.208 0-.415 0-.621-.017l-.187 3.773a15.898 15.898 0 006.981-1.221 16.072 16.072 0 005.232-3.549l-2.636-2.675a12.363 12.363 0 01-4.022 2.73 12.228 12.228 0 01-4.747.959z" fill="#32CC00"/><path d="M23.134 5.972l3.138-2.344A15.933 15.933 0 0016.134 0v3.777a12.23 12.23 0 017 2.195zm9.142 10.383a16.67 16.67 0 00-.254-2.931l-3.473 2.594v.337a12.7 12.7 0 01-1.067 5.1 12.538 12.538 0 01-3.021 4.221l2.505 2.806a16.306 16.306 0 003.927-5.492 16.498 16.498 0 001.383-6.635zM16.139 28.932c-1.734 0-3.45-.368-5.034-1.081a12.393 12.393 0 01-4.165-3.062l-2.768 2.538a16.105 16.105 0 005.419 3.98 15.913 15.913 0 006.548 1.402v-3.777zM7.816 7.033L5.312 4.227a16.304 16.304 0 00-3.928 5.491A16.498 16.498 0 000 16.354h3.728a12.7 12.7 0 011.067-5.1 12.54 12.54 0 013.021-4.221z" fill="#32CC00"/><mask id="mask0_606_5807" style="mask-type:luminance" maskUnits="userSpaceOnUse" x="40" y="5" width="170" height="23"><path d="M209.38 5.69H40.966v21.62H209.38V5.69z" fill="#fff"/></mask><g mask="url(#mask0_606_5807)" fill="#fff"><path d="M93.13 9.354l4.617-3.409H82.293v20.483h15.454V23.02H86.703v-5.246h9.421v-3.409h-9.42v-5.01h6.426zm-21.235 4.571H66.53V9.353h8.563l4.614-3.42H62.123v20.483h9.205c5.16 0 8.122-2.343 8.122-6.43 0-3.91-2.683-6.061-7.555-6.061zm-.766 9.082H66.53V17.33h4.6c2.79 0 4.1.951 4.1 2.838s-1.393 2.838-4.1 2.838zm37.978-17.066h-8.412v20.483h4.409v-5.802h4.003c5.367 0 8.687-2.83 8.687-7.351 0-4.522-3.32-7.33-8.687-7.33zm-.093 11.27h-3.91V9.352h3.91c2.823 0 4.381 1.396 4.381 3.93 0 2.534-1.558 3.928-4.381 3.928zM55.506 21.59a7.685 7.685 0 01-3.71.93c-3.876 0-6.688-2.773-6.688-6.59 0-3.82 2.812-6.598 6.688-6.598a6.545 6.545 0 013.907 1.212l3.084-2.276-.209-.148c-1.799-1.585-4.203-2.425-6.954-2.425-2.985 0-5.69 1.006-7.623 2.837a9.893 9.893 0 00-3.024 7.294 10.238 10.238 0 003.006 7.4c1.941 1.904 4.641 2.952 7.605 2.952 3.096 0 5.802-1.082 7.635-3.052l-2.761-2.06-.956.524zm79.771-7.665h-5.363V9.353h11.525v-3.42h-15.935v20.483h9.193c5.16 0 8.122-2.343 8.122-6.43.012-3.91-2.67-6.061-7.542-6.061zm-.766 9.082h-4.597V17.33h4.597c2.791 0 4.099.951 4.099 2.838s-1.38 2.838-4.099 2.838zm58.436 3.378h-4.47V5.902h4.47v8.603h2.433l6.57-8.603h5.066l-7.793 9.744 9.049 10.74h-5.931l-6.651-8.057h-2.743v8.056zm-33.888-3.891h-9.456L148 26.47h-4.757l8.869-20.483h4.756l8.725 20.483h-4.931l-1.603-3.977zm-1.481-3.712l-3.219-7.955-3.237 7.955h6.456zm14.033-12.794v8.553h9.25V5.988h4.609v20.483h-4.609v-8.07h-9.25v8.07h-4.609V5.988h4.609z"/></g></symbol><symbol id="sparkle" viewBox="0 0 34 33"><path d="M.753 16.435l13.254 3.18 3.18 13.255 3.182-13.254 13.253-3.181-13.253-3.181L17.188 0l-3.181 13.254-13.254 3.18z"/></symbol><symbol id="star" viewBox="0 0 53 53"><path fill-rule="evenodd" clip-rule="evenodd" d="M20.082 46.305c3.347-11.09-2.887-22.802-13.953-26.186C17.22 23.511 28.965 17.252 32.363 6.14c-3.347 11.09 2.887 22.802 13.953 26.186-11.091-3.392-22.836 2.867-26.234 13.979z" fill="#3F4145"/><path fill-rule="evenodd" clip-rule="evenodd" d="M21.46 41.798c2.596-8.6-2.24-17.685-10.822-20.31 8.602 2.631 17.712-2.223 20.347-10.841-2.596 8.6 2.24 17.685 10.822 20.31-8.602-2.631-17.712 2.223-20.347 10.841z" fill="#E6EA24"/></symbol><symbol id="tg" viewBox="0 0 22 19"><path d="M1.152 7.567L20.435.132c.895-.323 1.677.218 1.387 1.572l.001-.002L18.54 17.17c-.243 1.097-.895 1.364-1.807.847l-5-3.685-2.411 2.323c-.267.267-.492.492-1.009.492l.355-5.088 9.267-8.372c.403-.355-.09-.555-.622-.202l-11.451 7.21-4.937-1.54c-1.072-.34-1.095-1.071.227-1.588z" fill="#fff"/></symbol><symbol id="vk" viewBox="0 0 28 17"><path fill-rule="evenodd" clip-rule="evenodd" d="M4.834.5H1.917c-.834 0-1 .392-1 .825 0 .772.989 4.604 4.605 9.672 2.41 3.46 5.807 5.336 8.898 5.336 1.854 0 2.083-.416 2.083-1.134v-2.616c0-.833.176-1 .763-1 .433 0 1.175.217 2.906 1.886 1.978 1.977 2.304 2.864 3.416 2.864h2.918c.833 0 1.25-.416 1.01-1.239-.264-.82-1.208-2.008-2.461-3.418-.68-.803-1.7-1.668-2.01-2.1-.432-.557-.308-.804 0-1.299 0 0 3.555-5.005 3.926-6.705.186-.618 0-1.072-.882-1.072h-2.917c-.742 0-1.084.392-1.27.825 0 0-1.483 3.615-3.585 5.964-.68.68-.989.896-1.36.896-.185 0-.454-.217-.454-.835V1.572C16.503.831 16.288.5 15.67.5h-4.585c-.463 0-.742.344-.742.67 0 .703 1.05.866 1.16 2.843v4.295c0 .942-.17 1.113-.542 1.113-.989 0-3.395-3.632-4.821-7.787C5.86.826 5.58.5 4.834.5z" fill="#fff"/></symbol></svg>